<ttFont>
    <TTGlyph name=".notdef" xMin="32" yMin="0" xMax="440" yMax="780">
      <contour>
        <pt x="32" y="0" on="1"/>
        <pt x="32" y="780" on="1"/>
        <pt x="440" y="780" on="1"/>
        <pt x="440" y="0" on="1"/>
      </contour>
      <contour>
        <pt x="92" y="60" on="1"/>
        <pt x="380" y="60" on="1"/>
        <pt x="380" y="720" on="1"/>
        <pt x="92" y="720" on="1"/>
      </contour>
    </TTGlyph>
    <TTGlyph name="A" xMin="-27" yMin="0" xMax="547" yMax="698">
      <contour>
        <pt x="464" y="0" on="1"/>
        <pt x="438" y="206" on="1"/>
        <pt x="167" y="206" on="1"/>
        <pt x="59" y="0" on="1"/>
        <pt x="-27" y="0" on="1"/>
        <pt x="346" y="698" on="1"/>
        <pt x="453" y="698" on="1"/>
        <pt x="547" y="0" on="1"/>
      </contour>
      <contour>
        <pt x="387" y="621" on="1"/>
        <pt x="382" y="621" on="1"/>
        <pt x="204" y="278" on="1"/>
        <pt x="430" y="278" on="1"/>
      </contour>
    </TTGlyph>
    <TTGlyph name="AE" xMin="-42" yMin="0" xMax="911" yMax="698">
      <contour>
        <pt x="401" y="205" on="1"/>
        <pt x="189" y="205" on="1"/>
        <pt x="50" y="0" on="1"/>
        <pt x="-42" y="0" on="1"/>
        <pt x="440" y="698" on="1"/>
        <pt x="911" y="698" on="1"/>
        <pt x="896" y="626" on="1"/>
        <pt x="567" y="626" on="1"/>
        <pt x="520" y="390" on="1"/>
        <pt x="816" y="390" on="1"/>
        <pt x="802" y="318" on="1"/>
        <pt x="505" y="318" on="1"/>
        <pt x="456" y="72" on="1"/>
        <pt x="802" y="72" on="1"/>
        <pt x="788" y="0" on="1"/>
        <pt x="360" y="0" on="1"/>
      </contour>
      <contour>
        <pt x="477" y="631" on="1"/>
        <pt x="239" y="276" on="1"/>
        <pt x="416" y="276" on="1"/>
        <pt x="487" y="631" on="1"/>
      </contour>
    </TTGlyph>
    <TTGlyph name="AEacute" xMin="-42" yMin="0" xMax="911" yMax="950">
      <component glyphName="AE" x="0" y="0" flags="0x204"/>
      <component glyphName="acute.case" x="360" y="0" flags="0x4"/>
    </TTGlyph>
    <TTGlyph name="Aacute" xMin="-27" yMin="0" xMax="547" yMax="950">
      <component glyphName="A" x="0" y="0" flags="0x204"/>
      <component glyphName="acute.case" x="105" y="0" flags="0x4"/>
    </TTGlyph>
    <TTGlyph name="Abreve" xMin="-27" yMin="0" xMax="582" yMax="920">
      <component glyphName="A" x="0" y="0" flags="0x204"/>
      <component glyphName="breve.case" x="105" y="0" flags="0x4"/>
    </TTGlyph>
    <TTGlyph name="Acircumflex" xMin="-27" yMin="0" xMax="568" yMax="935">
      <component glyphName="A" x="0" y="0" flags="0x204"/>
      <component glyphName="circumflex.case" x="105" y="0" flags="0x4"/>
    </TTGlyph>
    <TTGlyph name="Adieresis" xMin="-27" yMin="0" xMax="563" yMax="892">
      <component glyphName="A" x="0" y="0" flags="0x204"/>
      <component glyphName="dieresis.case" x="105" y="0" flags="0x4"/>
    </TTGlyph>
    <TTGlyph name="Agrave" xMin="-27" yMin="0" xMax="547" yMax="948">
      <component glyphName="A" x="0" y="0" flags="0x204"/>
      <component glyphName="grave.case" x="105" y="0" flags="0x4"/>
    </TTGlyph>
    <TTGlyph name="Alpha" xMin="-27" yMin="0" xMax="547" yMax="698">
      <component glyphName="A" x="0" y="0" flags="0x204"/>
    </TTGlyph>
    <TTGlyph name="Alphatonos" xMin="-27" yMin="0" xMax="547" yMax="780">
      <component glyphName="A" x="0" y="0" flags="0x204"/>
      <component glyphName="tonos.case" x="-179" y="0" flags="0x4"/>
    </TTGlyph>
    <TTGlyph name="Amacron" xMin="-27" yMin="0" xMax="566" yMax="875">
      <component glyphName="A" x="0" y="0" flags="0x204"/>
      <component glyphName="macron.case" x="105" y="0" flags="0x4"/>
    </TTGlyph>
    <TTGlyph name="Aogonek" xMin="-27" yMin="-207" xMax="553" yMax="698">
      <contour>
        <pt x="346" y="698" on="1"/>
        <pt x="453" y="698" on="1"/>
        <pt x="547" y="0" on="1"/>
        <pt x="508" y="-26" on="0"/>
        <pt x="461" y="-65" on="0"/>
        <pt x="436" y="-94" on="0"/>
        <pt x="429" y="-114" on="0"/>
        <pt x="429" y="-122" on="1"/>
        <pt x="429" y="-138" on="0"/>
        <pt x="448" y="-153" on="0"/>
        <pt x="462" y="-153" on="1"/>
        <pt x="474" y="-153" on="0"/>
        <pt x="502" y="-140" on="0"/>
        <pt x="516" y="-126" on="1"/>
        <pt x="553" y="-170" on="1"/>
        <pt x="540" y="-184" on="0"/>
        <pt x="492" y="-207" on="0"/>
        <pt x="457" y="-207" on="1"/>
        <pt x="438" y="-207" on="0"/>
        <pt x="404" y="-199" on="0"/>
        <pt x="377" y="-181" on="0"/>
        <pt x="361" y="-152" on="0"/>
        <pt x="361" y="-132" on="1"/>
        <pt x="361" y="-90" on="0"/>
        <pt x="429" y="-31" on="0"/>
        <pt x="486" y="-5" on="1"/>
        <pt x="485" y="0" on="1"/>
        <pt x="464" y="0" on="1"/>
        <pt x="438" y="206" on="1"/>
        <pt x="167" y="206" on="1"/>
        <pt x="59" y="0" on="1"/>
        <pt x="-27" y="0" on="1"/>
      </contour>
      <contour>
        <pt x="387" y="621" on="1"/>
        <pt x="382" y="621" on="1"/>
        <pt x="204" y="278" on="1"/>
        <pt x="430" y="278" on="1"/>
      </contour>
    </TTGlyph>
    <TTGlyph name="Aring" xMin="-27" yMin="0" xMax="547" yMax="976">
      <component glyphName="A" x="0" y="0" flags="0x204"/>
      <component glyphName="ring.case" x="105" y="0" flags="0x4"/>
    </TTGlyph>
    <TTGlyph name="Aringacute" xMin="-27" yMin="0" xMax="558" yMax="1120">
      <component glyphName="A" x="0" y="0" flags="0x204"/>
      <component glyphName="ringacute.case" x="105" y="0" flags="0x4"/>
    </TTGlyph>
    <TTGlyph name="Atilde" xMin="-27" yMin="0" xMax="586" yMax="897">
      <component glyphName="A" x="0" y="0" flags="0x204"/>
      <component glyphName="tilde.case" x="105" y="0" flags="0x4"/>
    </TTGlyph>
    <TTGlyph name="B" xMin="39" yMin="0" xMax="603" yMax="698">
      <contour>
        <pt x="179" y="698" on="1"/>
        <pt x="436" y="698" on="1"/>
        <pt x="517" y="698" on="0"/>
        <pt x="603" y="618" on="0"/>
        <pt x="603" y="549" on="1"/>
        <pt x="603" y="517" on="0"/>
        <pt x="584" y="458" on="0"/>
        <pt x="548" y="410" on="0"/>
        <pt x="495" y="375" on="0"/>
        <pt x="461" y="367" on="1"/>
        <pt x="460" y="362" on="1"/>
        <pt x="508" y="351" on="0"/>
        <pt x="561" y="292" on="0"/>
        <pt x="561" y="238" on="1"/>
        <pt x="561" y="189" on="0"/>
        <pt x="526" y="103" on="0"/>
        <pt x="465" y="38" on="0"/>
        <pt x="382" y="0" on="0"/>
        <pt x="333" y="0" on="1"/>
        <pt x="39" y="0" on="1"/>
      </contour>
      <contour>
        <pt x="332" y="72" on="1"/>
        <pt x="384" y="72" on="0"/>
        <pt x="456" y="127" on="0"/>
        <pt x="467" y="184" on="1"/>
        <pt x="472" y="210" on="0"/>
        <pt x="476" y="235" on="0"/>
        <pt x="476" y="242" on="1"/>
        <pt x="476" y="281" on="0"/>
        <pt x="424" y="324" on="0"/>
        <pt x="374" y="324" on="1"/>
        <pt x="184" y="324" on="1"/>
        <pt x="134" y="72" on="1"/>
      </contour>
      <contour>
        <pt x="367" y="394" on="1"/>
        <pt x="423" y="394" on="0"/>
        <pt x="496" y="441" on="0"/>
        <pt x="507" y="494" on="1"/>
        <pt x="512" y="517" on="0"/>
        <pt x="514" y="542" on="0"/>
        <pt x="514" y="549" on="1"/>
        <pt x="514" y="585" on="0"/>
        <pt x="470" y="626" on="0"/>
        <pt x="425" y="626" on="1"/>
        <pt x="244" y="626" on="1"/>
        <pt x="198" y="394" on="1"/>
      </contour>
    </TTGlyph>
    <TTGlyph name="Beta" xMin="39" yMin="0" xMax="603" yMax="698">
      <component glyphName="B" x="0" y="0" flags="0x204"/>
    </TTGlyph>
    <TTGlyph name="C" xMin="55" yMin="-12" xMax="615" yMax="710">
      <contour>
        <pt x="290" y="-12" on="1"/>
        <pt x="239" y="-12" on="0"/>
        <pt x="153" y="24" on="0"/>
        <pt x="90" y="95" on="0"/>
        <pt x="55" y="198" on="0"/>
        <pt x="55" y="266" on="1"/>
        <pt x="55" y="357" on="0"/>
        <pt x="103" y="518" on="0"/>
        <pt x="191" y="639" on="0"/>
        <pt x="315" y="710" on="0"/>
        <pt x="391" y="710" on="1"/>
        <pt x="476" y="710" on="0"/>
        <pt x="589" y="632" on="0"/>
        <pt x="615" y="551" on="1"/>
        <pt x="542" y="518" on="1"/>
        <pt x="523" y="577" on="0"/>
        <pt x="449" y="637" on="0"/>
        <pt x="383" y="637" on="1"/>
        <pt x="343" y="637" on="0"/>
        <pt x="272" y="607" on="0"/>
        <pt x="215" y="552" on="0"/>
        <pt x="174" y="475" on="0"/>
        <pt x="165" y="427" on="1"/>
        <pt x="142" y="312" on="1"/>
        <pt x="138" y="293" on="0"/>
        <pt x="136" y="261" on="0"/>
        <pt x="136" y="246" on="1"/>
        <pt x="136" y="205" on="0"/>
        <pt x="158" y="137" on="0"/>
        <pt x="198" y="88" on="0"/>
        <pt x="257" y="61" on="0"/>
        <pt x="295" y="61" on="1"/>
        <pt x="331" y="61" on="0"/>
        <pt x="388" y="79" on="0"/>
        <pt x="433" y="112" on="0"/>
        <pt x="470" y="161" on="0"/>
        <pt x="487" y="191" on="1"/>
        <pt x="555" y="157" on="1"/>
        <pt x="509" y="70" on="0"/>
        <pt x="383" y="-12" on="0"/>
      </contour>
    </TTGlyph>
    <TTGlyph name="Cacute" xMin="55" yMin="-12" xMax="615" yMax="950">
      <component glyphName="C" x="0" y="0" flags="0x204"/>
      <component glyphName="acute.case" x="102" y="0" flags="0x4"/>
    </TTGlyph>
    <TTGlyph name="Ccaron" xMin="55" yMin="-12" xMax="615" yMax="944">
      <component glyphName="C" x="0" y="0" flags="0x204"/>
      <component glyphName="caron.case" x="102" y="0" flags="0x4"/>
    </TTGlyph>
    <TTGlyph name="Ccedilla" xMin="55" yMin="-207" xMax="615" yMax="710">
      <contour>
        <pt x="383" y="637" on="1"/>
        <pt x="343" y="637" on="0"/>
        <pt x="272" y="607" on="0"/>
        <pt x="215" y="552" on="0"/>
        <pt x="174" y="475" on="0"/>
        <pt x="165" y="427" on="1"/>
        <pt x="142" y="312" on="1"/>
        <pt x="138" y="293" on="0"/>
        <pt x="136" y="261" on="0"/>
        <pt x="136" y="246" on="1"/>
        <pt x="136" y="205" on="0"/>
        <pt x="158" y="137" on="0"/>
        <pt x="198" y="88" on="0"/>
        <pt x="257" y="61" on="0"/>
        <pt x="295" y="61" on="1"/>
        <pt x="331" y="61" on="0"/>
        <pt x="388" y="79" on="0"/>
        <pt x="433" y="112" on="0"/>
        <pt x="470" y="161" on="0"/>
        <pt x="487" y="191" on="1"/>
        <pt x="555" y="157" on="1"/>
        <pt x="511" y="73" on="0"/>
        <pt x="390" y="-9" on="0"/>
        <pt x="302" y="-12" on="1"/>
        <pt x="286" y="-62" on="1"/>
        <pt x="288" y="-64" on="1"/>
        <pt x="293" y="-63" on="0"/>
        <pt x="308" y="-60" on="0"/>
        <pt x="319" y="-60" on="1"/>
        <pt x="344" y="-60" on="0"/>
        <pt x="378" y="-84" on="0"/>
        <pt x="378" y="-116" on="1"/>
        <pt x="378" y="-158" on="0"/>
        <pt x="318" y="-207" on="0"/>
        <pt x="270" y="-207" on="1"/>
        <pt x="232" y="-207" on="0"/>
        <pt x="180" y="-185" on="0"/>
        <pt x="169" y="-170" on="1"/>
        <pt x="209" y="-129" on="1"/>
        <pt x="216" y="-139" on="0"/>
        <pt x="246" y="-154" on="0"/>
        <pt x="268" y="-154" on="1"/>
        <pt x="290" y="-154" on="0"/>
        <pt x="314" y="-134" on="0"/>
        <pt x="314" y="-118" on="1"/>
        <pt x="314" y="-102" on="0"/>
        <pt x="291" y="-83" on="0"/>
        <pt x="259" y="-79" on="1"/>
        <pt x="233" y="-76" on="1"/>
        <pt x="253" y="-10" on="1"/>
        <pt x="209" y="-3" on="0"/>
        <pt x="136" y="39" on="0"/>
        <pt x="84" y="108" on="0"/>
        <pt x="55" y="205" on="0"/>
        <pt x="55" y="266" on="1"/>
        <pt x="55" y="357" on="0"/>
        <pt x="103" y="518" on="0"/>
        <pt x="191" y="639" on="0"/>
        <pt x="315" y="710" on="0"/>
        <pt x="391" y="710" on="1"/>
        <pt x="476" y="710" on="0"/>
        <pt x="589" y="632" on="0"/>
        <pt x="615" y="551" on="1"/>
        <pt x="542" y="518" on="1"/>
        <pt x="523" y="577" on="0"/>
        <pt x="449" y="637" on="0"/>
      </contour>
    </TTGlyph>
    <TTGlyph name="Ccircumflex" xMin="55" yMin="-12" xMax="615" yMax="935">
      <component glyphName="C" x="0" y="0" flags="0x204"/>
      <component glyphName="circumflex.case" x="102" y="0" flags="0x4"/>
    </TTGlyph>
    <TTGlyph name="Cdotaccent" xMin="55" yMin="-12" xMax="615" yMax="890">
      <component glyphName="C" x="0" y="0" flags="0x204"/>
      <component glyphName="dotaccent.case" x="102" y="0" flags="0x4"/>
    </TTGlyph>
    <TTGlyph name="Chi" xMin="-25" yMin="0" xMax="653" yMax="698">
      <component glyphName="X" x="0" y="0" flags="0x204"/>
    </TTGlyph>
    <TTGlyph name="D" xMin="39" yMin="0" xMax="623" yMax="698">
      <contour>
        <pt x="179" y="698" on="1"/>
        <pt x="384" y="698" on="1"/>
        <pt x="496" y="698" on="0"/>
        <pt x="623" y="562" on="0"/>
        <pt x="623" y="427" on="1"/>
        <pt x="623" y="346" on="0"/>
        <pt x="577" y="192" on="0"/>
        <pt x="488" y="73" on="0"/>
        <pt x="358" y="0" on="0"/>
        <pt x="275" y="0" on="1"/>
        <pt x="39" y="0" on="1"/>
      </contour>
      <contour>
        <pt x="277" y="72" on="1"/>
        <pt x="367" y="72" on="0"/>
        <pt x="491" y="183" on="0"/>
        <pt x="512" y="289" on="1"/>
        <pt x="533" y="394" on="1"/>
        <pt x="539" y="424" on="0"/>
        <pt x="539" y="455" on="1"/>
        <pt x="539" y="539" on="0"/>
        <pt x="453" y="626" on="0"/>
        <pt x="380" y="626" on="1"/>
        <pt x="245" y="626" on="1"/>
        <pt x="135" y="72" on="1"/>
      </contour>
    </TTGlyph>
    <TTGlyph name="Dcaron" xMin="39" yMin="0" xMax="623" yMax="944">
      <component glyphName="D" x="0" y="0" flags="0x204"/>
      <component glyphName="caron.case" x="87" y="0" flags="0x4"/>
    </TTGlyph>
    <TTGlyph name="Dcroat" xMin="36" yMin="0" xMax="626" yMax="698">
      <contour>
        <pt x="110" y="338" on="1"/>
        <pt x="36" y="338" on="1"/>
        <pt x="49" y="400" on="1"/>
        <pt x="123" y="400" on="1"/>
        <pt x="182" y="698" on="1"/>
        <pt x="387" y="698" on="1"/>
        <pt x="499" y="698" on="0"/>
        <pt x="626" y="562" on="0"/>
        <pt x="626" y="427" on="1"/>
        <pt x="626" y="346" on="0"/>
        <pt x="580" y="192" on="0"/>
        <pt x="491" y="73" on="0"/>
        <pt x="361" y="0" on="0"/>
        <pt x="278" y="0" on="1"/>
        <pt x="42" y="0" on="1"/>
      </contour>
      <contour>
        <pt x="280" y="72" on="1"/>
        <pt x="370" y="72" on="0"/>
        <pt x="494" y="184" on="0"/>
        <pt x="515" y="289" on="1"/>
        <pt x="536" y="394" on="1"/>
        <pt x="542" y="424" on="0"/>
        <pt x="542" y="455" on="1"/>
        <pt x="542" y="538" on="0"/>
        <pt x="456" y="626" on="0"/>
        <pt x="383" y="626" on="1"/>
        <pt x="248" y="626" on="1"/>
        <pt x="203" y="400" on="1"/>
        <pt x="336" y="400" on="1"/>
        <pt x="323" y="338" on="1"/>
        <pt x="191" y="338" on="1"/>
        <pt x="138" y="72" on="1"/>
      </contour>
    </TTGlyph>
    <TTGlyph name="Delta" xMin="-10" yMin="0" xMax="545" yMax="698">
      <contour>
        <pt x="6" y="77" on="1"/>
        <pt x="346" y="698" on="1"/>
        <pt x="453" y="698" on="1"/>
        <pt x="545" y="77" on="1"/>
        <pt x="530" y="0" on="1"/>
        <pt x="-10" y="0" on="1"/>
      </contour>
      <contour>
        <pt x="387" y="621" on="1"/>
        <pt x="382" y="621" on="1"/>
        <pt x="89" y="72" on="1"/>
        <pt x="463" y="72" on="1"/>
      </contour>
    </TTGlyph>
    <TTGlyph name="E" xMin="39" yMin="0" xMax="590" yMax="698">
      <contour>
        <pt x="39" y="0" on="1"/>
        <pt x="179" y="698" on="1"/>
        <pt x="590" y="698" on="1"/>
        <pt x="575" y="626" on="1"/>
        <pt x="246" y="626" on="1"/>
        <pt x="199" y="390" on="1"/>
        <pt x="495" y="390" on="1"/>
        <pt x="481" y="318" on="1"/>
        <pt x="184" y="318" on="1"/>
        <pt x="135" y="72" on="1"/>
        <pt x="481" y="72" on="1"/>
        <pt x="467" y="0" on="1"/>
      </contour>
    </TTGlyph>
    <TTGlyph name="Eacute" xMin="39" yMin="0" xMax="590" yMax="950">
      <component glyphName="E" x="0" y="0" flags="0x204"/>
      <component glyphName="acute.case" x="86" y="0" flags="0x4"/>
    </TTGlyph>
    <TTGlyph name="Ebreve" xMin="39" yMin="0" xMax="590" yMax="920">
      <component glyphName="E" x="0" y="0" flags="0x204"/>
      <component glyphName="breve.case" x="86" y="0" flags="0x4"/>
    </TTGlyph>
    <TTGlyph name="Ecaron" xMin="39" yMin="0" xMax="590" yMax="944">
      <component glyphName="E" x="0" y="0" flags="0x204"/>
      <component glyphName="caron.case" x="86" y="0" flags="0x4"/>
    </TTGlyph>
    <TTGlyph name="Ecircumflex" xMin="39" yMin="0" xMax="590" yMax="935">
      <component glyphName="E" x="0" y="0" flags="0x204"/>
      <component glyphName="circumflex.case" x="86" y="0" flags="0x4"/>
    </TTGlyph>
    <TTGlyph name="Edieresis" xMin="39" yMin="0" xMax="590" yMax="892">
      <component glyphName="E" x="0" y="0" flags="0x204"/>
      <component glyphName="dieresis.case" x="86" y="0" flags="0x4"/>
    </TTGlyph>
    <TTGlyph name="Edotaccent" xMin="39" yMin="0" xMax="590" yMax="890">
      <component glyphName="E" x="0" y="0" flags="0x204"/>
      <component glyphName="dotaccent.case" x="86" y="0" flags="0x4"/>
    </TTGlyph>
    <TTGlyph name="Egrave" xMin="39" yMin="0" xMax="590" yMax="948">
      <component glyphName="E" x="0" y="0" flags="0x204"/>
      <component glyphName="grave.case" x="86" y="0" flags="0x4"/>
    </TTGlyph>
    <TTGlyph name="Emacron" xMin="39" yMin="0" xMax="590" yMax="875">
      <component glyphName="E" x="0" y="0" flags="0x204"/>
      <component glyphName="macron.case" x="86" y="0" flags="0x4"/>
    </TTGlyph>
    <TTGlyph name="Eng" xMin="39" yMin="-200" xMax="681" yMax="698">
      <contour>
        <pt x="39" y="0" on="1"/>
        <pt x="179" y="698" on="1"/>
        <pt x="273" y="698" on="1"/>
        <pt x="425" y="278" on="1"/>
        <pt x="480" y="111" on="1"/>
        <pt x="485" y="111" on="1"/>
        <pt x="602" y="698" on="1"/>
        <pt x="681" y="698" on="1"/>
        <pt x="521" y="-98" on="1"/>
        <pt x="510" y="-151" on="0"/>
        <pt x="460" y="-200" on="0"/>
        <pt x="407" y="-200" on="1"/>
        <pt x="340" y="-200" on="1"/>
        <pt x="354" y="-130" on="1"/>
        <pt x="436" y="-130" on="1"/>
        <pt x="462" y="0" on="1"/>
        <pt x="447" y="0" on="1"/>
        <pt x="295" y="420" on="1"/>
        <pt x="240" y="587" on="1"/>
        <pt x="235" y="587" on="1"/>
        <pt x="118" y="0" on="1"/>
      </contour>
    </TTGlyph>
    <TTGlyph name="Eogonek" xMin="39" yMin="-207" xMax="590" yMax="698">
      <contour>
        <pt x="179" y="698" on="1"/>
        <pt x="590" y="698" on="1"/>
        <pt x="575" y="626" on="1"/>
        <pt x="246" y="626" on="1"/>
        <pt x="199" y="390" on="1"/>
        <pt x="495" y="390" on="1"/>
        <pt x="481" y="318" on="1"/>
        <pt x="184" y="318" on="1"/>
        <pt x="135" y="72" on="1"/>
        <pt x="481" y="72" on="1"/>
        <pt x="467" y="0" on="1"/>
        <pt x="428" y="-26" on="0"/>
        <pt x="381" y="-65" on="0"/>
        <pt x="356" y="-94" on="0"/>
        <pt x="349" y="-114" on="0"/>
        <pt x="349" y="-122" on="1"/>
        <pt x="349" y="-138" on="0"/>
        <pt x="368" y="-153" on="0"/>
        <pt x="382" y="-153" on="1"/>
        <pt x="394" y="-153" on="0"/>
        <pt x="422" y="-140" on="0"/>
        <pt x="436" y="-126" on="1"/>
        <pt x="473" y="-170" on="1"/>
        <pt x="460" y="-184" on="0"/>
        <pt x="412" y="-207" on="0"/>
        <pt x="377" y="-207" on="1"/>
        <pt x="358" y="-207" on="0"/>
        <pt x="324" y="-199" on="0"/>
        <pt x="297" y="-181" on="0"/>
        <pt x="281" y="-152" on="0"/>
        <pt x="281" y="-132" on="1"/>
        <pt x="281" y="-90" on="0"/>
        <pt x="349" y="-31" on="0"/>
        <pt x="406" y="-5" on="1"/>
        <pt x="405" y="0" on="1"/>
        <pt x="39" y="0" on="1"/>
      </contour>
    </TTGlyph>
    <TTGlyph name="Epsilon" xMin="39" yMin="0" xMax="590" yMax="698">
      <component glyphName="E" x="0" y="0" flags="0x204"/>
    </TTGlyph>
    <TTGlyph name="Epsilontonos" xMin="59" yMin="0" xMax="630" yMax="780">
      <component glyphName="E" x="40" y="0" flags="0x4"/>
      <component glyphName="tonos.case" x="-221" y="0" flags="0x4"/>
    </TTGlyph>
    <TTGlyph name="Eta" xMin="39" yMin="0" xMax="681" yMax="698">
      <component glyphName="H" x="0" y="0" flags="0x204"/>
    </TTGlyph>
    <TTGlyph name="Etatonos" xMin="59" yMin="0" xMax="721" yMax="780">
      <component glyphName="H" x="40" y="0" flags="0x4"/>
      <component glyphName="tonos.case" x="-221" y="0" flags="0x4"/>
    </TTGlyph>
    <TTGlyph name="Eth" xMin="36" yMin="0" xMax="626" yMax="698">
      <component glyphName="Dcroat" x="0" y="0" flags="0x204"/>
    </TTGlyph>
    <TTGlyph name="Euro" xMin="55" yMin="-12" xMax="613" yMax="710">
      <contour>
        <pt x="283" y="-12" on="1"/>
        <pt x="235" y="-12" on="0"/>
        <pt x="152" y="24" on="0"/>
        <pt x="90" y="95" on="0"/>
        <pt x="55" y="198" on="0"/>
        <pt x="55" y="266" on="1"/>
        <pt x="55" y="357" on="0"/>
        <pt x="103" y="519" on="0"/>
        <pt x="191" y="640" on="0"/>
        <pt x="315" y="710" on="0"/>
        <pt x="390" y="710" on="1"/>
        <pt x="475" y="710" on="0"/>
        <pt x="588" y="633" on="0"/>
        <pt x="613" y="558" on="1"/>
        <pt x="542" y="517" on="1"/>
        <pt x="523" y="577" on="0"/>
        <pt x="448" y="637" on="0"/>
        <pt x="384" y="637" on="1"/>
        <pt x="311" y="637" on="0"/>
        <pt x="200" y="543" on="0"/>
        <pt x="174" y="463" on="1"/>
        <pt x="427" y="463" on="1"/>
        <pt x="414" y="397" on="1"/>
        <pt x="159" y="397" on="1"/>
        <pt x="156" y="383" on="0"/>
        <pt x="150" y="352" on="0"/>
        <pt x="145" y="329" on="0"/>
        <pt x="142" y="313" on="0"/>
        <pt x="140" y="301" on="1"/>
        <pt x="395" y="301" on="1"/>
        <pt x="382" y="235" on="1"/>
        <pt x="136" y="235" on="1"/>
        <pt x="139" y="156" on="0"/>
        <pt x="221" y="61" on="0"/>
        <pt x="293" y="61" on="1"/>
        <pt x="330" y="61" on="0"/>
        <pt x="387" y="78" on="0"/>
        <pt x="432" y="112" on="0"/>
        <pt x="469" y="160" on="0"/>
        <pt x="487" y="192" on="1"/>
        <pt x="545" y="146" on="1"/>
        <pt x="521" y="106" on="0"/>
        <pt x="471" y="46" on="0"/>
        <pt x="409" y="7" on="0"/>
        <pt x="333" y="-12" on="0"/>
      </contour>
    </TTGlyph>
    <TTGlyph name="F" xMin="39" yMin="0" xMax="579" yMax="698">
      <contour>
        <pt x="39" y="0" on="1"/>
        <pt x="179" y="698" on="1"/>
        <pt x="579" y="698" on="1"/>
        <pt x="564" y="626" on="1"/>
        <pt x="246" y="626" on="1"/>
        <pt x="199" y="390" on="1"/>
        <pt x="491" y="390" on="1"/>
        <pt x="477" y="318" on="1"/>
        <pt x="184" y="318" on="1"/>
        <pt x="120" y="0" on="1"/>
      </contour>
    </TTGlyph>
    <TTGlyph name="G" xMin="55" yMin="-12" xMax="640" yMax="710">
      <contour>
        <pt x="483" y="102" on="1"/>
        <pt x="479" y="102" on="1"/>
        <pt x="468" y="79" on="0"/>
        <pt x="432" y="37" on="0"/>
        <pt x="382" y="6" on="0"/>
        <pt x="318" y="-12" on="0"/>
        <pt x="280" y="-12" on="1"/>
        <pt x="230" y="-12" on="0"/>
        <pt x="148" y="24" on="0"/>
        <pt x="88" y="94" on="0"/>
        <pt x="55" y="198" on="0"/>
        <pt x="55" y="266" on="1"/>
        <pt x="55" y="354" on="0"/>
        <pt x="101" y="514" on="0"/>
        <pt x="190" y="637" on="0"/>
        <pt x="320" y="710" on="0"/>
        <pt x="404" y="710" on="1"/>
        <pt x="495" y="710" on="0"/>
        <pt x="618" y="625" on="0"/>
        <pt x="640" y="551" on="1"/>
        <pt x="567" y="518" on="1"/>
        <pt x="547" y="575" on="0"/>
        <pt x="464" y="637" on="0"/>
        <pt x="394" y="637" on="1"/>
        <pt x="305" y="637" on="0"/>
        <pt x="184" y="520" on="0"/>
        <pt x="163" y="417" on="1"/>
        <pt x="142" y="313" on="1"/>
        <pt x="136" y="283" on="0"/>
        <pt x="136" y="253" on="1"/>
        <pt x="136" y="162" on="0"/>
        <pt x="223" y="61" on="0"/>
        <pt x="304" y="61" on="1"/>
        <pt x="340" y="61" on="0"/>
        <pt x="405" y="83" on="0"/>
        <pt x="459" y="125" on="0"/>
        <pt x="498" y="189" on="0"/>
        <pt x="506" y="231" on="1"/>
        <pt x="517" y="286" on="1"/>
        <pt x="368" y="286" on="1"/>
        <pt x="384" y="360" on="1"/>
        <pt x="611" y="360" on="1"/>
        <pt x="539" y="0" on="1"/>
        <pt x="462" y="0" on="1"/>
      </contour>
    </TTGlyph>
    <TTGlyph name="Gamma" xMin="39" yMin="0" xMax="543" yMax="698">
      <component glyphName="uni0413" x="0" y="0" flags="0x204"/>
    </TTGlyph>
    <TTGlyph name="Gbreve" xMin="55" yMin="-12" xMax="640" yMax="920">
      <component glyphName="G" x="0" y="0" flags="0x204"/>
      <component glyphName="breve.case" x="119" y="0" flags="0x4"/>
    </TTGlyph>
    <TTGlyph name="Gcircumflex" xMin="55" yMin="-12" xMax="640" yMax="935">
      <component glyphName="G" x="0" y="0" flags="0x204"/>
      <component glyphName="circumflex.case" x="119" y="0" flags="0x4"/>
    </TTGlyph>
    <TTGlyph name="Gcommaaccent" xMin="55" yMin="-245" xMax="640" yMax="710">
      <component glyphName="G" x="0" y="0" flags="0x204"/>
      <component glyphName="uni0326" x="278" y="0" flags="0x4"/>
    </TTGlyph>
    <TTGlyph name="Gdotaccent" xMin="55" yMin="-12" xMax="640" yMax="890">
      <component glyphName="G" x="0" y="0" flags="0x204"/>
      <component glyphName="dotaccent.case" x="119" y="0" flags="0x4"/>
    </TTGlyph>
    <TTGlyph name="H" xMin="39" yMin="0" xMax="681" yMax="698">
      <contour>
        <pt x="523" y="318" on="1"/>
        <pt x="184" y="318" on="1"/>
        <pt x="120" y="0" on="1"/>
        <pt x="39" y="0" on="1"/>
        <pt x="179" y="698" on="1"/>
        <pt x="260" y="698" on="1"/>
        <pt x="199" y="390" on="1"/>
        <pt x="538" y="390" on="1"/>
        <pt x="600" y="698" on="1"/>
        <pt x="681" y="698" on="1"/>
        <pt x="541" y="0" on="1"/>
        <pt x="460" y="0" on="1"/>
      </contour>
    </TTGlyph>
    <TTGlyph name="Hbar" xMin="42" yMin="0" xMax="727" yMax="698">
      <contour>
        <pt x="526" y="318" on="1"/>
        <pt x="187" y="318" on="1"/>
        <pt x="123" y="0" on="1"/>
        <pt x="42" y="0" on="1"/>
        <pt x="146" y="520" on="1"/>
        <pt x="80" y="520" on="1"/>
        <pt x="93" y="582" on="1"/>
        <pt x="159" y="582" on="1"/>
        <pt x="182" y="698" on="1"/>
        <pt x="263" y="698" on="1"/>
        <pt x="240" y="582" on="1"/>
        <pt x="580" y="582" on="1"/>
        <pt x="603" y="698" on="1"/>
        <pt x="684" y="698" on="1"/>
        <pt x="661" y="582" on="1"/>
        <pt x="727" y="582" on="1"/>
        <pt x="714" y="520" on="1"/>
        <pt x="648" y="520" on="1"/>
        <pt x="544" y="0" on="1"/>
        <pt x="463" y="0" on="1"/>
      </contour>
      <contour>
        <pt x="541" y="390" on="1"/>
        <pt x="567" y="520" on="1"/>
        <pt x="227" y="520" on="1"/>
        <pt x="201" y="390" on="1"/>
      </contour>
    </TTGlyph>
    <TTGlyph name="Hcircumflex" xMin="39" yMin="0" xMax="681" yMax="935">
      <component glyphName="H" x="0" y="0" flags="0x204"/>
      <component glyphName="circumflex.case" x="140" y="0" flags="0x4"/>
    </TTGlyph>
    <TTGlyph name="I" xMin="9" yMin="0" xMax="415" yMax="698">
      <contour>
        <pt x="9" y="0" on="1"/>
        <pt x="23" y="69" on="1"/>
        <pt x="116" y="69" on="1"/>
        <pt x="227" y="629" on="1"/>
        <pt x="134" y="629" on="1"/>
        <pt x="148" y="698" on="1"/>
        <pt x="415" y="698" on="1"/>
        <pt x="401" y="629" on="1"/>
        <pt x="308" y="629" on="1"/>
        <pt x="197" y="69" on="1"/>
        <pt x="290" y="69" on="1"/>
        <pt x="276" y="0" on="1"/>
      </contour>
    </TTGlyph>
    <TTGlyph name="IJ" xMin="75" yMin="-12" xMax="640" yMax="698">
      <contour>
        <pt x="640" y="698" on="1"/>
        <pt x="544" y="221" on="1"/>
        <pt x="521" y="108" on="0"/>
        <pt x="385" y="-12" on="0"/>
        <pt x="275" y="-12" on="1"/>
        <pt x="229" y="-12" on="0"/>
        <pt x="155" y="13" on="0"/>
        <pt x="103" y="58" on="0"/>
        <pt x="75" y="118" on="0"/>
        <pt x="75" y="154" on="1"/>
        <pt x="150" y="173" on="1"/>
        <pt x="155" y="61" on="0"/>
        <pt x="281" y="61" on="1"/>
        <pt x="354" y="61" on="0"/>
        <pt x="448" y="147" on="0"/>
        <pt x="464" y="227" on="1"/>
        <pt x="544" y="625" on="1"/>
        <pt x="388" y="625" on="1"/>
        <pt x="403" y="698" on="1"/>
      </contour>
      <contour>
        <pt x="179" y="698" on="1"/>
        <pt x="260" y="698" on="1"/>
        <pt x="178" y="290" on="1"/>
        <pt x="97" y="290" on="1"/>
      </contour>
    </TTGlyph>
    <TTGlyph name="IJacute" xMin="75" yMin="-12" xMax="669" yMax="950">
      <component glyphName="IJ" x="0" y="0" flags="0x204"/>
      <component glyphName="acute.case" x="-71" y="0" flags="0x4"/>
      <component glyphName="acute.case" x="230" y="0" flags="0x4"/>
    </TTGlyph>
    <TTGlyph name="Iacute" xMin="9" yMin="0" xMax="426" yMax="950">
      <component glyphName="I" x="0" y="0" flags="0x204"/>
      <component glyphName="acute.case" x="-13" y="0" flags="0x4"/>
    </TTGlyph>
    <TTGlyph name="Ibreve" xMin="9" yMin="0" xMax="464" yMax="920">
      <component glyphName="I" x="0" y="0" flags="0x204"/>
      <component glyphName="breve.case" x="-13" y="0" flags="0x4"/>
    </TTGlyph>
    <TTGlyph name="Icircumflex" xMin="9" yMin="0" xMax="450" yMax="935">
      <component glyphName="I" x="0" y="0" flags="0x204"/>
      <component glyphName="circumflex.case" x="-13" y="0" flags="0x4"/>
    </TTGlyph>
    <TTGlyph name="Idieresis" xMin="9" yMin="0" xMax="445" yMax="892">
      <component glyphName="I" x="0" y="0" flags="0x204"/>
      <component glyphName="dieresis.case" x="-13" y="0" flags="0x4"/>
    </TTGlyph>
    <TTGlyph name="Idotaccent" xMin="9" yMin="0" xMax="415" yMax="890">
      <component glyphName="I" x="0" y="0" flags="0x204"/>
      <component glyphName="dotaccent.case" x="-13" y="0" flags="0x4"/>
    </TTGlyph>
    <TTGlyph name="Igrave" xMin="9" yMin="0" xMax="415" yMax="948">
      <component glyphName="I" x="0" y="0" flags="0x204"/>
      <component glyphName="grave.case" x="-13" y="0" flags="0x4"/>
    </TTGlyph>
    <TTGlyph name="Imacron" xMin="9" yMin="0" xMax="448" yMax="875">
      <component glyphName="I" x="0" y="0" flags="0x204"/>
      <component glyphName="macron.case" x="-13" y="0" flags="0x4"/>
    </TTGlyph>
    <TTGlyph name="Iogonek" xMin="9" yMin="-207" xMax="415" yMax="698">
      <contour>
        <pt x="23" y="69" on="1"/>
        <pt x="116" y="69" on="1"/>
        <pt x="227" y="629" on="1"/>
        <pt x="134" y="629" on="1"/>
        <pt x="148" y="698" on="1"/>
        <pt x="415" y="698" on="1"/>
        <pt x="401" y="629" on="1"/>
        <pt x="308" y="629" on="1"/>
        <pt x="197" y="69" on="1"/>
        <pt x="290" y="69" on="1"/>
        <pt x="276" y="0" on="1"/>
        <pt x="237" y="-26" on="0"/>
        <pt x="190" y="-65" on="0"/>
        <pt x="165" y="-94" on="0"/>
        <pt x="158" y="-114" on="0"/>
        <pt x="158" y="-122" on="1"/>
        <pt x="158" y="-138" on="0"/>
        <pt x="177" y="-153" on="0"/>
        <pt x="191" y="-153" on="1"/>
        <pt x="203" y="-153" on="0"/>
        <pt x="231" y="-140" on="0"/>
        <pt x="245" y="-126" on="1"/>
        <pt x="282" y="-170" on="1"/>
        <pt x="269" y="-184" on="0"/>
        <pt x="221" y="-207" on="0"/>
        <pt x="186" y="-207" on="1"/>
        <pt x="167" y="-207" on="0"/>
        <pt x="133" y="-199" on="0"/>
        <pt x="106" y="-181" on="0"/>
        <pt x="90" y="-152" on="0"/>
        <pt x="90" y="-132" on="1"/>
        <pt x="90" y="-90" on="0"/>
        <pt x="158" y="-31" on="0"/>
        <pt x="215" y="-5" on="1"/>
        <pt x="214" y="0" on="1"/>
        <pt x="9" y="0" on="1"/>
      </contour>
    </TTGlyph>
    <TTGlyph name="Iota" xMin="9" yMin="0" xMax="415" yMax="698">
      <component glyphName="I" x="0" y="0" flags="0x204"/>
    </TTGlyph>
    <TTGlyph name="Iotadieresis" xMin="9" yMin="0" xMax="445" yMax="892">
      <component glyphName="I" x="0" y="0" flags="0x204"/>
      <component glyphName="dieresis.case" x="-13" y="0" flags="0x4"/>
    </TTGlyph>
    <TTGlyph name="Iotatonos" xMin="59" yMin="0" xMax="486" yMax="780">
      <component glyphName="I" x="71" y="0" flags="0x4"/>
      <component glyphName="tonos.case" x="-221" y="0" flags="0x4"/>
    </TTGlyph>
    <TTGlyph name="Itilde" xMin="9" yMin="0" xMax="468" yMax="897">
      <component glyphName="I" x="0" y="0" flags="0x204"/>
      <component glyphName="tilde.case" x="-13" y="0" flags="0x4"/>
    </TTGlyph>
    <TTGlyph name="J" xMin="3" yMin="-12" xMax="495" yMax="698">
      <contour>
        <pt x="495" y="698" on="1"/>
        <pt x="392" y="186" on="1"/>
        <pt x="373" y="92" on="0"/>
        <pt x="260" y="-12" on="0"/>
        <pt x="171" y="-12" on="1"/>
        <pt x="99" y="-12" on="0"/>
        <pt x="5" y="73" on="0"/>
        <pt x="3" y="153" on="1"/>
        <pt x="77" y="168" on="1"/>
        <pt x="79" y="122" on="0"/>
        <pt x="127" y="61" on="0"/>
        <pt x="175" y="61" on="1"/>
        <pt x="233" y="61" on="0"/>
        <pt x="299" y="130" on="0"/>
        <pt x="313" y="198" on="1"/>
        <pt x="399" y="626" on="1"/>
        <pt x="165" y="626" on="1"/>
        <pt x="179" y="698" on="1"/>
      </contour>
    </TTGlyph>
    <TTGlyph name="Jacute" xMin="3" yMin="-12" xMax="495" yMax="950">
      <component glyphName="J" x="0" y="0" flags="0x204"/>
      <component glyphName="acute.case" x="35" y="0" flags="0x4"/>
    </TTGlyph>
    <TTGlyph name="Jcircumflex" xMin="3" yMin="-12" xMax="498" yMax="935">
      <component glyphName="J" x="0" y="0" flags="0x204"/>
      <component glyphName="circumflex.case" x="35" y="0" flags="0x4"/>
    </TTGlyph>
    <TTGlyph name="K" xMin="39" yMin="0" xMax="665" yMax="698">
      <contour>
        <pt x="290" y="343" on="1"/>
        <pt x="165" y="226" on="1"/>
        <pt x="120" y="0" on="1"/>
        <pt x="39" y="0" on="1"/>
        <pt x="179" y="698" on="1"/>
        <pt x="260" y="698" on="1"/>
        <pt x="189" y="342" on="1"/>
        <pt x="194" y="342" on="1"/>
        <pt x="313" y="457" on="1"/>
        <pt x="562" y="698" on="1"/>
        <pt x="665" y="698" on="1"/>
        <pt x="352" y="395" on="1"/>
        <pt x="549" y="0" on="1"/>
        <pt x="461" y="0" on="1"/>
      </contour>
    </TTGlyph>
    <TTGlyph name="Kappa" xMin="39" yMin="0" xMax="665" yMax="698">
      <component glyphName="K" x="0" y="0" flags="0x204"/>
    </TTGlyph>
    <TTGlyph name="Kcommaaccent" xMin="39" yMin="-245" xMax="665" yMax="698">
      <component glyphName="K" x="0" y="0" flags="0x204"/>
      <component glyphName="uni0326" x="259" y="0" flags="0x4"/>
    </TTGlyph>
    <TTGlyph name="L" xMin="39" yMin="0" xMax="422" yMax="698">
      <contour>
        <pt x="39" y="0" on="1"/>
        <pt x="179" y="698" on="1"/>
        <pt x="260" y="698" on="1"/>
        <pt x="135" y="72" on="1"/>
        <pt x="422" y="72" on="1"/>
        <pt x="408" y="0" on="1"/>
      </contour>
    </TTGlyph>
    <TTGlyph name="Lacute" xMin="39" yMin="0" xMax="422" yMax="950">
      <component glyphName="L" x="0" y="0" flags="0x204"/>
      <component glyphName="acute.case" x="-70" y="0" flags="0x4"/>
    </TTGlyph>
    <TTGlyph name="Lambda" xMin="-27" yMin="0" xMax="537" yMax="698">
      <contour>
        <pt x="448" y="698" on="1"/>
        <pt x="537" y="0" on="1"/>
        <pt x="454" y="0" on="1"/>
        <pt x="414" y="350" on="1"/>
        <pt x="382" y="621" on="1"/>
        <pt x="377" y="621" on="1"/>
        <pt x="239" y="350" on="1"/>
        <pt x="59" y="0" on="1"/>
        <pt x="-27" y="0" on="1"/>
        <pt x="341" y="698" on="1"/>
      </contour>
    </TTGlyph>
    <TTGlyph name="Lcaron" xMin="39" yMin="0" xMax="443" yMax="740">
      <component glyphName="L" x="0" y="0" flags="0x204"/>
      <component glyphName="uni02BC" x="56" y="0" flags="0x4"/>
    </TTGlyph>
    <TTGlyph name="Lcommaaccent" xMin="39" yMin="-245" xMax="422" yMax="698">
      <component glyphName="L" x="0" y="0" flags="0x204"/>
      <component glyphName="uni0326" x="223" y="0" flags="0x4"/>
    </TTGlyph>
    <TTGlyph name="Ldot" xMin="39" yMin="0" xMax="435" yMax="698">
      <component glyphName="L" x="0" y="0" flags="0x204"/>
      <component glyphName="dotaccent" x="66" y="-326" flags="0x4"/>
    </TTGlyph>
    <TTGlyph name="Lslash" xMin="-8" yMin="0" xMax="427" yMax="698">
      <contour>
        <pt x="412" y="0" on="1"/>
        <pt x="43" y="0" on="1"/>
        <pt x="97" y="269" on="1"/>
        <pt x="-8" y="236" on="1"/>
        <pt x="5" y="306" on="1"/>
        <pt x="111" y="340" on="1"/>
        <pt x="183" y="698" on="1"/>
        <pt x="264" y="698" on="1"/>
        <pt x="198" y="368" on="1"/>
        <pt x="384" y="429" on="1"/>
        <pt x="370" y="355" on="1"/>
        <pt x="183" y="296" on="1"/>
        <pt x="139" y="72" on="1"/>
        <pt x="427" y="72" on="1"/>
      </contour>
    </TTGlyph>
    <TTGlyph name="M" xMin="39" yMin="0" xMax="781" yMax="698">
      <contour>
        <pt x="680" y="586" on="1"/>
        <pt x="675" y="586" on="1"/>
        <pt x="594" y="469" on="1"/>
        <pt x="377" y="166" on="1"/>
        <pt x="278" y="469" on="1"/>
        <pt x="241" y="585" on="1"/>
        <pt x="236" y="585" on="1"/>
        <pt x="119" y="0" on="1"/>
        <pt x="39" y="0" on="1"/>
        <pt x="179" y="698" on="1"/>
        <pt x="284" y="698" on="1"/>
        <pt x="402" y="319" on="1"/>
        <pt x="405" y="319" on="1"/>
        <pt x="668" y="698" on="1"/>
        <pt x="781" y="698" on="1"/>
        <pt x="641" y="0" on="1"/>
        <pt x="561" y="0" on="1"/>
      </contour>
    </TTGlyph>
    <TTGlyph name="Mu" xMin="39" yMin="0" xMax="781" yMax="698">
      <component glyphName="M" x="0" y="0" flags="0x204"/>
    </TTGlyph>
    <TTGlyph name="N" xMin="39" yMin="0" xMax="681" yMax="698">
      <contour>
        <pt x="295" y="420" on="1"/>
        <pt x="240" y="587" on="1"/>
        <pt x="235" y="587" on="1"/>
        <pt x="118" y="0" on="1"/>
        <pt x="39" y="0" on="1"/>
        <pt x="179" y="698" on="1"/>
        <pt x="273" y="698" on="1"/>
        <pt x="425" y="278" on="1"/>
        <pt x="480" y="111" on="1"/>
        <pt x="485" y="111" on="1"/>
        <pt x="602" y="698" on="1"/>
        <pt x="681" y="698" on="1"/>
        <pt x="541" y="0" on="1"/>
        <pt x="447" y="0" on="1"/>
      </contour>
    </TTGlyph>
    <TTGlyph name="Nacute" xMin="39" yMin="0" xMax="681" yMax="950">
      <component glyphName="N" x="0" y="0" flags="0x204"/>
      <component glyphName="acute.case" x="140" y="0" flags="0x4"/>
    </TTGlyph>
    <TTGlyph name="Ncaron" xMin="39" yMin="0" xMax="681" yMax="944">
      <component glyphName="N" x="0" y="0" flags="0x204"/>
      <component glyphName="caron.case" x="140" y="0" flags="0x4"/>
    </TTGlyph>
    <TTGlyph name="Ncommaaccent" xMin="39" yMin="-245" xMax="681" yMax="698">
      <component glyphName="N" x="0" y="0" flags="0x204"/>
      <component glyphName="uni0326" x="290" y="0" flags="0x4"/>
    </TTGlyph>
    <TTGlyph name="Ntilde" xMin="39" yMin="0" xMax="681" yMax="897">
      <component glyphName="N" x="0" y="0" flags="0x204"/>
      <component glyphName="tilde.case" x="140" y="0" flags="0x4"/>
    </TTGlyph>
    <TTGlyph name="Nu" xMin="39" yMin="0" xMax="681" yMax="698">
      <component glyphName="N" x="0" y="0" flags="0x204"/>
    </TTGlyph>
    <TTGlyph name="O" xMin="55" yMin="-12" xMax="652" yMax="710">
      <contour>
        <pt x="298" y="-12" on="1"/>
        <pt x="246" y="-12" on="0"/>
        <pt x="157" y="23" on="0"/>
        <pt x="92" y="92" on="0"/>
        <pt x="55" y="194" on="0"/>
        <pt x="55" y="260" on="1"/>
        <pt x="55" y="347" on="0"/>
        <pt x="103" y="509" on="0"/>
        <pt x="195" y="634" on="0"/>
        <pt x="326" y="710" on="0"/>
        <pt x="409" y="710" on="1"/>
        <pt x="461" y="710" on="0"/>
        <pt x="550" y="674" on="0"/>
        <pt x="615" y="605" on="0"/>
        <pt x="652" y="504" on="0"/>
        <pt x="652" y="438" on="1"/>
        <pt x="652" y="351" on="0"/>
        <pt x="604" y="189" on="0"/>
        <pt x="512" y="64" on="0"/>
        <pt x="381" y="-12" on="0"/>
      </contour>
      <contour>
        <pt x="306" y="61" on="1"/>
        <pt x="399" y="61" on="0"/>
        <pt x="523" y="184" on="0"/>
        <pt x="545" y="293" on="1"/>
        <pt x="565" y="393" on="1"/>
        <pt x="569" y="412" on="0"/>
        <pt x="572" y="447" on="0"/>
        <pt x="572" y="462" on="1"/>
        <pt x="572" y="542" on="0"/>
        <pt x="482" y="637" on="0"/>
        <pt x="401" y="637" on="1"/>
        <pt x="308" y="637" on="0"/>
        <pt x="184" y="514" on="0"/>
        <pt x="162" y="405" on="1"/>
        <pt x="142" y="305" on="1"/>
        <pt x="138" y="286" on="0"/>
        <pt x="135" y="251" on="0"/>
        <pt x="135" y="236" on="1"/>
        <pt x="135" y="156" on="0"/>
        <pt x="225" y="61" on="0"/>
      </contour>
    </TTGlyph>
    <TTGlyph name="OE" xMin="55" yMin="-12" xMax="963" yMax="710">
      <contour>
        <pt x="412" y="0" on="1"/>
        <pt x="382" y="-5" on="0"/>
        <pt x="323" y="-12" on="0"/>
        <pt x="299" y="-12" on="1"/>
        <pt x="246" y="-12" on="0"/>
        <pt x="157" y="23" on="0"/>
        <pt x="92" y="92" on="0"/>
        <pt x="55" y="194" on="0"/>
        <pt x="55" y="260" on="1"/>
        <pt x="55" y="347" on="0"/>
        <pt x="102" y="509" on="0"/>
        <pt x="194" y="634" on="0"/>
        <pt x="330" y="710" on="0"/>
        <pt x="420" y="710" on="1"/>
        <pt x="432" y="710" on="0"/>
        <pt x="466" y="708" on="0"/>
        <pt x="502" y="705" on="0"/>
        <pt x="538" y="701" on="0"/>
        <pt x="552" y="698" on="1"/>
        <pt x="963" y="698" on="1"/>
        <pt x="948" y="626" on="1"/>
        <pt x="619" y="626" on="1"/>
        <pt x="572" y="390" on="1"/>
        <pt x="868" y="390" on="1"/>
        <pt x="854" y="318" on="1"/>
        <pt x="558" y="318" on="1"/>
        <pt x="508" y="72" on="1"/>
        <pt x="854" y="72" on="1"/>
        <pt x="840" y="0" on="1"/>
      </contour>
      <contour>
        <pt x="317" y="61" on="1"/>
        <pt x="343" y="61" on="0"/>
        <pt x="403" y="68" on="0"/>
        <pt x="428" y="76" on="1"/>
        <pt x="537" y="626" on="1"/>
        <pt x="525" y="629" on="0"/>
        <pt x="493" y="633" on="0"/>
        <pt x="459" y="636" on="0"/>
        <pt x="428" y="637" on="0"/>
        <pt x="416" y="637" on="1"/>
        <pt x="310" y="637" on="0"/>
        <pt x="185" y="518" on="0"/>
        <pt x="162" y="405" on="1"/>
        <pt x="142" y="306" on="1"/>
        <pt x="138" y="286" on="0"/>
        <pt x="135" y="251" on="0"/>
        <pt x="135" y="236" on="1"/>
        <pt x="135" y="156" on="0"/>
        <pt x="223" y="61" on="0"/>
      </contour>
    </TTGlyph>
    <TTGlyph name="Oacute" xMin="55" yMin="-12" xMax="652" yMax="950">
      <component glyphName="O" x="0" y="0" flags="0x204"/>
      <component glyphName="acute.case" x="115" y="0" flags="0x4"/>
    </TTGlyph>
    <TTGlyph name="Obreve" xMin="55" yMin="-12" xMax="652" yMax="920">
      <component glyphName="O" x="0" y="0" flags="0x204"/>
      <component glyphName="breve.case" x="115" y="0" flags="0x4"/>
    </TTGlyph>
    <TTGlyph name="Ocircumflex" xMin="55" yMin="-12" xMax="652" yMax="935">
      <component glyphName="O" x="0" y="0" flags="0x204"/>
      <component glyphName="circumflex.case" x="115" y="0" flags="0x4"/>
    </TTGlyph>
    <TTGlyph name="Odieresis" xMin="55" yMin="-12" xMax="652" yMax="892">
      <component glyphName="O" x="0" y="0" flags="0x204"/>
      <component glyphName="dieresis.case" x="115" y="0" flags="0x4"/>
    </TTGlyph>
    <TTGlyph name="Ograve" xMin="55" yMin="-12" xMax="652" yMax="948">
      <component glyphName="O" x="0" y="0" flags="0x204"/>
      <component glyphName="grave.case" x="115" y="0" flags="0x4"/>
    </TTGlyph>
    <TTGlyph name="Ohorn" xMin="55" yMin="-12" xMax="733" yMax="810">
      <contour>
        <pt x="733" y="810" on="1"/>
        <pt x="712" y="709" on="1"/>
        <pt x="706" y="682" on="0"/>
        <pt x="679" y="646" on="0"/>
        <pt x="643" y="646" on="1"/>
        <pt x="575" y="646" on="1"/>
        <pt x="615" y="607" on="0"/>
        <pt x="652" y="501" on="0"/>
        <pt x="652" y="438" on="1"/>
        <pt x="652" y="351" on="0"/>
        <pt x="604" y="189" on="0"/>
        <pt x="512" y="64" on="0"/>
        <pt x="381" y="-12" on="0"/>
        <pt x="298" y="-12" on="1"/>
        <pt x="246" y="-12" on="0"/>
        <pt x="157" y="23" on="0"/>
        <pt x="92" y="92" on="0"/>
        <pt x="55" y="194" on="0"/>
        <pt x="55" y="260" on="1"/>
        <pt x="55" y="347" on="0"/>
        <pt x="103" y="509" on="0"/>
        <pt x="195" y="634" on="0"/>
        <pt x="326" y="710" on="0"/>
        <pt x="409" y="710" on="1"/>
        <pt x="451" y="710" on="0"/>
        <pt x="489" y="698" on="1"/>
        <pt x="642" y="698" on="1"/>
        <pt x="664" y="810" on="1"/>
      </contour>
      <contour>
        <pt x="306" y="61" on="1"/>
        <pt x="399" y="61" on="0"/>
        <pt x="523" y="184" on="0"/>
        <pt x="545" y="293" on="1"/>
        <pt x="565" y="393" on="1"/>
        <pt x="569" y="412" on="0"/>
        <pt x="572" y="447" on="0"/>
        <pt x="572" y="462" on="1"/>
        <pt x="572" y="542" on="0"/>
        <pt x="482" y="637" on="0"/>
        <pt x="401" y="637" on="1"/>
        <pt x="308" y="637" on="0"/>
        <pt x="184" y="514" on="0"/>
        <pt x="162" y="405" on="1"/>
        <pt x="142" y="305" on="1"/>
        <pt x="138" y="286" on="0"/>
        <pt x="135" y="251" on="0"/>
        <pt x="135" y="236" on="1"/>
        <pt x="135" y="156" on="0"/>
        <pt x="225" y="61" on="0"/>
      </contour>
    </TTGlyph>
    <TTGlyph name="Ohungarumlaut" xMin="55" yMin="-12" xMax="652" yMax="948">
      <component glyphName="O" x="0" y="0" flags="0x204"/>
      <component glyphName="hungarumlaut.case" x="115" y="0" flags="0x4"/>
    </TTGlyph>
    <TTGlyph name="Omacron" xMin="55" yMin="-12" xMax="652" yMax="875">
      <component glyphName="O" x="0" y="0" flags="0x204"/>
      <component glyphName="macron.case" x="115" y="0" flags="0x4"/>
    </TTGlyph>
    <TTGlyph name="Omega" xMin="-16" yMin="0" xMax="648" yMax="710">
      <contour>
        <pt x="-1" y="72" on="1"/>
        <pt x="155" y="72" on="1"/>
        <pt x="158" y="84" on="1"/>
        <pt x="111" y="115" on="0"/>
        <pt x="67" y="234" on="0"/>
        <pt x="67" y="303" on="1"/>
        <pt x="67" y="387" on="0"/>
        <pt x="120" y="535" on="0"/>
        <pt x="213" y="646" on="0"/>
        <pt x="339" y="710" on="0"/>
        <pt x="413" y="710" on="1"/>
        <pt x="464" y="710" on="0"/>
        <pt x="550" y="675" on="0"/>
        <pt x="613" y="609" on="0"/>
        <pt x="648" y="512" on="0"/>
        <pt x="648" y="450" on="1"/>
        <pt x="648" y="399" on="0"/>
        <pt x="627" y="288" on="0"/>
        <pt x="579" y="188" on="0"/>
        <pt x="500" y="106" on="0"/>
        <pt x="441" y="84" on="1"/>
        <pt x="438" y="72" on="1"/>
        <pt x="595" y="72" on="1"/>
        <pt x="580" y="0" on="1"/>
        <pt x="355" y="0" on="1"/>
        <pt x="378" y="111" on="1"/>
        <pt x="437" y="133" on="0"/>
        <pt x="526" y="227" on="0"/>
        <pt x="540" y="296" on="1"/>
        <pt x="562" y="405" on="1"/>
        <pt x="565" y="420" on="0"/>
        <pt x="568" y="451" on="0"/>
        <pt x="568" y="474" on="1"/>
        <pt x="568" y="509" on="0"/>
        <pt x="546" y="569" on="0"/>
        <pt x="505" y="612" on="0"/>
        <pt x="444" y="637" on="0"/>
        <pt x="405" y="637" on="1"/>
        <pt x="312" y="637" on="0"/>
        <pt x="190" y="517" on="0"/>
        <pt x="169" y="413" on="1"/>
        <pt x="150" y="318" on="1"/>
        <pt x="148" y="307" on="0"/>
        <pt x="147" y="280" on="0"/>
        <pt x="147" y="269" on="1"/>
        <pt x="147" y="212" on="0"/>
        <pt x="195" y="126" on="0"/>
        <pt x="232" y="111" on="1"/>
        <pt x="209" y="0" on="1"/>
        <pt x="-16" y="0" on="1"/>
      </contour>
    </TTGlyph>
    <TTGlyph name="Omegatonos" xMin="18" yMin="0" xMax="682" yMax="780">
      <component glyphName="Omega" x="34" y="0" flags="0x4"/>
      <component glyphName="tonos.case" x="-221" y="0" flags="0x4"/>
    </TTGlyph>
    <TTGlyph name="Omicron" xMin="55" yMin="-12" xMax="652" yMax="710">
      <component glyphName="O" x="0" y="0" flags="0x204"/>
    </TTGlyph>
    <TTGlyph name="Omicrontonos" xMin="59" yMin="-12" xMax="689" yMax="780">
      <component glyphName="O" x="37" y="0" flags="0x4"/>
      <component glyphName="tonos.case" x="-221" y="0" flags="0x4"/>
    </TTGlyph>
    <TTGlyph name="Oslash" xMin="3" yMin="-46" xMax="704" yMax="744">
      <contour>
        <pt x="298" y="-12" on="1"/>
        <pt x="200" y="-12" on="0"/>
        <pt x="135" y="47" on="1"/>
        <pt x="54" y="-46" on="1"/>
        <pt x="3" y="-1" on="1"/>
        <pt x="93" y="102" on="1"/>
        <pt x="75" y="134" on="0"/>
        <pt x="55" y="212" on="0"/>
        <pt x="55" y="260" on="1"/>
        <pt x="55" y="347" on="0"/>
        <pt x="103" y="509" on="0"/>
        <pt x="195" y="634" on="0"/>
        <pt x="326" y="710" on="0"/>
        <pt x="409" y="710" on="1"/>
        <pt x="507" y="710" on="0"/>
        <pt x="572" y="651" on="1"/>
        <pt x="653" y="744" on="1"/>
        <pt x="704" y="699" on="1"/>
        <pt x="614" y="596" on="1"/>
        <pt x="632" y="564" on="0"/>
        <pt x="652" y="486" on="0"/>
        <pt x="652" y="438" on="1"/>
        <pt x="652" y="351" on="0"/>
        <pt x="604" y="189" on="0"/>
        <pt x="512" y="64" on="0"/>
        <pt x="381" y="-12" on="0"/>
      </contour>
      <contour>
        <pt x="142" y="305" on="1"/>
        <pt x="138" y="286" on="0"/>
        <pt x="135" y="251" on="0"/>
        <pt x="135" y="236" on="1"/>
        <pt x="135" y="195" on="0"/>
        <pt x="147" y="162" on="1"/>
        <pt x="523" y="592" on="1"/>
        <pt x="500" y="613" on="0"/>
        <pt x="439" y="637" on="0"/>
        <pt x="401" y="637" on="1"/>
        <pt x="308" y="637" on="0"/>
        <pt x="184" y="514" on="0"/>
        <pt x="162" y="405" on="1"/>
      </contour>
      <contour>
        <pt x="306" y="61" on="1"/>
        <pt x="399" y="61" on="0"/>
        <pt x="523" y="184" on="0"/>
        <pt x="545" y="293" on="1"/>
        <pt x="565" y="393" on="1"/>
        <pt x="569" y="412" on="0"/>
        <pt x="572" y="447" on="0"/>
        <pt x="572" y="462" on="1"/>
        <pt x="572" y="503" on="0"/>
        <pt x="560" y="536" on="1"/>
        <pt x="184" y="106" on="1"/>
        <pt x="207" y="85" on="0"/>
        <pt x="268" y="61" on="0"/>
      </contour>
    </TTGlyph>
    <TTGlyph name="Oslashacute" xMin="3" yMin="-46" xMax="704" yMax="950">
      <component glyphName="Oslash" x="0" y="0" flags="0x204"/>
      <component glyphName="acute.case" x="115" y="0" flags="0x4"/>
    </TTGlyph>
    <TTGlyph name="Otilde" xMin="55" yMin="-12" xMax="652" yMax="897">
      <component glyphName="O" x="0" y="0" flags="0x204"/>
      <component glyphName="tilde.case" x="115" y="0" flags="0x4"/>
    </TTGlyph>
    <TTGlyph name="P" xMin="39" yMin="0" xMax="601" yMax="698">
      <contour>
        <pt x="39" y="0" on="1"/>
        <pt x="179" y="698" on="1"/>
        <pt x="428" y="698" on="1"/>
        <pt x="474" y="698" on="0"/>
        <pt x="540" y="673" on="0"/>
        <pt x="582" y="628" on="0"/>
        <pt x="601" y="567" on="0"/>
        <pt x="601" y="531" on="1"/>
        <pt x="601" y="482" on="0"/>
        <pt x="568" y="397" on="0"/>
        <pt x="508" y="334" on="0"/>
        <pt x="421" y="298" on="0"/>
        <pt x="367" y="298" on="1"/>
        <pt x="180" y="298" on="1"/>
        <pt x="120" y="0" on="1"/>
      </contour>
      <contour>
        <pt x="195" y="370" on="1"/>
        <pt x="379" y="370" on="1"/>
        <pt x="429" y="370" on="0"/>
        <pt x="495" y="421" on="0"/>
        <pt x="505" y="471" on="1"/>
        <pt x="512" y="505" on="0"/>
        <pt x="517" y="533" on="0"/>
        <pt x="517" y="545" on="1"/>
        <pt x="517" y="582" on="0"/>
        <pt x="475" y="626" on="0"/>
        <pt x="422" y="626" on="1"/>
        <pt x="245" y="626" on="1"/>
      </contour>
    </TTGlyph>
    <TTGlyph name="Phi" xMin="51" yMin="-29" xMax="772" yMax="725">
      <contour>
        <pt x="306" y="31" on="1"/>
        <pt x="296" y="31" on="1"/>
        <pt x="234" y="31" on="0"/>
        <pt x="143" y="66" on="0"/>
        <pt x="81" y="130" on="0"/>
        <pt x="51" y="221" on="0"/>
        <pt x="51" y="277" on="1"/>
        <pt x="51" y="355" on="0"/>
        <pt x="100" y="499" on="0"/>
        <pt x="195" y="610" on="0"/>
        <pt x="335" y="677" on="0"/>
        <pt x="426" y="677" on="1"/>
        <pt x="436" y="677" on="1"/>
        <pt x="446" y="725" on="1"/>
        <pt x="527" y="725" on="1"/>
        <pt x="517" y="677" on="1"/>
        <pt x="527" y="677" on="1"/>
        <pt x="588" y="677" on="0"/>
        <pt x="680" y="642" on="0"/>
        <pt x="742" y="578" on="0"/>
        <pt x="772" y="487" on="0"/>
        <pt x="772" y="431" on="1"/>
        <pt x="772" y="353" on="0"/>
        <pt x="723" y="208" on="0"/>
        <pt x="628" y="97" on="0"/>
        <pt x="488" y="31" on="0"/>
        <pt x="397" y="31" on="1"/>
        <pt x="387" y="31" on="1"/>
        <pt x="375" y="-29" on="1"/>
        <pt x="294" y="-29" on="1"/>
      </contour>
      <contour>
        <pt x="425" y="609" on="1"/>
        <pt x="415" y="609" on="1"/>
        <pt x="307" y="609" on="0"/>
        <pt x="168" y="485" on="0"/>
        <pt x="146" y="378" on="1"/>
        <pt x="135" y="324" on="1"/>
        <pt x="133" y="312" on="0"/>
        <pt x="131" y="286" on="0"/>
        <pt x="131" y="268" on="1"/>
        <pt x="131" y="187" on="0"/>
        <pt x="215" y="99" on="0"/>
        <pt x="313" y="99" on="1"/>
        <pt x="323" y="99" on="1"/>
      </contour>
      <contour>
        <pt x="408" y="99" on="1"/>
        <pt x="516" y="99" on="0"/>
        <pt x="655" y="223" on="0"/>
        <pt x="677" y="330" on="1"/>
        <pt x="688" y="384" on="1"/>
        <pt x="690" y="396" on="0"/>
        <pt x="692" y="422" on="0"/>
        <pt x="692" y="440" on="1"/>
        <pt x="692" y="521" on="0"/>
        <pt x="608" y="609" on="0"/>
        <pt x="510" y="609" on="1"/>
        <pt x="500" y="609" on="1"/>
        <pt x="398" y="99" on="1"/>
      </contour>
    </TTGlyph>
    <TTGlyph name="Pi" xMin="39" yMin="0" xMax="667" yMax="698">
      <component glyphName="uni041F" x="0" y="0" flags="0x204"/>
    </TTGlyph>
    <TTGlyph name="Psi" xMin="105" yMin="0" xMax="787" yMax="698">
      <contour>
        <pt x="331" y="204" on="1"/>
        <pt x="271" y="204" on="0"/>
        <pt x="185" y="236" on="0"/>
        <pt x="131" y="290" on="0"/>
        <pt x="105" y="361" on="0"/>
        <pt x="105" y="400" on="1"/>
        <pt x="105" y="432" on="0"/>
        <pt x="113" y="497" on="0"/>
        <pt x="121" y="535" on="1"/>
        <pt x="154" y="698" on="1"/>
        <pt x="235" y="698" on="1"/>
        <pt x="198" y="515" on="1"/>
        <pt x="190" y="477" on="0"/>
        <pt x="184" y="425" on="0"/>
        <pt x="184" y="408" on="1"/>
        <pt x="184" y="339" on="0"/>
        <pt x="260" y="272" on="0"/>
        <pt x="345" y="272" on="1"/>
        <pt x="430" y="698" on="1"/>
        <pt x="511" y="698" on="1"/>
        <pt x="426" y="272" on="1"/>
        <pt x="478" y="272" on="0"/>
        <pt x="556" y="296" on="0"/>
        <pt x="614" y="352" on="0"/>
        <pt x="653" y="442" on="0"/>
        <pt x="667" y="507" on="1"/>
        <pt x="706" y="698" on="1"/>
        <pt x="787" y="698" on="1"/>
        <pt x="745" y="489" on="1"/>
        <pt x="716" y="342" on="0"/>
        <pt x="552" y="204" on="0"/>
        <pt x="412" y="204" on="1"/>
        <pt x="371" y="0" on="1"/>
        <pt x="290" y="0" on="1"/>
      </contour>
    </TTGlyph>
    <TTGlyph name="Q" xMin="55" yMin="-166" xMax="652" yMax="710">
      <contour>
        <pt x="397" y="-166" on="1"/>
        <pt x="309" y="-166" on="1"/>
        <pt x="268" y="-166" on="0"/>
        <pt x="234" y="-131" on="0"/>
        <pt x="234" y="-104" on="1"/>
        <pt x="234" y="-92" on="0"/>
        <pt x="237" y="-78" on="1"/>
        <pt x="252" y="-8" on="1"/>
        <pt x="208" y="-1" on="0"/>
        <pt x="136" y="41" on="0"/>
        <pt x="84" y="108" on="0"/>
        <pt x="55" y="201" on="0"/>
        <pt x="55" y="260" on="1"/>
        <pt x="55" y="347" on="0"/>
        <pt x="103" y="509" on="0"/>
        <pt x="195" y="634" on="0"/>
        <pt x="326" y="710" on="0"/>
        <pt x="409" y="710" on="1"/>
        <pt x="461" y="710" on="0"/>
        <pt x="550" y="674" on="0"/>
        <pt x="615" y="605" on="0"/>
        <pt x="652" y="504" on="0"/>
        <pt x="652" y="438" on="1"/>
        <pt x="652" y="355" on="0"/>
        <pt x="608" y="200" on="0"/>
        <pt x="525" y="77" on="0"/>
        <pt x="405" y="-3" on="0"/>
        <pt x="329" y="-10" on="1"/>
        <pt x="311" y="-92" on="1"/>
        <pt x="413" y="-92" on="1"/>
      </contour>
      <contour>
        <pt x="306" y="61" on="1"/>
        <pt x="399" y="61" on="0"/>
        <pt x="523" y="184" on="0"/>
        <pt x="545" y="293" on="1"/>
        <pt x="565" y="393" on="1"/>
        <pt x="569" y="412" on="0"/>
        <pt x="572" y="447" on="0"/>
        <pt x="572" y="462" on="1"/>
        <pt x="572" y="541" on="0"/>
        <pt x="482" y="637" on="0"/>
        <pt x="401" y="637" on="1"/>
        <pt x="308" y="637" on="0"/>
        <pt x="184" y="514" on="0"/>
        <pt x="162" y="405" on="1"/>
        <pt x="142" y="305" on="1"/>
        <pt x="138" y="286" on="0"/>
        <pt x="135" y="251" on="0"/>
        <pt x="135" y="236" on="1"/>
        <pt x="135" y="157" on="0"/>
        <pt x="225" y="61" on="0"/>
      </contour>
    </TTGlyph>
    <TTGlyph name="R" xMin="39" yMin="0" xMax="601" yMax="698">
      <contour>
        <pt x="120" y="0" on="1"/>
        <pt x="39" y="0" on="1"/>
        <pt x="179" y="698" on="1"/>
        <pt x="428" y="698" on="1"/>
        <pt x="474" y="698" on="0"/>
        <pt x="540" y="673" on="0"/>
        <pt x="582" y="628" on="0"/>
        <pt x="601" y="567" on="0"/>
        <pt x="601" y="531" on="1"/>
        <pt x="601" y="491" on="0"/>
        <pt x="575" y="417" on="0"/>
        <pt x="528" y="358" on="0"/>
        <pt x="460" y="316" on="0"/>
        <pt x="418" y="308" on="1"/>
        <pt x="520" y="0" on="1"/>
        <pt x="433" y="0" on="1"/>
        <pt x="338" y="300" on="1"/>
        <pt x="180" y="300" on="1"/>
      </contour>
      <contour>
        <pt x="379" y="371" on="1"/>
        <pt x="429" y="371" on="0"/>
        <pt x="495" y="422" on="0"/>
        <pt x="505" y="471" on="1"/>
        <pt x="512" y="505" on="0"/>
        <pt x="517" y="533" on="0"/>
        <pt x="517" y="545" on="1"/>
        <pt x="517" y="581" on="0"/>
        <pt x="475" y="626" on="0"/>
        <pt x="422" y="626" on="1"/>
        <pt x="245" y="626" on="1"/>
        <pt x="195" y="371" on="1"/>
      </contour>
    </TTGlyph>
    <TTGlyph name="Racute" xMin="39" yMin="0" xMax="601" yMax="950">
      <component glyphName="R" x="0" y="0" flags="0x204"/>
      <component glyphName="acute.case" x="99" y="0" flags="0x4"/>
    </TTGlyph>
    <TTGlyph name="Rcaron" xMin="39" yMin="0" xMax="601" yMax="944">
      <component glyphName="R" x="0" y="0" flags="0x204"/>
      <component glyphName="caron.case" x="99" y="0" flags="0x4"/>
    </TTGlyph>
    <TTGlyph name="Rcommaaccent" xMin="39" yMin="-245" xMax="601" yMax="698">
      <component glyphName="R" x="0" y="0" flags="0x204"/>
      <component glyphName="uni0326" x="271" y="0" flags="0x4"/>
    </TTGlyph>
    <TTGlyph name="Rho" xMin="39" yMin="0" xMax="601" yMax="698">
      <component glyphName="P" x="0" y="0" flags="0x204"/>
    </TTGlyph>
    <TTGlyph name="S" xMin="11" yMin="-12" xMax="571" yMax="710">
      <contour>
        <pt x="249" y="-12" on="1"/>
        <pt x="172" y="-12" on="0"/>
        <pt x="44" y="48" on="0"/>
        <pt x="11" y="113" on="1"/>
        <pt x="73" y="158" on="1"/>
        <pt x="104" y="105" on="0"/>
        <pt x="194" y="61" on="0"/>
        <pt x="251" y="61" on="1"/>
        <pt x="295" y="61" on="0"/>
        <pt x="363" y="84" on="0"/>
        <pt x="408" y="125" on="0"/>
        <pt x="431" y="179" on="0"/>
        <pt x="431" y="210" on="1"/>
        <pt x="431" y="255" on="0"/>
        <pt x="381" y="309" on="0"/>
        <pt x="325" y="320" on="1"/>
        <pt x="258" y="333" on="1"/>
        <pt x="184" y="347" on="0"/>
        <pt x="105" y="436" on="0"/>
        <pt x="105" y="504" on="1"/>
        <pt x="105" y="546" on="0"/>
        <pt x="137" y="621" on="0"/>
        <pt x="198" y="677" on="0"/>
        <pt x="288" y="710" on="0"/>
        <pt x="346" y="710" on="1"/>
        <pt x="427" y="710" on="0"/>
        <pt x="536" y="650" on="0"/>
        <pt x="571" y="602" on="1"/>
        <pt x="512" y="553" on="1"/>
        <pt x="483" y="592" on="0"/>
        <pt x="401" y="637" on="0"/>
        <pt x="341" y="637" on="1"/>
        <pt x="270" y="637" on="0"/>
        <pt x="186" y="571" on="0"/>
        <pt x="186" y="510" on="1"/>
        <pt x="186" y="422" on="0"/>
        <pt x="292" y="401" on="1"/>
        <pt x="359" y="388" on="1"/>
        <pt x="433" y="374" on="0"/>
        <pt x="512" y="286" on="0"/>
        <pt x="512" y="214" on="1"/>
        <pt x="512" y="167" on="0"/>
        <pt x="477" y="85" on="0"/>
        <pt x="410" y="23" on="0"/>
        <pt x="312" y="-12" on="0"/>
      </contour>
    </TTGlyph>
    <TTGlyph name="Sacute" xMin="11" yMin="-12" xMax="571" yMax="950">
      <component glyphName="S" x="0" y="0" flags="0x204"/>
      <component glyphName="acute.case" x="60" y="0" flags="0x4"/>
    </TTGlyph>
    <TTGlyph name="Scaron" xMin="11" yMin="-12" xMax="571" yMax="944">
      <component glyphName="S" x="0" y="0" flags="0x204"/>
      <component glyphName="caron.case" x="60" y="0" flags="0x4"/>
    </TTGlyph>
    <TTGlyph name="Scedilla" xMin="11" yMin="-207" xMax="571" yMax="710">
      <contour>
        <pt x="341" y="637" on="1"/>
        <pt x="270" y="637" on="0"/>
        <pt x="186" y="571" on="0"/>
        <pt x="186" y="510" on="1"/>
        <pt x="186" y="422" on="0"/>
        <pt x="292" y="401" on="1"/>
        <pt x="359" y="388" on="1"/>
        <pt x="433" y="374" on="0"/>
        <pt x="512" y="286" on="0"/>
        <pt x="512" y="214" on="1"/>
        <pt x="512" y="168" on="0"/>
        <pt x="479" y="88" on="0"/>
        <pt x="415" y="27" on="0"/>
        <pt x="321" y="-10" on="0"/>
        <pt x="261" y="-12" on="1"/>
        <pt x="245" y="-62" on="1"/>
        <pt x="247" y="-64" on="1"/>
        <pt x="252" y="-63" on="0"/>
        <pt x="267" y="-60" on="0"/>
        <pt x="278" y="-60" on="1"/>
        <pt x="303" y="-60" on="0"/>
        <pt x="337" y="-84" on="0"/>
        <pt x="337" y="-116" on="1"/>
        <pt x="337" y="-158" on="0"/>
        <pt x="277" y="-207" on="0"/>
        <pt x="229" y="-207" on="1"/>
        <pt x="191" y="-207" on="0"/>
        <pt x="139" y="-185" on="0"/>
        <pt x="128" y="-170" on="1"/>
        <pt x="168" y="-129" on="1"/>
        <pt x="175" y="-139" on="0"/>
        <pt x="205" y="-154" on="0"/>
        <pt x="227" y="-154" on="1"/>
        <pt x="249" y="-154" on="0"/>
        <pt x="273" y="-134" on="0"/>
        <pt x="273" y="-118" on="1"/>
        <pt x="273" y="-102" on="0"/>
        <pt x="250" y="-83" on="0"/>
        <pt x="218" y="-79" on="1"/>
        <pt x="192" y="-76" on="1"/>
        <pt x="212" y="-10" on="1"/>
        <pt x="146" y="-4" on="0"/>
        <pt x="40" y="55" on="0"/>
        <pt x="11" y="113" on="1"/>
        <pt x="73" y="158" on="1"/>
        <pt x="104" y="105" on="0"/>
        <pt x="194" y="61" on="0"/>
        <pt x="251" y="61" on="1"/>
        <pt x="295" y="61" on="0"/>
        <pt x="363" y="84" on="0"/>
        <pt x="408" y="125" on="0"/>
        <pt x="431" y="179" on="0"/>
        <pt x="431" y="210" on="1"/>
        <pt x="431" y="255" on="0"/>
        <pt x="381" y="309" on="0"/>
        <pt x="325" y="320" on="1"/>
        <pt x="258" y="333" on="1"/>
        <pt x="184" y="347" on="0"/>
        <pt x="105" y="436" on="0"/>
        <pt x="105" y="504" on="1"/>
        <pt x="105" y="546" on="0"/>
        <pt x="137" y="621" on="0"/>
        <pt x="198" y="677" on="0"/>
        <pt x="288" y="710" on="0"/>
        <pt x="346" y="710" on="1"/>
        <pt x="427" y="710" on="0"/>
        <pt x="536" y="650" on="0"/>
        <pt x="571" y="602" on="1"/>
        <pt x="512" y="553" on="1"/>
        <pt x="483" y="592" on="0"/>
        <pt x="401" y="637" on="0"/>
      </contour>
    </TTGlyph>
    <TTGlyph name="Scircumflex" xMin="11" yMin="-12" xMax="571" yMax="935">
      <component glyphName="S" x="0" y="0" flags="0x204"/>
      <component glyphName="circumflex.case" x="60" y="0" flags="0x4"/>
    </TTGlyph>
    <TTGlyph name="Scommaaccent" xMin="11" yMin="-245" xMax="571" yMax="710">
      <component glyphName="S" x="0" y="0" flags="0x204"/>
      <component glyphName="uni0326" x="240" y="0" flags="0x4"/>
    </TTGlyph>
    <TTGlyph name="Sigma" xMin="-9" yMin="0" xMax="570" yMax="698">
      <contour>
        <pt x="-9" y="0" on="1"/>
        <pt x="7" y="78" on="1"/>
        <pt x="294" y="354" on="1"/>
        <pt x="121" y="620" on="1"/>
        <pt x="137" y="698" on="1"/>
        <pt x="570" y="698" on="1"/>
        <pt x="555" y="626" on="1"/>
        <pt x="210" y="626" on="1"/>
        <pt x="391" y="349" on="1"/>
        <pt x="103" y="72" on="1"/>
        <pt x="461" y="72" on="1"/>
        <pt x="447" y="0" on="1"/>
      </contour>
    </TTGlyph>
    <TTGlyph name="T" xMin="98" yMin="0" xMax="619" yMax="698">
      <contour>
        <pt x="392" y="626" on="1"/>
        <pt x="267" y="0" on="1"/>
        <pt x="186" y="0" on="1"/>
        <pt x="311" y="626" on="1"/>
        <pt x="98" y="626" on="1"/>
        <pt x="112" y="698" on="1"/>
        <pt x="619" y="698" on="1"/>
        <pt x="605" y="626" on="1"/>
      </contour>
    </TTGlyph>
    <TTGlyph name="Tau" xMin="98" yMin="0" xMax="619" yMax="698">
      <component glyphName="T" x="0" y="0" flags="0x204"/>
    </TTGlyph>
    <TTGlyph name="Tbar" xMin="94" yMin="0" xMax="619" yMax="698">
      <contour>
        <pt x="334" y="335" on="1"/>
        <pt x="267" y="0" on="1"/>
        <pt x="186" y="0" on="1"/>
        <pt x="253" y="335" on="1"/>
        <pt x="94" y="335" on="1"/>
        <pt x="107" y="401" on="1"/>
        <pt x="266" y="401" on="1"/>
        <pt x="311" y="626" on="1"/>
        <pt x="98" y="626" on="1"/>
        <pt x="112" y="698" on="1"/>
        <pt x="619" y="698" on="1"/>
        <pt x="605" y="626" on="1"/>
        <pt x="392" y="626" on="1"/>
        <pt x="347" y="401" on="1"/>
        <pt x="505" y="401" on="1"/>
        <pt x="492" y="335" on="1"/>
      </contour>
    </TTGlyph>
    <TTGlyph name="Tcaron" xMin="98" yMin="0" xMax="619" yMax="944">
      <component glyphName="T" x="0" y="0" flags="0x204"/>
      <component glyphName="caron.case" x="76" y="0" flags="0x4"/>
    </TTGlyph>
    <TTGlyph name="Theta" xMin="55" yMin="-12" xMax="652" yMax="710">
      <contour>
        <pt x="298" y="-12" on="1"/>
        <pt x="246" y="-12" on="0"/>
        <pt x="157" y="23" on="0"/>
        <pt x="92" y="92" on="0"/>
        <pt x="55" y="194" on="0"/>
        <pt x="55" y="260" on="1"/>
        <pt x="55" y="347" on="0"/>
        <pt x="103" y="509" on="0"/>
        <pt x="195" y="634" on="0"/>
        <pt x="326" y="710" on="0"/>
        <pt x="409" y="710" on="1"/>
        <pt x="461" y="710" on="0"/>
        <pt x="550" y="674" on="0"/>
        <pt x="615" y="605" on="0"/>
        <pt x="652" y="504" on="0"/>
        <pt x="652" y="438" on="1"/>
        <pt x="652" y="351" on="0"/>
        <pt x="604" y="189" on="0"/>
        <pt x="512" y="64" on="0"/>
        <pt x="381" y="-12" on="0"/>
      </contour>
      <contour>
        <pt x="306" y="61" on="1"/>
        <pt x="399" y="61" on="0"/>
        <pt x="523" y="184" on="0"/>
        <pt x="545" y="293" on="1"/>
        <pt x="565" y="393" on="1"/>
        <pt x="569" y="412" on="0"/>
        <pt x="572" y="447" on="0"/>
        <pt x="572" y="462" on="1"/>
        <pt x="572" y="542" on="0"/>
        <pt x="482" y="637" on="0"/>
        <pt x="401" y="637" on="1"/>
        <pt x="308" y="637" on="0"/>
        <pt x="184" y="514" on="0"/>
        <pt x="162" y="405" on="1"/>
        <pt x="142" y="305" on="1"/>
        <pt x="138" y="286" on="0"/>
        <pt x="135" y="251" on="0"/>
        <pt x="135" y="236" on="1"/>
        <pt x="135" y="156" on="0"/>
        <pt x="225" y="61" on="0"/>
      </contour>
      <contour>
        <pt x="203" y="318" on="1"/>
        <pt x="218" y="390" on="1"/>
        <pt x="506" y="390" on="1"/>
        <pt x="491" y="318" on="1"/>
      </contour>
    </TTGlyph>
    <TTGlyph name="Thorn" xMin="38" yMin="0" xMax="572" yMax="698">
      <contour>
        <pt x="38" y="0" on="1"/>
        <pt x="179" y="698" on="1"/>
        <pt x="260" y="698" on="1"/>
        <pt x="231" y="554" on="1"/>
        <pt x="399" y="554" on="1"/>
        <pt x="445" y="554" on="0"/>
        <pt x="511" y="529" on="0"/>
        <pt x="553" y="485" on="0"/>
        <pt x="572" y="424" on="0"/>
        <pt x="572" y="388" on="1"/>
        <pt x="572" y="339" on="0"/>
        <pt x="539" y="254" on="0"/>
        <pt x="479" y="191" on="0"/>
        <pt x="392" y="154" on="0"/>
        <pt x="338" y="154" on="1"/>
        <pt x="150" y="154" on="1"/>
        <pt x="119" y="0" on="1"/>
      </contour>
      <contour>
        <pt x="165" y="226" on="1"/>
        <pt x="350" y="226" on="1"/>
        <pt x="400" y="226" on="0"/>
        <pt x="466" y="279" on="0"/>
        <pt x="476" y="328" on="1"/>
        <pt x="483" y="362" on="0"/>
        <pt x="488" y="390" on="0"/>
        <pt x="488" y="402" on="1"/>
        <pt x="488" y="438" on="0"/>
        <pt x="446" y="482" on="0"/>
        <pt x="393" y="482" on="1"/>
        <pt x="216" y="482" on="1"/>
      </contour>
    </TTGlyph>
    <TTGlyph name="U" xMin="82" yMin="-12" xMax="657" yMax="698">
      <contour>
        <pt x="255" y="698" on="1"/>
        <pt x="169" y="269" on="1"/>
        <pt x="164" y="246" on="0"/>
        <pt x="161" y="214" on="0"/>
        <pt x="161" y="197" on="1"/>
        <pt x="161" y="133" on="0"/>
        <pt x="229" y="61" on="0"/>
        <pt x="289" y="61" on="1"/>
        <pt x="331" y="61" on="0"/>
        <pt x="396" y="85" on="0"/>
        <pt x="446" y="138" on="0"/>
        <pt x="481" y="223" on="0"/>
        <pt x="493" y="284" on="1"/>
        <pt x="576" y="698" on="1"/>
        <pt x="657" y="698" on="1"/>
        <pt x="573" y="278" on="1"/>
        <pt x="557" y="198" on="0"/>
        <pt x="508" y="87" on="0"/>
        <pt x="437" y="18" on="0"/>
        <pt x="342" y="-12" on="0"/>
        <pt x="280" y="-12" on="1"/>
        <pt x="186" y="-12" on="0"/>
        <pt x="82" y="93" on="0"/>
        <pt x="82" y="189" on="1"/>
        <pt x="82" y="212" on="0"/>
        <pt x="87" y="264" on="0"/>
        <pt x="93" y="294" on="1"/>
        <pt x="174" y="698" on="1"/>
      </contour>
    </TTGlyph>
    <TTGlyph name="Uacute" xMin="82" yMin="-12" xMax="657" yMax="950">
      <component glyphName="U" x="0" y="0" flags="0x204"/>
      <component glyphName="acute.case" x="118" y="0" flags="0x4"/>
    </TTGlyph>
    <TTGlyph name="Ubreve" xMin="82" yMin="-12" xMax="657" yMax="920">
      <component glyphName="U" x="0" y="0" flags="0x204"/>
      <component glyphName="breve.case" x="118" y="0" flags="0x4"/>
    </TTGlyph>
    <TTGlyph name="Ucircumflex" xMin="82" yMin="-12" xMax="657" yMax="935">
      <component glyphName="U" x="0" y="0" flags="0x204"/>
      <component glyphName="circumflex.case" x="118" y="0" flags="0x4"/>
    </TTGlyph>
    <TTGlyph name="Udieresis" xMin="82" yMin="-12" xMax="657" yMax="892">
      <component glyphName="U" x="0" y="0" flags="0x204"/>
      <component glyphName="dieresis.case" x="118" y="0" flags="0x4"/>
    </TTGlyph>
    <TTGlyph name="Ugrave" xMin="82" yMin="-12" xMax="657" yMax="948">
      <component glyphName="U" x="0" y="0" flags="0x204"/>
      <component glyphName="grave.case" x="118" y="0" flags="0x4"/>
    </TTGlyph>
    <TTGlyph name="Uhorn" xMin="82" yMin="-12" xMax="756" yMax="810">
      <contour>
        <pt x="255" y="698" on="1"/>
        <pt x="169" y="269" on="1"/>
        <pt x="164" y="246" on="0"/>
        <pt x="161" y="214" on="0"/>
        <pt x="161" y="197" on="1"/>
        <pt x="161" y="133" on="0"/>
        <pt x="229" y="61" on="0"/>
        <pt x="289" y="61" on="1"/>
        <pt x="331" y="61" on="0"/>
        <pt x="396" y="85" on="0"/>
        <pt x="446" y="138" on="0"/>
        <pt x="481" y="223" on="0"/>
        <pt x="493" y="284" on="1"/>
        <pt x="576" y="698" on="1"/>
        <pt x="666" y="698" on="1"/>
        <pt x="688" y="810" on="1"/>
        <pt x="756" y="810" on="1"/>
        <pt x="736" y="708" on="1"/>
        <pt x="731" y="682" on="0"/>
        <pt x="702" y="646" on="0"/>
        <pt x="667" y="646" on="1"/>
        <pt x="646" y="646" on="1"/>
        <pt x="573" y="278" on="1"/>
        <pt x="557" y="198" on="0"/>
        <pt x="508" y="87" on="0"/>
        <pt x="437" y="18" on="0"/>
        <pt x="342" y="-12" on="0"/>
        <pt x="280" y="-12" on="1"/>
        <pt x="186" y="-12" on="0"/>
        <pt x="82" y="93" on="0"/>
        <pt x="82" y="189" on="1"/>
        <pt x="82" y="212" on="0"/>
        <pt x="87" y="264" on="0"/>
        <pt x="93" y="294" on="1"/>
        <pt x="174" y="698" on="1"/>
      </contour>
    </TTGlyph>
    <TTGlyph name="Uhungarumlaut" xMin="82" yMin="-12" xMax="657" yMax="948">
      <component glyphName="U" x="0" y="0" flags="0x204"/>
      <component glyphName="hungarumlaut.case" x="118" y="0" flags="0x4"/>
    </TTGlyph>
    <TTGlyph name="Umacron" xMin="82" yMin="-12" xMax="657" yMax="875">
      <component glyphName="U" x="0" y="0" flags="0x204"/>
      <component glyphName="macron.case" x="118" y="0" flags="0x4"/>
    </TTGlyph>
    <TTGlyph name="Uogonek" xMin="82" yMin="-207" xMax="657" yMax="698">
      <contour>
        <pt x="255" y="698" on="1"/>
        <pt x="169" y="269" on="1"/>
        <pt x="164" y="246" on="0"/>
        <pt x="161" y="214" on="0"/>
        <pt x="161" y="197" on="1"/>
        <pt x="161" y="133" on="0"/>
        <pt x="229" y="61" on="0"/>
        <pt x="289" y="61" on="1"/>
        <pt x="331" y="61" on="0"/>
        <pt x="396" y="85" on="0"/>
        <pt x="446" y="138" on="0"/>
        <pt x="481" y="223" on="0"/>
        <pt x="493" y="284" on="1"/>
        <pt x="576" y="698" on="1"/>
        <pt x="657" y="698" on="1"/>
        <pt x="573" y="278" on="1"/>
        <pt x="556" y="192" on="0"/>
        <pt x="509" y="93" on="0"/>
        <pt x="453" y="36" on="0"/>
        <pt x="392" y="6" on="0"/>
        <pt x="361" y="-11" on="1"/>
        <pt x="326" y="-30" on="0"/>
        <pt x="283" y="-63" on="0"/>
        <pt x="259" y="-92" on="0"/>
        <pt x="251" y="-114" on="0"/>
        <pt x="251" y="-122" on="1"/>
        <pt x="251" y="-138" on="0"/>
        <pt x="270" y="-153" on="0"/>
        <pt x="284" y="-153" on="1"/>
        <pt x="296" y="-153" on="0"/>
        <pt x="324" y="-140" on="0"/>
        <pt x="338" y="-126" on="1"/>
        <pt x="375" y="-170" on="1"/>
        <pt x="362" y="-184" on="0"/>
        <pt x="314" y="-207" on="0"/>
        <pt x="279" y="-207" on="1"/>
        <pt x="260" y="-207" on="0"/>
        <pt x="226" y="-199" on="0"/>
        <pt x="199" y="-181" on="0"/>
        <pt x="183" y="-152" on="0"/>
        <pt x="183" y="-132" on="1"/>
        <pt x="183" y="-94" on="0"/>
        <pt x="241" y="-36" on="0"/>
        <pt x="293" y="-16" on="1"/>
        <pt x="292" y="-12" on="1"/>
        <pt x="186" y="-12" on="0"/>
        <pt x="82" y="93" on="0"/>
        <pt x="82" y="189" on="1"/>
        <pt x="82" y="212" on="0"/>
        <pt x="87" y="264" on="0"/>
        <pt x="93" y="294" on="1"/>
        <pt x="174" y="698" on="1"/>
      </contour>
    </TTGlyph>
    <TTGlyph name="Upsilon" xMin="105" yMin="0" xMax="651" yMax="698">
      <component glyphName="Y" x="0" y="0" flags="0x204"/>
    </TTGlyph>
    <TTGlyph name="Upsilondieresis" xMin="105" yMin="0" xMax="651" yMax="892">
      <component glyphName="Y" x="0" y="0" flags="0x204"/>
      <component glyphName="dieresis.case" x="71" y="0" flags="0x4"/>
    </TTGlyph>
    <TTGlyph name="Upsilontonos" xMin="59" yMin="0" xMax="743" yMax="780">
      <component glyphName="Y" x="92" y="0" flags="0x4"/>
      <component glyphName="tonos.case" x="-221" y="0" flags="0x4"/>
    </TTGlyph>
    <TTGlyph name="Uring" xMin="82" yMin="-12" xMax="657" yMax="976">
      <component glyphName="U" x="0" y="0" flags="0x204"/>
      <component glyphName="ring.case" x="118" y="0" flags="0x4"/>
    </TTGlyph>
    <TTGlyph name="Utilde" xMin="82" yMin="-12" xMax="657" yMax="897">
      <component glyphName="U" x="0" y="0" flags="0x204"/>
      <component glyphName="tilde.case" x="118" y="0" flags="0x4"/>
    </TTGlyph>
    <TTGlyph name="V" xMin="111" yMin="0" xMax="661" yMax="698">
      <contour>
        <pt x="194" y="0" on="1"/>
        <pt x="111" y="698" on="1"/>
        <pt x="192" y="698" on="1"/>
        <pt x="230" y="348" on="1"/>
        <pt x="257" y="84" on="1"/>
        <pt x="260" y="84" on="1"/>
        <pt x="393" y="348" on="1"/>
        <pt x="575" y="698" on="1"/>
        <pt x="661" y="698" on="1"/>
        <pt x="295" y="0" on="1"/>
      </contour>
    </TTGlyph>
    <TTGlyph name="W" xMin="103" yMin="0" xMax="935" yMax="698">
      <contour>
        <pt x="132" y="0" on="1"/>
        <pt x="103" y="698" on="1"/>
        <pt x="184" y="698" on="1"/>
        <pt x="193" y="344" on="1"/>
        <pt x="199" y="101" on="1"/>
        <pt x="203" y="101" on="1"/>
        <pt x="340" y="416" on="1"/>
        <pt x="466" y="698" on="1"/>
        <pt x="562" y="698" on="1"/>
        <pt x="577" y="403" on="1"/>
        <pt x="591" y="102" on="1"/>
        <pt x="595" y="102" on="1"/>
        <pt x="701" y="349" on="1"/>
        <pt x="851" y="698" on="1"/>
        <pt x="935" y="698" on="1"/>
        <pt x="622" y="0" on="1"/>
        <pt x="529" y="0" on="1"/>
        <pt x="511" y="367" on="1"/>
        <pt x="501" y="606" on="1"/>
        <pt x="496" y="606" on="1"/>
        <pt x="387" y="362" on="1"/>
        <pt x="226" y="0" on="1"/>
      </contour>
    </TTGlyph>
    <TTGlyph name="Wacute" xMin="103" yMin="0" xMax="935" yMax="950">
      <component glyphName="W" x="0" y="0" flags="0x204"/>
      <component glyphName="acute.case" x="219" y="0" flags="0x4"/>
    </TTGlyph>
    <TTGlyph name="Wcircumflex" xMin="103" yMin="0" xMax="935" yMax="935">
      <component glyphName="W" x="0" y="0" flags="0x204"/>
      <component glyphName="circumflex.case" x="219" y="0" flags="0x4"/>
    </TTGlyph>
    <TTGlyph name="Wdieresis" xMin="103" yMin="0" xMax="935" yMax="892">
      <component glyphName="W" x="0" y="0" flags="0x204"/>
      <component glyphName="dieresis.case" x="219" y="0" flags="0x4"/>
    </TTGlyph>
    <TTGlyph name="Wgrave" xMin="103" yMin="0" xMax="935" yMax="948">
      <component glyphName="W" x="0" y="0" flags="0x204"/>
      <component glyphName="grave.case" x="219" y="0" flags="0x4"/>
    </TTGlyph>
    <TTGlyph name="X" xMin="-25" yMin="0" xMax="653" yMax="698">
      <contour>
        <pt x="508" y="0" on="1"/>
        <pt x="423" y="0" on="1"/>
        <pt x="303" y="286" on="1"/>
        <pt x="299" y="286" on="1"/>
        <pt x="69" y="0" on="1"/>
        <pt x="-25" y="0" on="1"/>
        <pt x="263" y="358" on="1"/>
        <pt x="120" y="698" on="1"/>
        <pt x="205" y="698" on="1"/>
        <pt x="324" y="411" on="1"/>
        <pt x="328" y="411" on="1"/>
        <pt x="559" y="698" on="1"/>
        <pt x="653" y="698" on="1"/>
        <pt x="360" y="343" on="1"/>
      </contour>
    </TTGlyph>
    <TTGlyph name="Xi" xMin="11" yMin="0" xMax="609" yMax="698">
      <contour>
        <pt x="152" y="698" on="1"/>
        <pt x="609" y="698" on="1"/>
        <pt x="594" y="626" on="1"/>
        <pt x="137" y="626" on="1"/>
      </contour>
      <contour>
        <pt x="145" y="390" on="1"/>
        <pt x="491" y="390" on="1"/>
        <pt x="477" y="318" on="1"/>
        <pt x="131" y="318" on="1"/>
      </contour>
      <contour>
        <pt x="26" y="72" on="1"/>
        <pt x="483" y="72" on="1"/>
        <pt x="468" y="0" on="1"/>
        <pt x="11" y="0" on="1"/>
      </contour>
    </TTGlyph>
    <TTGlyph name="Y" xMin="105" yMin="0" xMax="651" yMax="698">
      <contour>
        <pt x="196" y="0" on="1"/>
        <pt x="251" y="273" on="1"/>
        <pt x="105" y="698" on="1"/>
        <pt x="187" y="698" on="1"/>
        <pt x="303" y="357" on="1"/>
        <pt x="308" y="357" on="1"/>
        <pt x="558" y="698" on="1"/>
        <pt x="651" y="698" on="1"/>
        <pt x="332" y="273" on="1"/>
        <pt x="277" y="0" on="1"/>
      </contour>
    </TTGlyph>
    <TTGlyph name="Yacute" xMin="105" yMin="0" xMax="651" yMax="950">
      <component glyphName="Y" x="0" y="0" flags="0x204"/>
      <component glyphName="acute.case" x="71" y="0" flags="0x4"/>
    </TTGlyph>
    <TTGlyph name="Ycircumflex" xMin="105" yMin="0" xMax="651" yMax="935">
      <component glyphName="Y" x="0" y="0" flags="0x204"/>
      <component glyphName="circumflex.case" x="71" y="0" flags="0x4"/>
    </TTGlyph>
    <TTGlyph name="Ydieresis" xMin="105" yMin="0" xMax="651" yMax="892">
      <component glyphName="Y" x="0" y="0" flags="0x204"/>
      <component glyphName="dieresis.case" x="71" y="0" flags="0x4"/>
    </TTGlyph>
    <TTGlyph name="Ygrave" xMin="105" yMin="0" xMax="651" yMax="948">
      <component glyphName="Y" x="0" y="0" flags="0x204"/>
      <component glyphName="grave.case" x="71" y="0" flags="0x4"/>
    </TTGlyph>
    <TTGlyph name="Z" xMin="-15" yMin="0" xMax="603" yMax="698">
      <contour>
        <pt x="472" y="0" on="1"/>
        <pt x="-15" y="0" on="1"/>
        <pt x="1" y="78" on="1"/>
        <pt x="493" y="626" on="1"/>
        <pt x="119" y="626" on="1"/>
        <pt x="134" y="698" on="1"/>
        <pt x="603" y="698" on="1"/>
        <pt x="587" y="620" on="1"/>
        <pt x="95" y="72" on="1"/>
        <pt x="487" y="72" on="1"/>
      </contour>
    </TTGlyph>
    <TTGlyph name="Zacute" xMin="-15" yMin="0" xMax="603" yMax="950">
      <component glyphName="Z" x="0" y="0" flags="0x204"/>
      <component glyphName="acute.case" x="62" y="0" flags="0x4"/>
    </TTGlyph>
    <TTGlyph name="Zcaron" xMin="-15" yMin="0" xMax="603" yMax="944">
      <component glyphName="Z" x="0" y="0" flags="0x204"/>
      <component glyphName="caron.case" x="62" y="0" flags="0x4"/>
    </TTGlyph>
    <TTGlyph name="Zdotaccent" xMin="-15" yMin="0" xMax="603" yMax="890">
      <component glyphName="Z" x="0" y="0" flags="0x204"/>
      <component glyphName="dotaccent.case" x="62" y="0" flags="0x4"/>
    </TTGlyph>
    <TTGlyph name="Zeta" xMin="-15" yMin="0" xMax="603" yMax="698">
      <component glyphName="Z" x="0" y="0" flags="0x204"/>
    </TTGlyph>
    <TTGlyph name="a" xMin="51" yMin="-12" xMax="536" yMax="528">
      <contour>
        <pt x="437" y="0" on="1"/>
        <pt x="403" y="0" on="0"/>
        <pt x="370" y="34" on="0"/>
        <pt x="370" y="62" on="1"/>
        <pt x="370" y="74" on="0"/>
        <pt x="373" y="89" on="1"/>
        <pt x="378" y="112" on="1"/>
        <pt x="375" y="112" on="1"/>
        <pt x="343" y="47" on="0"/>
        <pt x="265" y="-12" on="0"/>
        <pt x="208" y="-12" on="1"/>
        <pt x="137" y="-12" on="0"/>
        <pt x="51" y="93" on="0"/>
        <pt x="51" y="185" on="1"/>
        <pt x="51" y="242" on="0"/>
        <pt x="82" y="363" on="0"/>
        <pt x="144" y="464" on="0"/>
        <pt x="239" y="528" on="0"/>
        <pt x="303" y="528" on="1"/>
        <pt x="326" y="528" on="0"/>
        <pt x="370" y="516" on="0"/>
        <pt x="406" y="492" on="0"/>
        <pt x="432" y="456" on="0"/>
        <pt x="438" y="432" on="1"/>
        <pt x="442" y="432" on="1"/>
        <pt x="459" y="516" on="1"/>
        <pt x="536" y="516" on="1"/>
        <pt x="446" y="68" on="1"/>
        <pt x="519" y="68" on="1"/>
        <pt x="506" y="0" on="1"/>
      </contour>
      <contour>
        <pt x="228" y="58" on="1"/>
        <pt x="262" y="58" on="0"/>
        <pt x="314" y="85" on="0"/>
        <pt x="337" y="109" on="1"/>
        <pt x="363" y="135" on="0"/>
        <pt x="394" y="195" on="0"/>
        <pt x="402" y="233" on="1"/>
        <pt x="423" y="338" on="1"/>
        <pt x="428" y="362" on="0"/>
        <pt x="420" y="405" on="0"/>
        <pt x="392" y="438" on="0"/>
        <pt x="344" y="458" on="0"/>
        <pt x="310" y="458" on="1"/>
        <pt x="247" y="458" on="0"/>
        <pt x="165" y="376" on="0"/>
        <pt x="150" y="301" on="1"/>
        <pt x="135" y="226" on="1"/>
        <pt x="130" y="198" on="0"/>
        <pt x="130" y="175" on="1"/>
        <pt x="130" y="122" on="0"/>
        <pt x="180" y="58" on="0"/>
      </contour>
    </TTGlyph>
    <TTGlyph name="a.alt01" xMin="22" yMin="-12" xMax="467" yMax="528">
      <contour>
        <pt x="162" y="-12" on="1"/>
        <pt x="96" y="-12" on="0"/>
        <pt x="22" y="57" on="0"/>
        <pt x="22" y="113" on="1"/>
        <pt x="22" y="198" on="0"/>
        <pt x="136" y="294" on="0"/>
        <pt x="256" y="294" on="1"/>
        <pt x="362" y="294" on="1"/>
        <pt x="372" y="345" on="1"/>
        <pt x="375" y="360" on="0"/>
        <pt x="375" y="373" on="1"/>
        <pt x="375" y="415" on="0"/>
        <pt x="321" y="460" on="0"/>
        <pt x="272" y="460" on="1"/>
        <pt x="224" y="460" on="0"/>
        <pt x="162" y="423" on="0"/>
        <pt x="134" y="386" on="1"/>
        <pt x="87" y="431" on="1"/>
        <pt x="114" y="473" on="0"/>
        <pt x="215" y="528" on="0"/>
        <pt x="283" y="528" on="1"/>
        <pt x="326" y="528" on="0"/>
        <pt x="390" y="504" on="0"/>
        <pt x="432" y="464" on="0"/>
        <pt x="453" y="412" on="0"/>
        <pt x="453" y="383" on="1"/>
        <pt x="453" y="363" on="0"/>
        <pt x="449" y="343" on="1"/>
        <pt x="394" y="68" on="1"/>
        <pt x="467" y="68" on="1"/>
        <pt x="454" y="0" on="1"/>
        <pt x="391" y="0" on="1"/>
        <pt x="357" y="0" on="0"/>
        <pt x="324" y="34" on="0"/>
        <pt x="324" y="62" on="1"/>
        <pt x="324" y="76" on="0"/>
        <pt x="326" y="84" on="1"/>
        <pt x="321" y="84" on="1"/>
        <pt x="268" y="-12" on="0"/>
      </contour>
      <contour>
        <pt x="182" y="55" on="1"/>
        <pt x="210" y="55" on="0"/>
        <pt x="262" y="69" on="0"/>
        <pt x="302" y="95" on="0"/>
        <pt x="329" y="129" on="0"/>
        <pt x="333" y="150" on="1"/>
        <pt x="350" y="237" on="1"/>
        <pt x="249" y="237" on="1"/>
        <pt x="183" y="237" on="0"/>
        <pt x="114" y="196" on="0"/>
        <pt x="106" y="158" on="1"/>
        <pt x="102" y="139" on="0"/>
        <pt x="100" y="124" on="0"/>
        <pt x="100" y="119" on="1"/>
        <pt x="100" y="88" on="0"/>
        <pt x="144" y="55" on="0"/>
      </contour>
    </TTGlyph>
    <TTGlyph name="aacute" xMin="51" yMin="-12" xMax="536" yMax="780">
      <component glyphName="a" x="0" y="0" flags="0x204"/>
      <component glyphName="acute" x="41" y="0" flags="0x4"/>
    </TTGlyph>
    <TTGlyph name="aacute.alt01" xMin="22" yMin="-12" xMax="467" yMax="780">
      <component glyphName="a.alt01" x="0" y="0" flags="0x204"/>
      <component glyphName="acute" x="-7" y="0" flags="0x4"/>
    </TTGlyph>
    <TTGlyph name="abreve" xMin="51" yMin="-12" xMax="536" yMax="750">
      <component glyphName="a" x="0" y="0" flags="0x204"/>
      <component glyphName="breve" x="41" y="0" flags="0x4"/>
    </TTGlyph>
    <TTGlyph name="abreve.alt01" xMin="22" yMin="-12" xMax="467" yMax="750">
      <component glyphName="a.alt01" x="0" y="0" flags="0x204"/>
      <component glyphName="breve" x="-7" y="0" flags="0x4"/>
    </TTGlyph>
    <TTGlyph name="acircumflex" xMin="51" yMin="-12" xMax="536" yMax="765">
      <component glyphName="a" x="0" y="0" flags="0x204"/>
      <component glyphName="circumflex" x="41" y="0" flags="0x4"/>
    </TTGlyph>
    <TTGlyph name="acircumflex.alt01" xMin="22" yMin="-12" xMax="467" yMax="765">
      <component glyphName="a.alt01" x="0" y="0" flags="0x204"/>
      <component glyphName="circumflex" x="-7" y="0" flags="0x4"/>
    </TTGlyph>
    <TTGlyph name="acute" xMin="269" yMin="585" xMax="441" yMax="780">
      <contour>
        <pt x="317" y="585" on="1"/>
        <pt x="269" y="610" on="1"/>
        <pt x="373" y="780" on="1"/>
        <pt x="441" y="744" on="1"/>
      </contour>
    </TTGlyph>
    <TTGlyph name="acute.case" xMin="267" yMin="756" xMax="439" yMax="950">
      <contour>
        <pt x="316" y="756" on="1"/>
        <pt x="267" y="781" on="1"/>
        <pt x="371" y="950" on="1"/>
        <pt x="439" y="914" on="1"/>
      </contour>
    </TTGlyph>
    <TTGlyph name="adieresis" xMin="51" yMin="-12" xMax="536" yMax="721">
      <component glyphName="a" x="0" y="0" flags="0x204"/>
      <component glyphName="dieresis" x="41" y="0" flags="0x4"/>
    </TTGlyph>
    <TTGlyph name="adieresis.alt01" xMin="22" yMin="-12" xMax="467" yMax="721">
      <component glyphName="a.alt01" x="0" y="0" flags="0x204"/>
      <component glyphName="dieresis" x="-7" y="0" flags="0x4"/>
    </TTGlyph>
    <TTGlyph name="ae" xMin="22" yMin="-12" xMax="780" yMax="528">
      <contour>
        <pt x="185" y="56" on="1"/>
        <pt x="212" y="56" on="0"/>
        <pt x="261" y="70" on="0"/>
        <pt x="302" y="95" on="0"/>
        <pt x="329" y="130" on="0"/>
        <pt x="333" y="150" on="1"/>
        <pt x="349" y="229" on="1"/>
        <pt x="250" y="225" on="1"/>
        <pt x="192" y="223" on="0"/>
        <pt x="114" y="197" on="0"/>
        <pt x="106" y="158" on="1"/>
        <pt x="102" y="139" on="0"/>
        <pt x="100" y="124" on="0"/>
        <pt x="100" y="119" on="1"/>
        <pt x="100" y="89" on="0"/>
        <pt x="144" y="56" on="0"/>
      </contour>
      <contour>
        <pt x="611" y="462" on="1"/>
        <pt x="544" y="462" on="0"/>
        <pt x="454" y="379" on="0"/>
        <pt x="440" y="310" on="1"/>
        <pt x="435" y="286" on="1"/>
        <pt x="517" y="289" on="0"/>
        <pt x="620" y="303" on="0"/>
        <pt x="679" y="327" on="0"/>
        <pt x="701" y="361" on="0"/>
        <pt x="701" y="384" on="1"/>
        <pt x="701" y="408" on="0"/>
        <pt x="685" y="438" on="0"/>
        <pt x="660" y="456" on="0"/>
        <pt x="627" y="462" on="0"/>
      </contour>
      <contour>
        <pt x="168" y="-12" on="1"/>
        <pt x="99" y="-12" on="0"/>
        <pt x="22" y="57" on="0"/>
        <pt x="22" y="122" on="1"/>
        <pt x="22" y="197" on="0"/>
        <pt x="133" y="277" on="0"/>
        <pt x="254" y="282" on="1"/>
        <pt x="361" y="286" on="1"/>
        <pt x="372" y="345" on="1"/>
        <pt x="375" y="360" on="0"/>
        <pt x="375" y="372" on="1"/>
        <pt x="375" y="414" on="0"/>
        <pt x="321" y="458" on="0"/>
        <pt x="270" y="458" on="1"/>
        <pt x="224" y="458" on="0"/>
        <pt x="162" y="421" on="0"/>
        <pt x="135" y="385" on="1"/>
        <pt x="87" y="431" on="1"/>
        <pt x="114" y="473" on="0"/>
        <pt x="215" y="528" on="0"/>
        <pt x="281" y="528" on="1"/>
        <pt x="343" y="528" on="0"/>
        <pt x="413" y="476" on="0"/>
        <pt x="427" y="433" on="1"/>
        <pt x="434" y="433" on="1"/>
        <pt x="467" y="478" on="0"/>
        <pt x="558" y="528" on="0"/>
        <pt x="615" y="528" on="1"/>
        <pt x="646" y="528" on="0"/>
        <pt x="705" y="512" on="0"/>
        <pt x="752" y="478" on="0"/>
        <pt x="780" y="426" on="0"/>
        <pt x="780" y="390" on="1"/>
        <pt x="780" y="303" on="0"/>
        <pt x="601" y="229" on="0"/>
        <pt x="426" y="228" on="1"/>
        <pt x="424" y="217" on="0"/>
        <pt x="421" y="188" on="0"/>
        <pt x="421" y="174" on="1"/>
        <pt x="421" y="124" on="0"/>
        <pt x="484" y="57" on="0"/>
        <pt x="544" y="57" on="1"/>
        <pt x="593" y="57" on="0"/>
        <pt x="672" y="102" on="0"/>
        <pt x="702" y="139" on="1"/>
        <pt x="752" y="94" on="1"/>
        <pt x="704" y="35" on="0"/>
        <pt x="595" y="-12" on="0"/>
        <pt x="538" y="-12" on="1"/>
        <pt x="471" y="-12" on="0"/>
        <pt x="383" y="43" on="0"/>
        <pt x="363" y="94" on="1"/>
        <pt x="356" y="94" on="1"/>
        <pt x="327" y="41" on="0"/>
        <pt x="228" y="-12" on="0"/>
      </contour>
    </TTGlyph>
    <TTGlyph name="aeacute" xMin="22" yMin="-12" xMax="780" yMax="780">
      <component glyphName="ae" x="0" y="0" flags="0x204"/>
      <component glyphName="acute" x="157" y="0" flags="0x4"/>
    </TTGlyph>
    <TTGlyph name="agrave" xMin="51" yMin="-12" xMax="536" yMax="776">
      <component glyphName="a" x="0" y="0" flags="0x204"/>
      <component glyphName="grave" x="41" y="0" flags="0x4"/>
    </TTGlyph>
    <TTGlyph name="agrave.alt01" xMin="22" yMin="-12" xMax="467" yMax="776">
      <component glyphName="a.alt01" x="0" y="0" flags="0x204"/>
      <component glyphName="grave" x="-7" y="0" flags="0x4"/>
    </TTGlyph>
    <TTGlyph name="alpha" xMin="51" yMin="-12" xMax="641" yMax="528">
      <contour>
        <pt x="554" y="0" on="1"/>
        <pt x="503" y="0" on="1"/>
        <pt x="431" y="0" on="0"/>
        <pt x="432" y="74" on="1"/>
        <pt x="434" y="184" on="1"/>
        <pt x="430" y="184" on="1"/>
        <pt x="401" y="125" on="0"/>
        <pt x="347" y="50" on="0"/>
        <pt x="294" y="5" on="0"/>
        <pt x="239" y="-12" on="0"/>
        <pt x="209" y="-12" on="1"/>
        <pt x="131" y="-12" on="0"/>
        <pt x="51" y="89" on="0"/>
        <pt x="51" y="185" on="1"/>
        <pt x="51" y="247" on="0"/>
        <pt x="84" y="370" on="0"/>
        <pt x="148" y="467" on="0"/>
        <pt x="242" y="528" on="0"/>
        <pt x="303" y="528" on="1"/>
        <pt x="378" y="528" on="0"/>
        <pt x="457" y="437" on="0"/>
        <pt x="460" y="332" on="1"/>
        <pt x="464" y="332" on="1"/>
        <pt x="518" y="446" on="1"/>
        <pt x="555" y="516" on="1"/>
        <pt x="641" y="516" on="1"/>
        <pt x="483" y="257" on="1"/>
        <pt x="509" y="68" on="1"/>
        <pt x="567" y="68" on="1"/>
      </contour>
      <contour>
        <pt x="222" y="58" on="1"/>
        <pt x="237" y="58" on="0"/>
        <pt x="267" y="67" on="0"/>
        <pt x="300" y="93" on="0"/>
        <pt x="336" y="138" on="0"/>
        <pt x="359" y="174" on="1"/>
        <pt x="412" y="258" on="1"/>
        <pt x="397" y="343" on="1"/>
        <pt x="391" y="377" on="0"/>
        <pt x="374" y="422" on="0"/>
        <pt x="351" y="448" on="0"/>
        <pt x="321" y="458" on="0"/>
        <pt x="302" y="458" on="1"/>
        <pt x="248" y="458" on="0"/>
        <pt x="165" y="376" on="0"/>
        <pt x="150" y="301" on="1"/>
        <pt x="135" y="226" on="1"/>
        <pt x="130" y="198" on="0"/>
        <pt x="130" y="175" on="1"/>
        <pt x="130" y="112" on="0"/>
        <pt x="178" y="58" on="0"/>
      </contour>
    </TTGlyph>
    <TTGlyph name="alpha.alt01" xMin="51" yMin="-12" xMax="536" yMax="528">
      <component glyphName="a" x="0" y="0" flags="0x204"/>
    </TTGlyph>
    <TTGlyph name="alphatonos" xMin="51" yMin="-12" xMax="641" yMax="780">
      <component glyphName="alpha" x="0" y="0" flags="0x204"/>
      <component glyphName="tonos" x="25" y="0" flags="0x4"/>
    </TTGlyph>
    <TTGlyph name="alphatonos.alt01" xMin="51" yMin="-12" xMax="536" yMax="780">
      <component glyphName="a" x="0" y="0" flags="0x204"/>
      <component glyphName="tonos" x="29" y="0" flags="0x4"/>
    </TTGlyph>
    <TTGlyph name="amacron" xMin="51" yMin="-12" xMax="536" yMax="705">
      <component glyphName="a" x="0" y="0" flags="0x204"/>
      <component glyphName="macron" x="41" y="0" flags="0x4"/>
    </TTGlyph>
    <TTGlyph name="amacron.alt01" xMin="22" yMin="-12" xMax="467" yMax="705">
      <component glyphName="a.alt01" x="0" y="0" flags="0x204"/>
      <component glyphName="macron" x="-7" y="0" flags="0x4"/>
    </TTGlyph>
    <TTGlyph name="ampersand" xMin="37" yMin="-12" xMax="632" yMax="710">
      <contour>
        <pt x="433" y="85" on="1"/>
        <pt x="388" y="38" on="0"/>
        <pt x="277" y="-12" on="0"/>
        <pt x="214" y="-12" on="1"/>
        <pt x="126" y="-12" on="0"/>
        <pt x="37" y="79" on="0"/>
        <pt x="37" y="151" on="1"/>
        <pt x="37" y="196" on="0"/>
        <pt x="69" y="266" on="0"/>
        <pt x="121" y="320" on="0"/>
        <pt x="187" y="362" on="0"/>
        <pt x="221" y="379" on="1"/>
        <pt x="202" y="405" on="0"/>
        <pt x="173" y="471" on="0"/>
        <pt x="173" y="512" on="1"/>
        <pt x="173" y="549" on="0"/>
        <pt x="200" y="621" on="0"/>
        <pt x="250" y="676" on="0"/>
        <pt x="322" y="710" on="0"/>
        <pt x="367" y="710" on="1"/>
        <pt x="395" y="710" on="0"/>
        <pt x="448" y="694" on="0"/>
        <pt x="489" y="662" on="0"/>
        <pt x="514" y="612" on="0"/>
        <pt x="514" y="579" on="1"/>
        <pt x="514" y="538" on="0"/>
        <pt x="480" y="472" on="0"/>
        <pt x="425" y="420" on="0"/>
        <pt x="356" y="378" on="0"/>
        <pt x="322" y="361" on="1"/>
        <pt x="436" y="201" on="1"/>
        <pt x="458" y="239" on="0"/>
        <pt x="488" y="324" on="0"/>
        <pt x="499" y="368" on="1"/>
        <pt x="632" y="368" on="1"/>
        <pt x="618" y="300" on="1"/>
        <pt x="549" y="300" on="1"/>
        <pt x="535" y="257" on="0"/>
        <pt x="499" y="178" on="0"/>
        <pt x="477" y="144" on="1"/>
        <pt x="580" y="0" on="1"/>
        <pt x="494" y="0" on="1"/>
      </contour>
      <contour>
        <pt x="360" y="645" on="1"/>
        <pt x="317" y="645" on="0"/>
        <pt x="258" y="588" on="0"/>
        <pt x="250" y="546" on="1"/>
        <pt x="247" y="531" on="0"/>
        <pt x="247" y="517" on="1"/>
        <pt x="247" y="492" on="0"/>
        <pt x="264" y="442" on="0"/>
        <pt x="287" y="410" on="1"/>
        <pt x="316" y="424" on="0"/>
        <pt x="371" y="455" on="0"/>
        <pt x="413" y="492" on="0"/>
        <pt x="438" y="538" on="0"/>
        <pt x="438" y="566" on="1"/>
        <pt x="438" y="604" on="0"/>
        <pt x="394" y="645" on="0"/>
      </contour>
      <contour>
        <pt x="229" y="56" on="1"/>
        <pt x="280" y="56" on="0"/>
        <pt x="362" y="101" on="0"/>
        <pt x="394" y="139" on="1"/>
        <pt x="256" y="330" on="1"/>
        <pt x="230" y="317" on="0"/>
        <pt x="183" y="290" on="0"/>
        <pt x="147" y="258" on="0"/>
        <pt x="122" y="219" on="0"/>
        <pt x="117" y="194" on="1"/>
        <pt x="114" y="179" on="0"/>
        <pt x="114" y="163" on="1"/>
        <pt x="114" y="112" on="0"/>
        <pt x="173" y="56" on="0"/>
      </contour>
    </TTGlyph>
    <TTGlyph name="anoteleia" xMin="127" yMin="394" xMax="247" yMax="523">
      <component glyphName="period" x="92" y="406" flags="0x4"/>
    </TTGlyph>
    <TTGlyph name="aogonek" xMin="51" yMin="-207" xMax="536" yMax="528">
      <contour>
        <pt x="506" y="0" on="1"/>
        <pt x="467" y="-26" on="0"/>
        <pt x="420" y="-65" on="0"/>
        <pt x="395" y="-94" on="0"/>
        <pt x="388" y="-114" on="0"/>
        <pt x="388" y="-122" on="1"/>
        <pt x="388" y="-138" on="0"/>
        <pt x="407" y="-153" on="0"/>
        <pt x="421" y="-153" on="1"/>
        <pt x="433" y="-153" on="0"/>
        <pt x="461" y="-140" on="0"/>
        <pt x="475" y="-126" on="1"/>
        <pt x="512" y="-170" on="1"/>
        <pt x="499" y="-184" on="0"/>
        <pt x="451" y="-207" on="0"/>
        <pt x="416" y="-207" on="1"/>
        <pt x="397" y="-207" on="0"/>
        <pt x="363" y="-199" on="0"/>
        <pt x="336" y="-181" on="0"/>
        <pt x="320" y="-152" on="0"/>
        <pt x="320" y="-132" on="1"/>
        <pt x="320" y="-90" on="0"/>
        <pt x="388" y="-31" on="0"/>
        <pt x="445" y="-5" on="1"/>
        <pt x="444" y="0" on="1"/>
        <pt x="437" y="0" on="1"/>
        <pt x="403" y="0" on="0"/>
        <pt x="370" y="34" on="0"/>
        <pt x="370" y="62" on="1"/>
        <pt x="370" y="74" on="0"/>
        <pt x="373" y="89" on="1"/>
        <pt x="378" y="112" on="1"/>
        <pt x="375" y="112" on="1"/>
        <pt x="343" y="47" on="0"/>
        <pt x="265" y="-12" on="0"/>
        <pt x="208" y="-12" on="1"/>
        <pt x="137" y="-12" on="0"/>
        <pt x="51" y="93" on="0"/>
        <pt x="51" y="185" on="1"/>
        <pt x="51" y="242" on="0"/>
        <pt x="82" y="363" on="0"/>
        <pt x="144" y="464" on="0"/>
        <pt x="239" y="528" on="0"/>
        <pt x="303" y="528" on="1"/>
        <pt x="326" y="528" on="0"/>
        <pt x="370" y="516" on="0"/>
        <pt x="406" y="492" on="0"/>
        <pt x="432" y="456" on="0"/>
        <pt x="438" y="432" on="1"/>
        <pt x="442" y="432" on="1"/>
        <pt x="459" y="516" on="1"/>
        <pt x="536" y="516" on="1"/>
        <pt x="446" y="68" on="1"/>
        <pt x="519" y="68" on="1"/>
      </contour>
      <contour>
        <pt x="227" y="58" on="1"/>
        <pt x="263" y="58" on="0"/>
        <pt x="314" y="86" on="0"/>
        <pt x="337" y="109" on="1"/>
        <pt x="363" y="135" on="0"/>
        <pt x="394" y="195" on="0"/>
        <pt x="402" y="233" on="1"/>
        <pt x="427" y="357" on="1"/>
        <pt x="430" y="374" on="0"/>
        <pt x="417" y="410" on="0"/>
        <pt x="387" y="439" on="0"/>
        <pt x="342" y="458" on="0"/>
        <pt x="312" y="458" on="1"/>
        <pt x="246" y="458" on="0"/>
        <pt x="165" y="376" on="0"/>
        <pt x="150" y="301" on="1"/>
        <pt x="135" y="226" on="1"/>
        <pt x="130" y="198" on="0"/>
        <pt x="130" y="175" on="1"/>
        <pt x="130" y="125" on="0"/>
        <pt x="177" y="58" on="0"/>
      </contour>
    </TTGlyph>
    <TTGlyph name="aogonek.alt01" xMin="22" yMin="-207" xMax="467" yMax="528">
      <contour>
        <pt x="162" y="-12" on="1"/>
        <pt x="96" y="-12" on="0"/>
        <pt x="22" y="57" on="0"/>
        <pt x="22" y="113" on="1"/>
        <pt x="22" y="198" on="0"/>
        <pt x="136" y="294" on="0"/>
        <pt x="256" y="294" on="1"/>
        <pt x="362" y="294" on="1"/>
        <pt x="372" y="345" on="1"/>
        <pt x="375" y="360" on="0"/>
        <pt x="375" y="373" on="1"/>
        <pt x="375" y="415" on="0"/>
        <pt x="321" y="460" on="0"/>
        <pt x="272" y="460" on="1"/>
        <pt x="224" y="460" on="0"/>
        <pt x="162" y="423" on="0"/>
        <pt x="134" y="386" on="1"/>
        <pt x="87" y="431" on="1"/>
        <pt x="114" y="473" on="0"/>
        <pt x="215" y="528" on="0"/>
        <pt x="283" y="528" on="1"/>
        <pt x="326" y="528" on="0"/>
        <pt x="390" y="504" on="0"/>
        <pt x="432" y="464" on="0"/>
        <pt x="453" y="412" on="0"/>
        <pt x="453" y="383" on="1"/>
        <pt x="453" y="363" on="0"/>
        <pt x="449" y="343" on="1"/>
        <pt x="394" y="68" on="1"/>
        <pt x="467" y="68" on="1"/>
        <pt x="454" y="0" on="1"/>
        <pt x="415" y="-26" on="0"/>
        <pt x="368" y="-65" on="0"/>
        <pt x="343" y="-94" on="0"/>
        <pt x="336" y="-114" on="0"/>
        <pt x="336" y="-122" on="1"/>
        <pt x="336" y="-138" on="0"/>
        <pt x="355" y="-153" on="0"/>
        <pt x="369" y="-153" on="1"/>
        <pt x="381" y="-153" on="0"/>
        <pt x="409" y="-140" on="0"/>
        <pt x="423" y="-126" on="1"/>
        <pt x="460" y="-170" on="1"/>
        <pt x="447" y="-184" on="0"/>
        <pt x="399" y="-207" on="0"/>
        <pt x="364" y="-207" on="1"/>
        <pt x="345" y="-207" on="0"/>
        <pt x="311" y="-199" on="0"/>
        <pt x="284" y="-181" on="0"/>
        <pt x="268" y="-152" on="0"/>
        <pt x="268" y="-132" on="1"/>
        <pt x="268" y="-90" on="0"/>
        <pt x="336" y="-31" on="0"/>
        <pt x="393" y="-5" on="1"/>
        <pt x="392" y="0" on="1"/>
        <pt x="357" y="0" on="0"/>
        <pt x="324" y="34" on="0"/>
        <pt x="324" y="62" on="1"/>
        <pt x="324" y="76" on="0"/>
        <pt x="326" y="84" on="1"/>
        <pt x="321" y="84" on="1"/>
        <pt x="268" y="-12" on="0"/>
      </contour>
      <contour>
        <pt x="182" y="55" on="1"/>
        <pt x="210" y="55" on="0"/>
        <pt x="262" y="69" on="0"/>
        <pt x="302" y="95" on="0"/>
        <pt x="329" y="129" on="0"/>
        <pt x="333" y="150" on="1"/>
        <pt x="350" y="237" on="1"/>
        <pt x="249" y="237" on="1"/>
        <pt x="183" y="237" on="0"/>
        <pt x="114" y="196" on="0"/>
        <pt x="106" y="158" on="1"/>
        <pt x="102" y="139" on="0"/>
        <pt x="100" y="124" on="0"/>
        <pt x="100" y="119" on="1"/>
        <pt x="100" y="88" on="0"/>
        <pt x="144" y="55" on="0"/>
      </contour>
    </TTGlyph>
    <TTGlyph name="approxequal" xMin="63" yMin="137" xMax="557" yMax="475">
      <component glyphName="asciitilde" x="20" y="101" flags="0x204"/>
      <component glyphName="asciitilde" x="-19" y="-99" flags="0x4"/>
    </TTGlyph>
    <TTGlyph name="aring" xMin="51" yMin="-12" xMax="536" yMax="806">
      <component glyphName="a" x="0" y="0" flags="0x204"/>
      <component glyphName="ring" x="41" y="0" flags="0x4"/>
    </TTGlyph>
    <TTGlyph name="aring.alt01" xMin="22" yMin="-12" xMax="467" yMax="806">
      <component glyphName="a.alt01" x="0" y="0" flags="0x204"/>
      <component glyphName="ring" x="-7" y="0" flags="0x4"/>
    </TTGlyph>
    <TTGlyph name="aringacute" xMin="51" yMin="-12" xMax="536" yMax="957">
      <component glyphName="a" x="0" y="0" flags="0x204"/>
      <component glyphName="ringacute" x="41" y="0" flags="0x4"/>
    </TTGlyph>
    <TTGlyph name="aringacute.alt01" xMin="22" yMin="-12" xMax="467" yMax="957">
      <component glyphName="a.alt01" x="0" y="0" flags="0x204"/>
      <component glyphName="ringacute" x="-7" y="0" flags="0x4"/>
    </TTGlyph>
    <TTGlyph name="asciicircum" xMin="74" yMin="296" xMax="555" yMax="698">
      <contour>
        <pt x="493" y="296" on="1"/>
        <pt x="378" y="621" on="1"/>
        <pt x="374" y="621" on="1"/>
        <pt x="130" y="296" on="1"/>
        <pt x="74" y="331" on="1"/>
        <pt x="344" y="698" on="1"/>
        <pt x="429" y="698" on="1"/>
        <pt x="555" y="325" on="1"/>
      </contour>
    </TTGlyph>
    <TTGlyph name="asciitilde" xMin="82" yMin="236" xMax="537" yMax="374">
      <contour>
        <pt x="410" y="236" on="1"/>
        <pt x="376" y="236" on="0"/>
        <pt x="325" y="257" on="0"/>
        <pt x="295" y="274" on="1"/>
        <pt x="271" y="288" on="0"/>
        <pt x="224" y="308" on="0"/>
        <pt x="194" y="308" on="1"/>
        <pt x="171" y="308" on="0"/>
        <pt x="131" y="291" on="0"/>
        <pt x="106" y="274" on="1"/>
        <pt x="82" y="320" on="1"/>
        <pt x="106" y="344" on="0"/>
        <pt x="164" y="374" on="0"/>
        <pt x="209" y="374" on="1"/>
        <pt x="243" y="374" on="0"/>
        <pt x="294" y="353" on="0"/>
        <pt x="324" y="336" on="1"/>
        <pt x="348" y="322" on="0"/>
        <pt x="395" y="302" on="0"/>
        <pt x="425" y="302" on="1"/>
        <pt x="448" y="302" on="0"/>
        <pt x="488" y="319" on="0"/>
        <pt x="513" y="336" on="1"/>
        <pt x="537" y="290" on="1"/>
        <pt x="513" y="266" on="0"/>
        <pt x="455" y="236" on="0"/>
      </contour>
    </TTGlyph>
    <TTGlyph name="asterisk" xMin="103" yMin="380" xMax="474" yMax="747">
      <contour>
        <pt x="172" y="380" on="1"/>
        <pt x="120" y="425" on="1"/>
        <pt x="237" y="545" on="1"/>
        <pt x="103" y="583" on="1"/>
        <pt x="134" y="648" on="1"/>
        <pt x="261" y="595" on="1"/>
        <pt x="286" y="747" on="1"/>
        <pt x="354" y="747" on="1"/>
        <pt x="319" y="595" on="1"/>
        <pt x="462" y="647" on="1"/>
        <pt x="474" y="583" on="1"/>
        <pt x="326" y="542" on="1"/>
        <pt x="394" y="424" on="1"/>
        <pt x="336" y="385" on="1"/>
        <pt x="277" y="512" on="1"/>
      </contour>
    </TTGlyph>
    <TTGlyph name="at" xMin="65" yMin="-121" xMax="818" yMax="708">
      <contour>
        <pt x="360" y="-121" on="1"/>
        <pt x="217" y="-121" on="0"/>
        <pt x="65" y="45" on="0"/>
        <pt x="65" y="194" on="1"/>
        <pt x="65" y="214" on="0"/>
        <pt x="69" y="271" on="0"/>
        <pt x="76" y="305" on="1"/>
        <pt x="93" y="392" on="0"/>
        <pt x="171" y="540" on="0"/>
        <pt x="285" y="647" on="0"/>
        <pt x="430" y="708" on="0"/>
        <pt x="515" y="708" on="1"/>
        <pt x="585" y="708" on="0"/>
        <pt x="697" y="666" on="0"/>
        <pt x="776" y="588" on="0"/>
        <pt x="818" y="477" on="0"/>
        <pt x="818" y="408" on="1"/>
        <pt x="818" y="395" on="0"/>
        <pt x="815" y="350" on="0"/>
        <pt x="809" y="320" on="1"/>
        <pt x="799" y="269" on="0"/>
        <pt x="766" y="178" on="0"/>
        <pt x="716" y="109" on="0"/>
        <pt x="648" y="69" on="0"/>
        <pt x="603" y="69" on="1"/>
        <pt x="514" y="69" on="0"/>
        <pt x="514" y="159" on="1"/>
        <pt x="514" y="171" on="1"/>
        <pt x="510" y="171" on="1"/>
        <pt x="493" y="128" on="0"/>
        <pt x="421" y="69" on="0"/>
        <pt x="373" y="69" on="1"/>
        <pt x="347" y="69" on="0"/>
        <pt x="300" y="89" on="0"/>
        <pt x="264" y="128" on="0"/>
        <pt x="243" y="188" on="0"/>
        <pt x="243" y="227" on="1"/>
        <pt x="243" y="241" on="0"/>
        <pt x="247" y="278" on="0"/>
        <pt x="252" y="303" on="1"/>
        <pt x="272" y="400" on="0"/>
        <pt x="370" y="509" on="0"/>
        <pt x="444" y="509" on="1"/>
        <pt x="533" y="509" on="0"/>
        <pt x="554" y="420" on="1"/>
        <pt x="558" y="420" on="1"/>
        <pt x="574" y="499" on="1"/>
        <pt x="643" y="499" on="1"/>
        <pt x="583" y="199" on="1"/>
        <pt x="581" y="191" on="0"/>
        <pt x="577" y="171" on="0"/>
        <pt x="577" y="161" on="1"/>
        <pt x="577" y="146" on="0"/>
        <pt x="593" y="128" on="0"/>
        <pt x="613" y="128" on="1"/>
        <pt x="660" y="128" on="0"/>
        <pt x="725" y="227" on="0"/>
        <pt x="741" y="305" on="1"/>
        <pt x="751" y="355" on="1"/>
        <pt x="754" y="370" on="0"/>
        <pt x="755" y="400" on="0"/>
        <pt x="755" y="414" on="1"/>
        <pt x="755" y="466" on="0"/>
        <pt x="723" y="553" on="0"/>
        <pt x="660" y="615" on="0"/>
        <pt x="569" y="649" on="0"/>
        <pt x="511" y="649" on="1"/>
        <pt x="443" y="649" on="0"/>
        <pt x="323" y="602" on="0"/>
        <pt x="228" y="517" on="0"/>
        <pt x="162" y="396" on="0"/>
        <pt x="147" y="322" on="1"/>
        <pt x="135" y="263" on="1"/>
        <pt x="131" y="244" on="0"/>
        <pt x="129" y="208" on="0"/>
        <pt x="129" y="195" on="1"/>
        <pt x="129" y="75" on="0"/>
        <pt x="246" y="-61" on="0"/>
        <pt x="363" y="-61" on="1"/>
        <pt x="593" y="-61" on="1"/>
        <pt x="581" y="-121" on="1"/>
      </contour>
      <contour>
        <pt x="398" y="133" on="1"/>
        <pt x="422" y="133" on="0"/>
        <pt x="464" y="151" on="0"/>
        <pt x="497" y="183" on="0"/>
        <pt x="518" y="223" on="0"/>
        <pt x="523" y="246" on="1"/>
        <pt x="546" y="360" on="1"/>
        <pt x="549" y="375" on="0"/>
        <pt x="539" y="405" on="0"/>
        <pt x="515" y="430" on="0"/>
        <pt x="479" y="445" on="0"/>
        <pt x="456" y="445" on="1"/>
        <pt x="408" y="445" on="0"/>
        <pt x="345" y="386" on="0"/>
        <pt x="336" y="340" on="1"/>
        <pt x="317" y="245" on="1"/>
        <pt x="314" y="230" on="0"/>
        <pt x="314" y="217" on="1"/>
        <pt x="314" y="178" on="0"/>
        <pt x="359" y="133" on="0"/>
      </contour>
    </TTGlyph>
    <TTGlyph name="atilde" xMin="51" yMin="-12" xMax="536" yMax="726">
      <component glyphName="a" x="0" y="0" flags="0x204"/>
      <component glyphName="tilde" x="41" y="0" flags="0x4"/>
    </TTGlyph>
    <TTGlyph name="atilde.alt01" xMin="22" yMin="-12" xMax="472" yMax="726">
      <component glyphName="a.alt01" x="0" y="0" flags="0x204"/>
      <component glyphName="tilde" x="-7" y="0" flags="0x4"/>
    </TTGlyph>
    <TTGlyph name="b" xMin="36" yMin="-12" xMax="521" yMax="740">
      <contour>
        <pt x="185" y="740" on="1"/>
        <pt x="262" y="740" on="1"/>
        <pt x="194" y="404" on="1"/>
        <pt x="197" y="404" on="1"/>
        <pt x="229" y="469" on="0"/>
        <pt x="307" y="528" on="0"/>
        <pt x="364" y="528" on="1"/>
        <pt x="435" y="528" on="0"/>
        <pt x="521" y="423" on="0"/>
        <pt x="521" y="331" on="1"/>
        <pt x="521" y="274" on="0"/>
        <pt x="490" y="153" on="0"/>
        <pt x="428" y="52" on="0"/>
        <pt x="333" y="-12" on="0"/>
        <pt x="269" y="-12" on="1"/>
        <pt x="246" y="-12" on="0"/>
        <pt x="202" y="0" on="0"/>
        <pt x="166" y="24" on="0"/>
        <pt x="140" y="60" on="0"/>
        <pt x="134" y="84" on="1"/>
        <pt x="130" y="84" on="1"/>
        <pt x="113" y="0" on="1"/>
        <pt x="36" y="0" on="1"/>
      </contour>
      <contour>
        <pt x="262" y="58" on="1"/>
        <pt x="325" y="58" on="0"/>
        <pt x="407" y="140" on="0"/>
        <pt x="422" y="215" on="1"/>
        <pt x="437" y="290" on="1"/>
        <pt x="442" y="318" on="0"/>
        <pt x="442" y="341" on="1"/>
        <pt x="442" y="392" on="0"/>
        <pt x="395" y="458" on="0"/>
        <pt x="343" y="458" on="1"/>
        <pt x="309" y="458" on="0"/>
        <pt x="258" y="430" on="0"/>
        <pt x="235" y="407" on="1"/>
        <pt x="210" y="382" on="0"/>
        <pt x="178" y="322" on="0"/>
        <pt x="170" y="283" on="1"/>
        <pt x="149" y="178" on="1"/>
        <pt x="144" y="154" on="0"/>
        <pt x="152" y="110" on="0"/>
        <pt x="180" y="77" on="0"/>
        <pt x="227" y="58" on="0"/>
      </contour>
    </TTGlyph>
    <TTGlyph name="backslash" xMin="142" yMin="-151" xMax="280" yMax="740">
      <contour>
        <pt x="213" y="-151" on="1"/>
        <pt x="142" y="740" on="1"/>
        <pt x="209" y="740" on="1"/>
        <pt x="280" y="-151" on="1"/>
      </contour>
    </TTGlyph>
    <TTGlyph name="bar" xMin="41" yMin="-138" xMax="288" yMax="760">
      <contour>
        <pt x="41" y="-138" on="1"/>
        <pt x="222" y="760" on="1"/>
        <pt x="288" y="760" on="1"/>
        <pt x="107" y="-138" on="1"/>
      </contour>
    </TTGlyph>
    <TTGlyph name="beta" xMin="-4" yMin="-200" xMax="536" yMax="752">
      <contour>
        <pt x="140" y="517" on="1"/>
        <pt x="162" y="625" on="0"/>
        <pt x="277" y="752" on="0"/>
        <pt x="374" y="752" on="1"/>
        <pt x="449" y="752" on="0"/>
        <pt x="536" y="672" on="0"/>
        <pt x="536" y="600" on="1"/>
        <pt x="536" y="556" on="0"/>
        <pt x="510" y="488" on="0"/>
        <pt x="466" y="441" on="0"/>
        <pt x="407" y="412" on="0"/>
        <pt x="373" y="407" on="1"/>
        <pt x="372" y="403" on="1"/>
        <pt x="435" y="391" on="0"/>
        <pt x="500" y="305" on="0"/>
        <pt x="500" y="227" on="1"/>
        <pt x="500" y="174" on="0"/>
        <pt x="466" y="86" on="0"/>
        <pt x="405" y="23" on="0"/>
        <pt x="320" y="-12" on="0"/>
        <pt x="269" y="-12" on="1"/>
        <pt x="246" y="-12" on="0"/>
        <pt x="202" y="0" on="0"/>
        <pt x="166" y="24" on="0"/>
        <pt x="140" y="60" on="0"/>
        <pt x="134" y="84" on="1"/>
        <pt x="130" y="84" on="1"/>
        <pt x="73" y="-200" on="1"/>
        <pt x="-4" y="-200" on="1"/>
      </contour>
      <contour>
        <pt x="273" y="437" on="1"/>
        <pt x="308" y="437" on="1"/>
        <pt x="379" y="437" on="0"/>
        <pt x="439" y="496" on="0"/>
        <pt x="450" y="547" on="1"/>
        <pt x="453" y="561" on="0"/>
        <pt x="457" y="589" on="0"/>
        <pt x="457" y="600" on="1"/>
        <pt x="457" y="638" on="0"/>
        <pt x="414" y="682" on="0"/>
        <pt x="364" y="682" on="1"/>
        <pt x="313" y="682" on="0"/>
        <pt x="236" y="608" on="0"/>
        <pt x="219" y="527" on="1"/>
        <pt x="149" y="178" on="1"/>
        <pt x="144" y="154" on="0"/>
        <pt x="152" y="110" on="0"/>
        <pt x="180" y="77" on="0"/>
        <pt x="227" y="58" on="0"/>
        <pt x="262" y="58" on="1"/>
        <pt x="320" y="58" on="0"/>
        <pt x="403" y="118" on="0"/>
        <pt x="416" y="189" on="1"/>
        <pt x="418" y="202" on="0"/>
        <pt x="421" y="229" on="0"/>
        <pt x="421" y="247" on="1"/>
        <pt x="421" y="369" on="0"/>
        <pt x="295" y="369" on="1"/>
        <pt x="259" y="369" on="1"/>
      </contour>
    </TTGlyph>
    <TTGlyph name="braceleft" xMin="27" yMin="-138" xMax="371" yMax="760">
      <contour>
        <pt x="115" y="-138" on="1"/>
        <pt x="82" y="-138" on="0"/>
        <pt x="49" y="-103" on="0"/>
        <pt x="49" y="-76" on="1"/>
        <pt x="49" y="-71" on="0"/>
        <pt x="50" y="-58" on="0"/>
        <pt x="52" y="-47" on="1"/>
        <pt x="98" y="181" on="1"/>
        <pt x="101" y="196" on="0"/>
        <pt x="101" y="207" on="1"/>
        <pt x="101" y="240" on="0"/>
        <pt x="61" y="272" on="0"/>
        <pt x="27" y="272" on="1"/>
        <pt x="43" y="350" on="1"/>
        <pt x="93" y="350" on="0"/>
        <pt x="142" y="400" on="0"/>
        <pt x="150" y="441" on="1"/>
        <pt x="197" y="676" on="1"/>
        <pt x="214" y="760" on="0"/>
        <pt x="283" y="760" on="1"/>
        <pt x="371" y="760" on="1"/>
        <pt x="360" y="697" on="1"/>
        <pt x="270" y="697" on="1"/>
        <pt x="220" y="446" on="1"/>
        <pt x="215" y="423" on="0"/>
        <pt x="200" y="379" on="0"/>
        <pt x="173" y="343" on="0"/>
        <pt x="132" y="319" on="0"/>
        <pt x="102" y="316" on="1"/>
        <pt x="99" y="300" on="1"/>
        <pt x="134" y="293" on="0"/>
        <pt x="171" y="247" on="0"/>
        <pt x="171" y="211" on="1"/>
        <pt x="171" y="203" on="0"/>
        <pt x="168" y="185" on="0"/>
        <pt x="166" y="177" on="1"/>
        <pt x="116" y="-75" on="1"/>
        <pt x="207" y="-75" on="1"/>
        <pt x="193" y="-138" on="1"/>
      </contour>
    </TTGlyph>
    <TTGlyph name="braceright" xMin="-21" yMin="-138" xMax="323" yMax="760">
      <contour>
        <pt x="-10" y="-75" on="1"/>
        <pt x="80" y="-75" on="1"/>
        <pt x="130" y="176" on="1"/>
        <pt x="134" y="198" on="0"/>
        <pt x="150" y="242" on="0"/>
        <pt x="177" y="277" on="0"/>
        <pt x="218" y="301" on="0"/>
        <pt x="248" y="304" on="1"/>
        <pt x="251" y="320" on="1"/>
        <pt x="216" y="327" on="0"/>
        <pt x="179" y="375" on="0"/>
        <pt x="179" y="411" on="1"/>
        <pt x="179" y="419" on="0"/>
        <pt x="182" y="437" on="0"/>
        <pt x="184" y="445" on="1"/>
        <pt x="234" y="697" on="1"/>
        <pt x="143" y="697" on="1"/>
        <pt x="157" y="760" on="1"/>
        <pt x="235" y="760" on="1"/>
        <pt x="268" y="760" on="0"/>
        <pt x="301" y="725" on="0"/>
        <pt x="301" y="698" on="1"/>
        <pt x="301" y="693" on="0"/>
        <pt x="300" y="680" on="0"/>
        <pt x="298" y="669" on="1"/>
        <pt x="252" y="441" on="1"/>
        <pt x="249" y="426" on="0"/>
        <pt x="249" y="415" on="1"/>
        <pt x="249" y="382" on="0"/>
        <pt x="289" y="350" on="0"/>
        <pt x="323" y="350" on="1"/>
        <pt x="307" y="272" on="1"/>
        <pt x="257" y="272" on="0"/>
        <pt x="208" y="222" on="0"/>
        <pt x="200" y="181" on="1"/>
        <pt x="153" y="-54" on="1"/>
        <pt x="136" y="-138" on="0"/>
        <pt x="67" y="-138" on="1"/>
        <pt x="-21" y="-138" on="1"/>
      </contour>
    </TTGlyph>
    <TTGlyph name="bracketleft" xMin="12" yMin="-138" xMax="351" yMax="760">
      <contour>
        <pt x="12" y="-138" on="1"/>
        <pt x="192" y="760" on="1"/>
        <pt x="351" y="760" on="1"/>
        <pt x="338" y="699" on="1"/>
        <pt x="249" y="699" on="1"/>
        <pt x="93" y="-77" on="1"/>
        <pt x="182" y="-77" on="1"/>
        <pt x="170" y="-138" on="1"/>
      </contour>
    </TTGlyph>
    <TTGlyph name="bracketright" xMin="-12" yMin="-138" xMax="327" yMax="760">
      <contour>
        <pt x="327" y="760" on="1"/>
        <pt x="147" y="-138" on="1"/>
        <pt x="-12" y="-138" on="1"/>
        <pt x="1" y="-77" on="1"/>
        <pt x="90" y="-77" on="1"/>
        <pt x="246" y="699" on="1"/>
        <pt x="157" y="699" on="1"/>
        <pt x="169" y="760" on="1"/>
      </contour>
    </TTGlyph>
    <TTGlyph name="breve" xMin="175" yMin="596" xMax="473" yMax="750">
      <contour>
        <pt x="306" y="596" on="1"/>
        <pt x="269" y="596" on="0"/>
        <pt x="221" y="623" on="0"/>
        <pt x="192" y="663" on="0"/>
        <pt x="178" y="710" on="0"/>
        <pt x="175" y="730" on="1"/>
        <pt x="221" y="750" on="1"/>
        <pt x="231" y="728" on="1"/>
        <pt x="247" y="693" on="0"/>
        <pt x="279" y="657" on="0"/>
        <pt x="308" y="657" on="1"/>
        <pt x="335" y="657" on="0"/>
        <pt x="379" y="690" on="0"/>
        <pt x="408" y="728" on="1"/>
        <pt x="425" y="750" on="1"/>
        <pt x="473" y="730" on="1"/>
        <pt x="463" y="709" on="0"/>
        <pt x="436" y="662" on="0"/>
        <pt x="396" y="622" on="0"/>
        <pt x="342" y="596" on="0"/>
      </contour>
    </TTGlyph>
    <TTGlyph name="breve.case" xMin="179" yMin="766" xMax="477" yMax="920">
      <contour>
        <pt x="310" y="766" on="1"/>
        <pt x="273" y="766" on="0"/>
        <pt x="225" y="793" on="0"/>
        <pt x="196" y="833" on="0"/>
        <pt x="182" y="880" on="0"/>
        <pt x="179" y="900" on="1"/>
        <pt x="225" y="920" on="1"/>
        <pt x="235" y="898" on="1"/>
        <pt x="251" y="863" on="0"/>
        <pt x="283" y="827" on="0"/>
        <pt x="312" y="827" on="1"/>
        <pt x="339" y="827" on="0"/>
        <pt x="383" y="860" on="0"/>
        <pt x="412" y="898" on="1"/>
        <pt x="429" y="920" on="1"/>
        <pt x="477" y="900" on="1"/>
        <pt x="467" y="879" on="0"/>
        <pt x="440" y="832" on="0"/>
        <pt x="400" y="792" on="0"/>
        <pt x="346" y="766" on="0"/>
      </contour>
    </TTGlyph>
    <TTGlyph name="breve.cyrl" xMin="182" yMin="596" xMax="479" yMax="743">
      <contour>
        <pt x="314" y="596" on="1"/>
        <pt x="268" y="596" on="0"/>
        <pt x="211" y="632" on="0"/>
        <pt x="196" y="674" on="1"/>
        <pt x="182" y="715" on="1"/>
        <pt x="249" y="743" on="1"/>
        <pt x="271" y="661" on="1"/>
        <pt x="282" y="658" on="0"/>
        <pt x="310" y="655" on="0"/>
        <pt x="321" y="655" on="1"/>
        <pt x="333" y="655" on="0"/>
        <pt x="357" y="658" on="0"/>
        <pt x="366" y="661" on="1"/>
        <pt x="418" y="743" on="1"/>
        <pt x="479" y="709" on="1"/>
        <pt x="453" y="674" on="1"/>
        <pt x="421" y="632" on="0"/>
        <pt x="356" y="596" on="0"/>
      </contour>
    </TTGlyph>
    <TTGlyph name="breve.cyrl_case" xMin="184" yMin="766" xMax="481" yMax="913">
      <contour>
        <pt x="316" y="766" on="1"/>
        <pt x="270" y="766" on="0"/>
        <pt x="213" y="802" on="0"/>
        <pt x="198" y="844" on="1"/>
        <pt x="184" y="885" on="1"/>
        <pt x="251" y="913" on="1"/>
        <pt x="273" y="831" on="1"/>
        <pt x="284" y="828" on="0"/>
        <pt x="312" y="825" on="0"/>
        <pt x="323" y="825" on="1"/>
        <pt x="335" y="825" on="0"/>
        <pt x="359" y="828" on="0"/>
        <pt x="368" y="831" on="1"/>
        <pt x="420" y="913" on="1"/>
        <pt x="481" y="879" on="1"/>
        <pt x="455" y="844" on="1"/>
        <pt x="423" y="802" on="0"/>
        <pt x="358" y="766" on="0"/>
      </contour>
    </TTGlyph>
    <TTGlyph name="breveacute" xMin="-118" yMin="585" xMax="180" yMax="892">
      <contour>
        <pt x="13" y="585" on="1"/>
        <pt x="-24" y="585" on="0"/>
        <pt x="-72" y="612" on="0"/>
        <pt x="-101" y="652" on="0"/>
        <pt x="-115" y="699" on="0"/>
        <pt x="-118" y="719" on="1"/>
        <pt x="-72" y="739" on="1"/>
        <pt x="-64" y="717" on="1"/>
        <pt x="-50" y="679" on="0"/>
        <pt x="-15" y="643" on="0"/>
        <pt x="15" y="643" on="1"/>
        <pt x="42" y="643" on="0"/>
        <pt x="91" y="672" on="0"/>
        <pt x="117" y="714" on="1"/>
        <pt x="132" y="739" on="1"/>
        <pt x="180" y="719" on="1"/>
        <pt x="170" y="698" on="0"/>
        <pt x="143" y="651" on="0"/>
        <pt x="103" y="611" on="0"/>
        <pt x="49" y="585" on="0"/>
      </contour>
      <contour>
        <pt x="35" y="697" on="1"/>
        <pt x="-13" y="722" on="1"/>
        <pt x="91" y="892" on="1"/>
        <pt x="158" y="857" on="1"/>
      </contour>
    </TTGlyph>
    <TTGlyph name="breveacute.case" xMin="-114" yMin="757" xMax="184" yMax="1064">
      <contour>
        <pt x="17" y="757" on="1"/>
        <pt x="-20" y="757" on="0"/>
        <pt x="-68" y="784" on="0"/>
        <pt x="-97" y="824" on="0"/>
        <pt x="-111" y="871" on="0"/>
        <pt x="-114" y="891" on="1"/>
        <pt x="-68" y="911" on="1"/>
        <pt x="-60" y="889" on="1"/>
        <pt x="-46" y="851" on="0"/>
        <pt x="-11" y="815" on="0"/>
        <pt x="19" y="815" on="1"/>
        <pt x="46" y="815" on="0"/>
        <pt x="95" y="844" on="0"/>
        <pt x="121" y="886" on="1"/>
        <pt x="136" y="911" on="1"/>
        <pt x="184" y="891" on="1"/>
        <pt x="174" y="870" on="0"/>
        <pt x="147" y="823" on="0"/>
        <pt x="107" y="783" on="0"/>
        <pt x="53" y="757" on="0"/>
      </contour>
      <contour>
        <pt x="39" y="869" on="1"/>
        <pt x="-9" y="894" on="1"/>
        <pt x="95" y="1064" on="1"/>
        <pt x="162" y="1029" on="1"/>
      </contour>
    </TTGlyph>
    <TTGlyph name="brevegrave" xMin="-118" yMin="585" xMax="180" yMax="891">
      <contour>
        <pt x="13" y="585" on="1"/>
        <pt x="-24" y="585" on="0"/>
        <pt x="-72" y="612" on="0"/>
        <pt x="-101" y="652" on="0"/>
        <pt x="-115" y="699" on="0"/>
        <pt x="-118" y="719" on="1"/>
        <pt x="-72" y="739" on="1"/>
        <pt x="-64" y="717" on="1"/>
        <pt x="-50" y="679" on="0"/>
        <pt x="-15" y="643" on="0"/>
        <pt x="15" y="643" on="1"/>
        <pt x="42" y="643" on="0"/>
        <pt x="91" y="672" on="0"/>
        <pt x="117" y="714" on="1"/>
        <pt x="132" y="739" on="1"/>
        <pt x="180" y="719" on="1"/>
        <pt x="170" y="698" on="0"/>
        <pt x="143" y="651" on="0"/>
        <pt x="103" y="611" on="0"/>
        <pt x="49" y="585" on="0"/>
      </contour>
      <contour>
        <pt x="-73" y="860" on="1"/>
        <pt x="-4" y="891" on="1"/>
        <pt x="57" y="721" on="1"/>
        <pt x="11" y="700" on="1"/>
      </contour>
    </TTGlyph>
    <TTGlyph name="brevegrave.case" xMin="-114" yMin="757" xMax="184" yMax="1063">
      <contour>
        <pt x="17" y="757" on="1"/>
        <pt x="-20" y="757" on="0"/>
        <pt x="-68" y="784" on="0"/>
        <pt x="-97" y="824" on="0"/>
        <pt x="-111" y="871" on="0"/>
        <pt x="-114" y="891" on="1"/>
        <pt x="-68" y="911" on="1"/>
        <pt x="-60" y="889" on="1"/>
        <pt x="-46" y="851" on="0"/>
        <pt x="-11" y="815" on="0"/>
        <pt x="19" y="815" on="1"/>
        <pt x="46" y="815" on="0"/>
        <pt x="95" y="844" on="0"/>
        <pt x="121" y="886" on="1"/>
        <pt x="136" y="911" on="1"/>
        <pt x="184" y="891" on="1"/>
        <pt x="174" y="870" on="0"/>
        <pt x="147" y="823" on="0"/>
        <pt x="107" y="783" on="0"/>
        <pt x="53" y="757" on="0"/>
      </contour>
      <contour>
        <pt x="-69" y="1032" on="1"/>
        <pt x="0" y="1063" on="1"/>
        <pt x="61" y="893" on="1"/>
        <pt x="15" y="872" on="1"/>
      </contour>
    </TTGlyph>
    <TTGlyph name="brevehook" xMin="-118" yMin="585" xMax="180" yMax="880">
      <contour>
        <pt x="13" y="585" on="1"/>
        <pt x="-24" y="585" on="0"/>
        <pt x="-72" y="612" on="0"/>
        <pt x="-101" y="652" on="0"/>
        <pt x="-115" y="699" on="0"/>
        <pt x="-118" y="719" on="1"/>
        <pt x="-72" y="739" on="1"/>
        <pt x="-64" y="717" on="1"/>
        <pt x="-50" y="679" on="0"/>
        <pt x="-15" y="643" on="0"/>
        <pt x="15" y="643" on="1"/>
        <pt x="42" y="643" on="0"/>
        <pt x="91" y="672" on="0"/>
        <pt x="117" y="714" on="1"/>
        <pt x="132" y="739" on="1"/>
        <pt x="180" y="719" on="1"/>
        <pt x="170" y="698" on="0"/>
        <pt x="143" y="651" on="0"/>
        <pt x="103" y="611" on="0"/>
        <pt x="49" y="585" on="0"/>
      </contour>
      <contour>
        <pt x="-42" y="880" on="1"/>
        <pt x="65" y="880" on="1"/>
        <pt x="102" y="880" on="0"/>
        <pt x="127" y="848" on="0"/>
        <pt x="127" y="831" on="1"/>
        <pt x="127" y="806" on="0"/>
        <pt x="92" y="754" on="0"/>
        <pt x="66" y="724" on="1"/>
        <pt x="38" y="692" on="1"/>
        <pt x="-3" y="715" on="1"/>
        <pt x="66" y="823" on="1"/>
        <pt x="-50" y="823" on="1"/>
      </contour>
    </TTGlyph>
    <TTGlyph name="brevehook.case" xMin="-114" yMin="757" xMax="184" yMax="1050">
      <contour>
        <pt x="-38" y="1050" on="1"/>
        <pt x="69" y="1050" on="1"/>
        <pt x="106" y="1050" on="0"/>
        <pt x="131" y="1018" on="0"/>
        <pt x="131" y="1001" on="1"/>
        <pt x="131" y="976" on="0"/>
        <pt x="96" y="924" on="0"/>
        <pt x="70" y="894" on="1"/>
        <pt x="42" y="862" on="1"/>
        <pt x="1" y="885" on="1"/>
        <pt x="70" y="993" on="1"/>
        <pt x="-46" y="993" on="1"/>
      </contour>
      <contour>
        <pt x="17" y="757" on="1"/>
        <pt x="-20" y="757" on="0"/>
        <pt x="-68" y="784" on="0"/>
        <pt x="-97" y="824" on="0"/>
        <pt x="-111" y="871" on="0"/>
        <pt x="-114" y="891" on="1"/>
        <pt x="-68" y="911" on="1"/>
        <pt x="-60" y="889" on="1"/>
        <pt x="-46" y="851" on="0"/>
        <pt x="-11" y="815" on="0"/>
        <pt x="19" y="815" on="1"/>
        <pt x="46" y="815" on="0"/>
        <pt x="95" y="844" on="0"/>
        <pt x="121" y="886" on="1"/>
        <pt x="136" y="911" on="1"/>
        <pt x="184" y="891" on="1"/>
        <pt x="174" y="870" on="0"/>
        <pt x="147" y="823" on="0"/>
        <pt x="107" y="783" on="0"/>
        <pt x="53" y="757" on="0"/>
      </contour>
    </TTGlyph>
    <TTGlyph name="brevetilde" xMin="-118" yMin="585" xMax="207" yMax="884">
      <contour>
        <pt x="13" y="585" on="1"/>
        <pt x="-24" y="585" on="0"/>
        <pt x="-72" y="612" on="0"/>
        <pt x="-101" y="652" on="0"/>
        <pt x="-115" y="699" on="0"/>
        <pt x="-118" y="719" on="1"/>
        <pt x="-72" y="739" on="1"/>
        <pt x="-64" y="717" on="1"/>
        <pt x="-50" y="679" on="0"/>
        <pt x="-15" y="643" on="0"/>
        <pt x="15" y="643" on="1"/>
        <pt x="42" y="643" on="0"/>
        <pt x="91" y="672" on="0"/>
        <pt x="117" y="714" on="1"/>
        <pt x="132" y="739" on="1"/>
        <pt x="180" y="719" on="1"/>
        <pt x="170" y="698" on="0"/>
        <pt x="143" y="651" on="0"/>
        <pt x="103" y="611" on="0"/>
        <pt x="49" y="585" on="0"/>
      </contour>
      <contour>
        <pt x="109" y="772" on="1"/>
        <pt x="83" y="772" on="0"/>
        <pt x="48" y="790" on="0"/>
        <pt x="34" y="798" on="1"/>
        <pt x="12" y="812" on="0"/>
        <pt x="-18" y="822" on="0"/>
        <pt x="-31" y="822" on="1"/>
        <pt x="-47" y="822" on="0"/>
        <pt x="-74" y="809" on="0"/>
        <pt x="-91" y="796" on="1"/>
        <pt x="-118" y="833" on="1"/>
        <pt x="-104" y="853" on="0"/>
        <pt x="-54" y="884" on="0"/>
        <pt x="-20" y="884" on="1"/>
        <pt x="6" y="884" on="0"/>
        <pt x="41" y="866" on="0"/>
        <pt x="55" y="858" on="1"/>
        <pt x="77" y="844" on="0"/>
        <pt x="107" y="834" on="0"/>
        <pt x="120" y="834" on="1"/>
        <pt x="136" y="834" on="0"/>
        <pt x="164" y="848" on="0"/>
        <pt x="181" y="861" on="1"/>
        <pt x="207" y="827" on="1"/>
        <pt x="192" y="806" on="0"/>
        <pt x="143" y="772" on="0"/>
      </contour>
    </TTGlyph>
    <TTGlyph name="brevetilde.case" xMin="-115" yMin="757" xMax="210" yMax="1054">
      <contour>
        <pt x="112" y="942" on="1"/>
        <pt x="86" y="942" on="0"/>
        <pt x="51" y="960" on="0"/>
        <pt x="37" y="968" on="1"/>
        <pt x="15" y="982" on="0"/>
        <pt x="-15" y="992" on="0"/>
        <pt x="-28" y="992" on="1"/>
        <pt x="-44" y="992" on="0"/>
        <pt x="-71" y="979" on="0"/>
        <pt x="-88" y="966" on="1"/>
        <pt x="-115" y="1003" on="1"/>
        <pt x="-101" y="1023" on="0"/>
        <pt x="-51" y="1054" on="0"/>
        <pt x="-17" y="1054" on="1"/>
        <pt x="9" y="1054" on="0"/>
        <pt x="44" y="1036" on="0"/>
        <pt x="58" y="1028" on="1"/>
        <pt x="80" y="1014" on="0"/>
        <pt x="110" y="1004" on="0"/>
        <pt x="123" y="1004" on="1"/>
        <pt x="139" y="1004" on="0"/>
        <pt x="167" y="1018" on="0"/>
        <pt x="184" y="1031" on="1"/>
        <pt x="210" y="997" on="1"/>
        <pt x="195" y="976" on="0"/>
        <pt x="146" y="942" on="0"/>
      </contour>
      <contour>
        <pt x="17" y="757" on="1"/>
        <pt x="-20" y="757" on="0"/>
        <pt x="-68" y="784" on="0"/>
        <pt x="-97" y="824" on="0"/>
        <pt x="-111" y="871" on="0"/>
        <pt x="-114" y="891" on="1"/>
        <pt x="-68" y="911" on="1"/>
        <pt x="-60" y="889" on="1"/>
        <pt x="-46" y="851" on="0"/>
        <pt x="-11" y="815" on="0"/>
        <pt x="19" y="815" on="1"/>
        <pt x="46" y="815" on="0"/>
        <pt x="95" y="844" on="0"/>
        <pt x="121" y="886" on="1"/>
        <pt x="136" y="911" on="1"/>
        <pt x="184" y="891" on="1"/>
        <pt x="174" y="870" on="0"/>
        <pt x="147" y="823" on="0"/>
        <pt x="107" y="783" on="0"/>
        <pt x="53" y="757" on="0"/>
      </contour>
    </TTGlyph>
    <TTGlyph name="brokenbar" xMin="41" yMin="-138" xMax="288" yMax="760">
      <contour>
        <pt x="150" y="406" on="1"/>
        <pt x="222" y="760" on="1"/>
        <pt x="288" y="760" on="1"/>
        <pt x="216" y="406" on="1"/>
      </contour>
      <contour>
        <pt x="41" y="-138" on="1"/>
        <pt x="113" y="216" on="1"/>
        <pt x="179" y="216" on="1"/>
        <pt x="107" y="-138" on="1"/>
      </contour>
    </TTGlyph>
    <TTGlyph name="bullet" xMin="81" yMin="186" xMax="321" yMax="422">
      <contour>
        <pt x="181" y="186" on="1"/>
        <pt x="130" y="186" on="0"/>
        <pt x="81" y="229" on="0"/>
        <pt x="81" y="264" on="1"/>
        <pt x="81" y="269" on="0"/>
        <pt x="84" y="299" on="0"/>
        <pt x="89" y="321" on="1"/>
        <pt x="98" y="366" on="0"/>
        <pt x="159" y="422" on="0"/>
        <pt x="221" y="422" on="1"/>
        <pt x="272" y="422" on="0"/>
        <pt x="321" y="379" on="0"/>
        <pt x="321" y="344" on="1"/>
        <pt x="321" y="339" on="0"/>
        <pt x="318" y="309" on="0"/>
        <pt x="313" y="287" on="1"/>
        <pt x="304" y="242" on="0"/>
        <pt x="243" y="186" on="0"/>
      </contour>
    </TTGlyph>
    <TTGlyph name="c" xMin="49" yMin="-12" xMax="473" yMax="528">
      <contour>
        <pt x="236" y="-12" on="1"/>
        <pt x="192" y="-12" on="0"/>
        <pt x="123" y="18" on="0"/>
        <pt x="75" y="74" on="0"/>
        <pt x="49" y="151" on="0"/>
        <pt x="49" y="199" on="1"/>
        <pt x="49" y="266" on="0"/>
        <pt x="84" y="386" on="0"/>
        <pt x="150" y="476" on="0"/>
        <pt x="243" y="528" on="0"/>
        <pt x="302" y="528" on="1"/>
        <pt x="371" y="528" on="0"/>
        <pt x="458" y="460" on="0"/>
        <pt x="473" y="407" on="1"/>
        <pt x="409" y="378" on="1"/>
        <pt x="383" y="459" on="0"/>
        <pt x="300" y="459" on="1"/>
        <pt x="238" y="459" on="0"/>
        <pt x="161" y="381" on="0"/>
        <pt x="147" y="312" on="1"/>
        <pt x="130" y="228" on="1"/>
        <pt x="128" y="217" on="0"/>
        <pt x="126" y="192" on="0"/>
        <pt x="126" y="183" on="1"/>
        <pt x="126" y="127" on="0"/>
        <pt x="184" y="57" on="0"/>
        <pt x="244" y="57" on="1"/>
        <pt x="282" y="57" on="0"/>
        <pt x="345" y="100" on="0"/>
        <pt x="376" y="158" on="1"/>
        <pt x="437" y="128" on="1"/>
        <pt x="405" y="61" on="0"/>
        <pt x="303" y="-12" on="0"/>
      </contour>
    </TTGlyph>
    <TTGlyph name="cacute" xMin="49" yMin="-12" xMax="473" yMax="780">
      <component glyphName="c" x="0" y="0" flags="0x204"/>
      <component glyphName="acute" x="16" y="0" flags="0x4"/>
    </TTGlyph>
    <TTGlyph name="caron" xMin="177" yMin="599" xMax="492" yMax="774">
      <contour>
        <pt x="259" y="599" on="1"/>
        <pt x="177" y="742" on="1"/>
        <pt x="221" y="773" on="1"/>
        <pt x="311" y="657" on="1"/>
        <pt x="451" y="774" on="1"/>
        <pt x="492" y="742" on="1"/>
        <pt x="354" y="599" on="1"/>
      </contour>
    </TTGlyph>
    <TTGlyph name="caron.case" xMin="178" yMin="769" xMax="493" yMax="944">
      <contour>
        <pt x="260" y="769" on="1"/>
        <pt x="178" y="912" on="1"/>
        <pt x="222" y="943" on="1"/>
        <pt x="312" y="827" on="1"/>
        <pt x="452" y="944" on="1"/>
        <pt x="493" y="912" on="1"/>
        <pt x="354" y="769" on="1"/>
      </contour>
    </TTGlyph>
    <TTGlyph name="ccaron" xMin="49" yMin="-12" xMax="508" yMax="774">
      <component glyphName="c" x="0" y="0" flags="0x204"/>
      <component glyphName="caron" x="16" y="0" flags="0x4"/>
    </TTGlyph>
    <TTGlyph name="ccedilla" xMin="49" yMin="-207" xMax="473" yMax="528">
      <contour>
        <pt x="302" y="528" on="1"/>
        <pt x="371" y="528" on="0"/>
        <pt x="458" y="460" on="0"/>
        <pt x="473" y="407" on="1"/>
        <pt x="409" y="378" on="1"/>
        <pt x="383" y="459" on="0"/>
        <pt x="300" y="459" on="1"/>
        <pt x="238" y="459" on="0"/>
        <pt x="161" y="381" on="0"/>
        <pt x="147" y="312" on="1"/>
        <pt x="130" y="228" on="1"/>
        <pt x="128" y="217" on="0"/>
        <pt x="126" y="192" on="0"/>
        <pt x="126" y="183" on="1"/>
        <pt x="126" y="127" on="0"/>
        <pt x="184" y="57" on="0"/>
        <pt x="244" y="57" on="1"/>
        <pt x="282" y="57" on="0"/>
        <pt x="345" y="100" on="0"/>
        <pt x="376" y="158" on="1"/>
        <pt x="437" y="128" on="1"/>
        <pt x="407" y="65" on="0"/>
        <pt x="314" y="-6" on="0"/>
        <pt x="254" y="-11" on="1"/>
        <pt x="238" y="-62" on="1"/>
        <pt x="240" y="-64" on="1"/>
        <pt x="245" y="-63" on="0"/>
        <pt x="260" y="-60" on="0"/>
        <pt x="271" y="-60" on="1"/>
        <pt x="296" y="-60" on="0"/>
        <pt x="330" y="-84" on="0"/>
        <pt x="330" y="-116" on="1"/>
        <pt x="330" y="-158" on="0"/>
        <pt x="270" y="-207" on="0"/>
        <pt x="222" y="-207" on="1"/>
        <pt x="184" y="-207" on="0"/>
        <pt x="132" y="-185" on="0"/>
        <pt x="121" y="-170" on="1"/>
        <pt x="161" y="-129" on="1"/>
        <pt x="168" y="-139" on="0"/>
        <pt x="198" y="-154" on="0"/>
        <pt x="220" y="-154" on="1"/>
        <pt x="242" y="-154" on="0"/>
        <pt x="266" y="-134" on="0"/>
        <pt x="266" y="-118" on="1"/>
        <pt x="266" y="-102" on="0"/>
        <pt x="243" y="-83" on="0"/>
        <pt x="211" y="-79" on="1"/>
        <pt x="185" y="-76" on="1"/>
        <pt x="205" y="-10" on="1"/>
        <pt x="131" y="0" on="0"/>
        <pt x="49" y="111" on="0"/>
        <pt x="49" y="199" on="1"/>
        <pt x="49" y="266" on="0"/>
        <pt x="84" y="386" on="0"/>
        <pt x="150" y="476" on="0"/>
        <pt x="243" y="528" on="0"/>
      </contour>
    </TTGlyph>
    <TTGlyph name="ccircumflex" xMin="49" yMin="-12" xMax="476" yMax="765">
      <component glyphName="c" x="0" y="0" flags="0x204"/>
      <component glyphName="circumflex" x="16" y="0" flags="0x4"/>
    </TTGlyph>
    <TTGlyph name="cdotaccent" xMin="49" yMin="-12" xMax="473" yMax="719">
      <component glyphName="c" x="0" y="0" flags="0x204"/>
      <component glyphName="dotaccent" x="16" y="0" flags="0x4"/>
    </TTGlyph>
    <TTGlyph name="cedilla" xMin="178" yMin="-207" xMax="387" yMax="20">
      <contour>
        <pt x="279" y="-207" on="1"/>
        <pt x="241" y="-207" on="0"/>
        <pt x="189" y="-185" on="0"/>
        <pt x="178" y="-170" on="1"/>
        <pt x="218" y="-129" on="1"/>
        <pt x="225" y="-139" on="0"/>
        <pt x="255" y="-154" on="0"/>
        <pt x="277" y="-154" on="1"/>
        <pt x="299" y="-154" on="0"/>
        <pt x="323" y="-134" on="0"/>
        <pt x="323" y="-118" on="1"/>
        <pt x="323" y="-102" on="0"/>
        <pt x="300" y="-83" on="0"/>
        <pt x="268" y="-79" on="1"/>
        <pt x="242" y="-76" on="1"/>
        <pt x="271" y="20" on="1"/>
        <pt x="321" y="20" on="1"/>
        <pt x="295" y="-62" on="1"/>
        <pt x="297" y="-64" on="1"/>
        <pt x="302" y="-63" on="0"/>
        <pt x="317" y="-60" on="0"/>
        <pt x="328" y="-60" on="1"/>
        <pt x="353" y="-60" on="0"/>
        <pt x="387" y="-84" on="0"/>
        <pt x="387" y="-116" on="1"/>
        <pt x="387" y="-158" on="0"/>
        <pt x="327" y="-207" on="0"/>
      </contour>
    </TTGlyph>
    <TTGlyph name="cent" xMin="49" yMin="-114" xMax="475" yMax="630">
      <contour>
        <pt x="178" y="-4" on="1"/>
        <pt x="117" y="13" on="0"/>
        <pt x="49" y="119" on="0"/>
        <pt x="49" y="200" on="1"/>
        <pt x="49" y="263" on="0"/>
        <pt x="81" y="378" on="0"/>
        <pt x="142" y="466" on="0"/>
        <pt x="229" y="522" on="0"/>
        <pt x="284" y="526" on="1"/>
        <pt x="305" y="630" on="1"/>
        <pt x="373" y="630" on="1"/>
        <pt x="351" y="522" on="1"/>
        <pt x="399" y="511" on="0"/>
        <pt x="460" y="452" on="0"/>
        <pt x="475" y="408" on="1"/>
        <pt x="408" y="377" on="1"/>
        <pt x="398" y="409" on="0"/>
        <pt x="364" y="447" on="0"/>
        <pt x="335" y="455" on="1"/>
        <pt x="256" y="55" on="1"/>
        <pt x="292" y="59" on="0"/>
        <pt x="347" y="105" on="0"/>
        <pt x="375" y="158" on="1"/>
        <pt x="436" y="128" on="1"/>
        <pt x="404" y="62" on="0"/>
        <pt x="310" y="-8" on="0"/>
        <pt x="243" y="-12" on="1"/>
        <pt x="223" y="-114" on="1"/>
        <pt x="155" y="-114" on="1"/>
      </contour>
      <contour>
        <pt x="125" y="181" on="1"/>
        <pt x="125" y="139" on="0"/>
        <pt x="158" y="77" on="0"/>
        <pt x="192" y="63" on="1"/>
        <pt x="271" y="456" on="1"/>
        <pt x="220" y="446" on="0"/>
        <pt x="158" y="372" on="0"/>
        <pt x="146" y="312" on="1"/>
        <pt x="129" y="229" on="1"/>
        <pt x="127" y="218" on="0"/>
        <pt x="125" y="192" on="0"/>
      </contour>
    </TTGlyph>
    <TTGlyph name="chi" xMin="-79" yMin="-200" xMax="507" yMax="516">
      <contour>
        <pt x="118" y="516" on="1"/>
        <pt x="176" y="516" on="0"/>
        <pt x="186" y="468" on="1"/>
        <pt x="231" y="234" on="1"/>
        <pt x="236" y="234" on="1"/>
        <pt x="419" y="516" on="1"/>
        <pt x="507" y="516" on="1"/>
        <pt x="266" y="166" on="1"/>
        <pt x="331" y="-132" on="1"/>
        <pt x="399" y="-132" on="1"/>
        <pt x="386" y="-200" on="1"/>
        <pt x="328" y="-200" on="1"/>
        <pt x="270" y="-200" on="0"/>
        <pt x="260" y="-152" on="1"/>
        <pt x="209" y="105" on="1"/>
        <pt x="204" y="105" on="1"/>
        <pt x="9" y="-200" on="1"/>
        <pt x="-79" y="-200" on="1"/>
        <pt x="174" y="173" on="1"/>
        <pt x="115" y="448" on="1"/>
        <pt x="47" y="448" on="1"/>
        <pt x="60" y="516" on="1"/>
      </contour>
    </TTGlyph>
    <TTGlyph name="circumflex" xMin="146" yMin="590" xMax="460" yMax="765">
      <contour>
        <pt x="378" y="765" on="1"/>
        <pt x="460" y="622" on="1"/>
        <pt x="417" y="591" on="1"/>
        <pt x="324" y="706" on="1"/>
        <pt x="185" y="590" on="1"/>
        <pt x="146" y="622" on="1"/>
        <pt x="284" y="765" on="1"/>
      </contour>
    </TTGlyph>
    <TTGlyph name="circumflex.case" xMin="148" yMin="761" xMax="463" yMax="935">
      <contour>
        <pt x="381" y="935" on="1"/>
        <pt x="463" y="792" on="1"/>
        <pt x="420" y="762" on="1"/>
        <pt x="327" y="877" on="1"/>
        <pt x="188" y="761" on="1"/>
        <pt x="148" y="793" on="1"/>
        <pt x="287" y="935" on="1"/>
      </contour>
    </TTGlyph>
    <TTGlyph name="circumflexacute" xMin="-137" yMin="581" xMax="299" yMax="901">
      <contour>
        <pt x="176" y="706" on="1"/>
        <pt x="128" y="731" on="1"/>
        <pt x="231" y="901" on="1"/>
        <pt x="299" y="866" on="1"/>
      </contour>
      <contour>
        <pt x="86" y="745" on="1"/>
        <pt x="170" y="613" on="1"/>
        <pt x="129" y="581" on="1"/>
        <pt x="34" y="693" on="1"/>
        <pt x="-96" y="581" on="1"/>
        <pt x="-137" y="613" on="1"/>
        <pt x="-8" y="745" on="1"/>
      </contour>
    </TTGlyph>
    <TTGlyph name="circumflexacute.case" xMin="-135" yMin="750" xMax="307" yMax="1062">
      <contour>
        <pt x="184" y="867" on="1"/>
        <pt x="135" y="891" on="1"/>
        <pt x="239" y="1062" on="1"/>
        <pt x="307" y="1026" on="1"/>
      </contour>
      <contour>
        <pt x="87" y="915" on="1"/>
        <pt x="172" y="782" on="1"/>
        <pt x="131" y="750" on="1"/>
        <pt x="36" y="863" on="1"/>
        <pt x="-95" y="750" on="1"/>
        <pt x="-135" y="782" on="1"/>
        <pt x="-7" y="915" on="1"/>
      </contour>
    </TTGlyph>
    <TTGlyph name="circumflexbreve" xMin="-134" yMin="584" xMax="198" yMax="898">
      <contour>
        <pt x="79" y="722" on="1"/>
        <pt x="175" y="619" on="1"/>
        <pt x="139" y="584" on="1"/>
        <pt x="28" y="670" on="1"/>
        <pt x="-104" y="584" on="1"/>
        <pt x="-134" y="619" on="1"/>
        <pt x="-10" y="722" on="1"/>
      </contour>
      <contour>
        <pt x="33" y="749" on="1"/>
        <pt x="-4" y="749" on="0"/>
        <pt x="-51" y="775" on="0"/>
        <pt x="-80" y="815" on="0"/>
        <pt x="-93" y="862" on="0"/>
        <pt x="-96" y="882" on="1"/>
        <pt x="-53" y="898" on="1"/>
        <pt x="-43" y="876" on="1"/>
        <pt x="-28" y="842" on="0"/>
        <pt x="4" y="807" on="0"/>
        <pt x="34" y="807" on="1"/>
        <pt x="61" y="807" on="0"/>
        <pt x="106" y="838" on="0"/>
        <pt x="135" y="876" on="1"/>
        <pt x="152" y="898" on="1"/>
        <pt x="198" y="882" on="1"/>
        <pt x="188" y="861" on="0"/>
        <pt x="161" y="815" on="0"/>
        <pt x="122" y="775" on="0"/>
        <pt x="69" y="749" on="0"/>
      </contour>
    </TTGlyph>
    <TTGlyph name="circumflexbreve.case" xMin="-129" yMin="753" xMax="207" yMax="1066">
      <contour>
        <pt x="83" y="891" on="1"/>
        <pt x="179" y="788" on="1"/>
        <pt x="143" y="753" on="1"/>
        <pt x="33" y="840" on="1"/>
        <pt x="-99" y="753" on="1"/>
        <pt x="-129" y="788" on="1"/>
        <pt x="-6" y="891" on="1"/>
      </contour>
      <contour>
        <pt x="42" y="918" on="1"/>
        <pt x="5" y="918" on="0"/>
        <pt x="-42" y="944" on="0"/>
        <pt x="-71" y="983" on="0"/>
        <pt x="-84" y="1029" on="0"/>
        <pt x="-87" y="1049" on="1"/>
        <pt x="-44" y="1065" on="1"/>
        <pt x="-34" y="1041" on="1"/>
        <pt x="-20" y="1008" on="0"/>
        <pt x="13" y="976" on="0"/>
        <pt x="43" y="976" on="1"/>
        <pt x="70" y="976" on="0"/>
        <pt x="118" y="1002" on="0"/>
        <pt x="144" y="1041" on="1"/>
        <pt x="161" y="1066" on="1"/>
        <pt x="207" y="1050" on="1"/>
        <pt x="197" y="1029" on="0"/>
        <pt x="170" y="983" on="0"/>
        <pt x="131" y="944" on="0"/>
        <pt x="78" y="918" on="0"/>
      </contour>
    </TTGlyph>
    <TTGlyph name="circumflexgrave" xMin="-194" yMin="581" xMax="169" yMax="891">
      <contour>
        <pt x="-194" y="860" on="1"/>
        <pt x="-126" y="891" on="1"/>
        <pt x="-65" y="721" on="1"/>
        <pt x="-109" y="700" on="1"/>
      </contour>
      <contour>
        <pt x="85" y="745" on="1"/>
        <pt x="169" y="613" on="1"/>
        <pt x="128" y="581" on="1"/>
        <pt x="33" y="693" on="1"/>
        <pt x="-97" y="581" on="1"/>
        <pt x="-138" y="613" on="1"/>
        <pt x="-9" y="745" on="1"/>
      </contour>
    </TTGlyph>
    <TTGlyph name="circumflexgrave.case" xMin="-200" yMin="750" xMax="171" yMax="1061">
      <contour>
        <pt x="-200" y="1030" on="1"/>
        <pt x="-133" y="1061" on="1"/>
        <pt x="-71" y="891" on="1"/>
        <pt x="-116" y="870" on="1"/>
      </contour>
      <contour>
        <pt x="86" y="915" on="1"/>
        <pt x="171" y="782" on="1"/>
        <pt x="130" y="750" on="1"/>
        <pt x="35" y="863" on="1"/>
        <pt x="-96" y="750" on="1"/>
        <pt x="-136" y="782" on="1"/>
        <pt x="-8" y="915" on="1"/>
      </contour>
    </TTGlyph>
    <TTGlyph name="circumflexhook" xMin="-138" yMin="581" xMax="259" yMax="880">
      <contour>
        <pt x="92" y="880" on="1"/>
        <pt x="199" y="880" on="1"/>
        <pt x="235" y="880" on="0"/>
        <pt x="259" y="849" on="0"/>
        <pt x="259" y="831" on="1"/>
        <pt x="259" y="805" on="0"/>
        <pt x="223" y="754" on="0"/>
        <pt x="198" y="723" on="1"/>
        <pt x="173" y="692" on="1"/>
        <pt x="133" y="715" on="1"/>
        <pt x="203" y="824" on="1"/>
        <pt x="83" y="824" on="1"/>
      </contour>
      <contour>
        <pt x="85" y="745" on="1"/>
        <pt x="169" y="613" on="1"/>
        <pt x="128" y="581" on="1"/>
        <pt x="33" y="693" on="1"/>
        <pt x="-97" y="581" on="1"/>
        <pt x="-138" y="613" on="1"/>
        <pt x="-9" y="745" on="1"/>
      </contour>
    </TTGlyph>
    <TTGlyph name="circumflexhook.case" xMin="-136" yMin="750" xMax="261" yMax="1050">
      <contour>
        <pt x="94" y="1050" on="1"/>
        <pt x="200" y="1050" on="1"/>
        <pt x="237" y="1050" on="0"/>
        <pt x="261" y="1018" on="0"/>
        <pt x="261" y="1001" on="1"/>
        <pt x="261" y="975" on="0"/>
        <pt x="227" y="923" on="0"/>
        <pt x="200" y="892" on="1"/>
        <pt x="173" y="862" on="1"/>
        <pt x="132" y="885" on="1"/>
        <pt x="200" y="994" on="1"/>
        <pt x="84" y="994" on="1"/>
      </contour>
      <contour>
        <pt x="86" y="915" on="1"/>
        <pt x="171" y="782" on="1"/>
        <pt x="130" y="750" on="1"/>
        <pt x="35" y="863" on="1"/>
        <pt x="-96" y="750" on="1"/>
        <pt x="-136" y="782" on="1"/>
        <pt x="-8" y="915" on="1"/>
      </contour>
    </TTGlyph>
    <TTGlyph name="circumflextilde" xMin="-138" yMin="581" xMax="210" yMax="884">
      <contour>
        <pt x="-16" y="884" on="1"/>
        <pt x="9" y="884" on="0"/>
        <pt x="43" y="866" on="0"/>
        <pt x="57" y="858" on="1"/>
        <pt x="79" y="844" on="0"/>
        <pt x="109" y="834" on="0"/>
        <pt x="122" y="834" on="1"/>
        <pt x="138" y="834" on="0"/>
        <pt x="166" y="848" on="0"/>
        <pt x="183" y="861" on="1"/>
        <pt x="210" y="825" on="1"/>
        <pt x="193" y="805" on="0"/>
        <pt x="144" y="772" on="0"/>
        <pt x="110" y="772" on="1"/>
        <pt x="85" y="772" on="0"/>
        <pt x="51" y="790" on="0"/>
        <pt x="37" y="798" on="1"/>
        <pt x="15" y="812" on="0"/>
        <pt x="-15" y="822" on="0"/>
        <pt x="-28" y="822" on="1"/>
        <pt x="-44" y="822" on="0"/>
        <pt x="-72" y="808" on="0"/>
        <pt x="-89" y="795" on="1"/>
        <pt x="-116" y="833" on="1"/>
        <pt x="-99" y="853" on="0"/>
        <pt x="-50" y="884" on="0"/>
      </contour>
      <contour>
        <pt x="85" y="745" on="1"/>
        <pt x="169" y="613" on="1"/>
        <pt x="128" y="581" on="1"/>
        <pt x="33" y="693" on="1"/>
        <pt x="-97" y="581" on="1"/>
        <pt x="-138" y="613" on="1"/>
        <pt x="-9" y="745" on="1"/>
      </contour>
    </TTGlyph>
    <TTGlyph name="circumflextilde.case" xMin="-136" yMin="751" xMax="212" yMax="1054">
      <contour>
        <pt x="-14" y="1054" on="1"/>
        <pt x="11" y="1054" on="0"/>
        <pt x="45" y="1036" on="0"/>
        <pt x="59" y="1028" on="1"/>
        <pt x="81" y="1014" on="0"/>
        <pt x="111" y="1004" on="0"/>
        <pt x="124" y="1004" on="1"/>
        <pt x="140" y="1004" on="0"/>
        <pt x="168" y="1018" on="0"/>
        <pt x="185" y="1031" on="1"/>
        <pt x="212" y="995" on="1"/>
        <pt x="195" y="975" on="0"/>
        <pt x="146" y="942" on="0"/>
        <pt x="112" y="942" on="1"/>
        <pt x="87" y="942" on="0"/>
        <pt x="53" y="960" on="0"/>
        <pt x="39" y="968" on="1"/>
        <pt x="17" y="982" on="0"/>
        <pt x="-13" y="992" on="0"/>
        <pt x="-26" y="992" on="1"/>
        <pt x="-42" y="992" on="0"/>
        <pt x="-70" y="978" on="0"/>
        <pt x="-87" y="965" on="1"/>
        <pt x="-114" y="1003" on="1"/>
        <pt x="-97" y="1023" on="0"/>
        <pt x="-48" y="1054" on="0"/>
      </contour>
      <contour>
        <pt x="87" y="915" on="1"/>
        <pt x="171" y="783" on="1"/>
        <pt x="130" y="751" on="1"/>
        <pt x="35" y="863" on="1"/>
        <pt x="-95" y="751" on="1"/>
        <pt x="-136" y="783" on="1"/>
        <pt x="-7" y="915" on="1"/>
      </contour>
    </TTGlyph>
    <TTGlyph name="colon" xMin="45" yMin="-12" xMax="248" yMax="528">
      <component glyphName="period" x="10" y="0" flags="0x4"/>
      <component glyphName="period" x="93" y="411" flags="0x4"/>
    </TTGlyph>
    <TTGlyph name="comma" xMin="-32" yMin="-133" xMax="153" yMax="117">
      <contour>
        <pt x="102" y="117" on="1"/>
        <pt x="126" y="117" on="0"/>
        <pt x="153" y="97" on="0"/>
        <pt x="153" y="77" on="1"/>
        <pt x="153" y="70" on="0"/>
        <pt x="151" y="54" on="0"/>
        <pt x="149" y="46" on="1"/>
        <pt x="145" y="27" on="0"/>
        <pt x="127" y="-20" on="0"/>
        <pt x="98" y="-68" on="0"/>
        <pt x="58" y="-115" on="0"/>
        <pt x="33" y="-133" on="1"/>
        <pt x="-32" y="-133" on="1"/>
        <pt x="5" y="-101" on="0"/>
        <pt x="50" y="-40" on="0"/>
        <pt x="66" y="-6" on="1"/>
        <pt x="33" y="2" on="0"/>
        <pt x="33" y="31" on="1"/>
        <pt x="33" y="38" on="0"/>
        <pt x="35" y="54" on="0"/>
        <pt x="37" y="62" on="1"/>
        <pt x="41" y="82" on="0"/>
        <pt x="68" y="117" on="0"/>
      </contour>
    </TTGlyph>
    <TTGlyph name="copyright" xMin="67" yMin="-12" xMax="752" yMax="708">
      <contour>
        <pt x="358" y="-12" on="1"/>
        <pt x="292" y="-12" on="0"/>
        <pt x="185" y="32" on="0"/>
        <pt x="109" y="113" on="0"/>
        <pt x="67" y="224" on="0"/>
        <pt x="67" y="292" on="1"/>
        <pt x="67" y="382" on="0"/>
        <pt x="127" y="534" on="0"/>
        <pt x="232" y="645" on="0"/>
        <pt x="377" y="708" on="0"/>
        <pt x="461" y="708" on="1"/>
        <pt x="527" y="708" on="0"/>
        <pt x="634" y="664" on="0"/>
        <pt x="710" y="583" on="0"/>
        <pt x="752" y="471" on="0"/>
        <pt x="752" y="404" on="1"/>
        <pt x="752" y="314" on="0"/>
        <pt x="692" y="162" on="0"/>
        <pt x="587" y="51" on="0"/>
        <pt x="442" y="-12" on="0"/>
      </contour>
      <contour>
        <pt x="362" y="46" on="1"/>
        <pt x="420" y="46" on="0"/>
        <pt x="524" y="85" on="0"/>
        <pt x="606" y="153" on="0"/>
        <pt x="663" y="244" on="0"/>
        <pt x="673" y="296" on="1"/>
        <pt x="679" y="328" on="0"/>
        <pt x="688" y="385" on="0"/>
        <pt x="688" y="404" on="1"/>
        <pt x="688" y="460" on="0"/>
        <pt x="654" y="551" on="0"/>
        <pt x="592" y="615" on="0"/>
        <pt x="508" y="650" on="0"/>
        <pt x="457" y="650" on="1"/>
        <pt x="399" y="650" on="0"/>
        <pt x="295" y="611" on="0"/>
        <pt x="213" y="543" on="0"/>
        <pt x="156" y="452" on="0"/>
        <pt x="146" y="400" on="1"/>
        <pt x="140" y="368" on="0"/>
        <pt x="131" y="311" on="0"/>
        <pt x="131" y="292" on="1"/>
        <pt x="131" y="236" on="0"/>
        <pt x="165" y="145" on="0"/>
        <pt x="227" y="81" on="0"/>
        <pt x="311" y="46" on="0"/>
      </contour>
      <contour>
        <pt x="380" y="155" on="1"/>
        <pt x="319" y="155" on="0"/>
        <pt x="250" y="232" on="0"/>
        <pt x="250" y="301" on="1"/>
        <pt x="250" y="351" on="0"/>
        <pt x="278" y="439" on="0"/>
        <pt x="327" y="505" on="0"/>
        <pt x="397" y="543" on="0"/>
        <pt x="439" y="543" on="1"/>
        <pt x="466" y="543" on="0"/>
        <pt x="509" y="527" on="0"/>
        <pt x="541" y="500" on="0"/>
        <pt x="563" y="466" on="0"/>
        <pt x="568" y="447" on="1"/>
        <pt x="510" y="423" on="1"/>
        <pt x="503" y="452" on="0"/>
        <pt x="465" y="483" on="0"/>
        <pt x="436" y="483" on="1"/>
        <pt x="394" y="483" on="0"/>
        <pt x="345" y="424" on="0"/>
        <pt x="336" y="379" on="1"/>
        <pt x="324" y="320" on="1"/>
        <pt x="321" y="305" on="0"/>
        <pt x="321" y="292" on="1"/>
        <pt x="321" y="258" on="0"/>
        <pt x="356" y="216" on="0"/>
        <pt x="388" y="216" on="1"/>
        <pt x="440" y="216" on="0"/>
        <pt x="487" y="282" on="1"/>
        <pt x="535" y="244" on="1"/>
        <pt x="509" y="206" on="0"/>
        <pt x="431" y="155" on="0"/>
      </contour>
    </TTGlyph>
    <TTGlyph name="currency" xMin="-5" yMin="61" xMax="648" yMax="637">
      <contour>
        <pt x="282" y="119" on="1"/>
        <pt x="240" y="119" on="0"/>
        <pt x="177" y="142" on="0"/>
        <pt x="154" y="164" on="1"/>
        <pt x="38" y="69" on="1"/>
        <pt x="-5" y="121" on="1"/>
        <pt x="117" y="221" on="1"/>
        <pt x="105" y="252" on="0"/>
        <pt x="105" y="293" on="1"/>
        <pt x="105" y="322" on="0"/>
        <pt x="111" y="354" on="1"/>
        <pt x="119" y="393" on="0"/>
        <pt x="148" y="462" on="0"/>
        <pt x="168" y="487" on="1"/>
        <pt x="83" y="593" on="1"/>
        <pt x="137" y="637" on="1"/>
        <pt x="219" y="536" on="1"/>
        <pt x="280" y="579" on="0"/>
        <pt x="363" y="579" on="1"/>
        <pt x="405" y="579" on="0"/>
        <pt x="466" y="556" on="0"/>
        <pt x="489" y="534" on="1"/>
        <pt x="605" y="629" on="1"/>
        <pt x="648" y="577" on="1"/>
        <pt x="526" y="477" on="1"/>
        <pt x="538" y="445" on="0"/>
        <pt x="538" y="405" on="1"/>
        <pt x="538" y="375" on="0"/>
        <pt x="532" y="344" on="1"/>
        <pt x="524" y="305" on="0"/>
        <pt x="495" y="236" on="0"/>
        <pt x="475" y="211" on="1"/>
        <pt x="560" y="105" on="1"/>
        <pt x="506" y="61" on="1"/>
        <pt x="424" y="162" on="1"/>
        <pt x="363" y="119" on="0"/>
      </contour>
      <contour>
        <pt x="289" y="186" on="1"/>
        <pt x="347" y="186" on="0"/>
        <pt x="430" y="251" on="0"/>
        <pt x="444" y="317" on="1"/>
        <pt x="457" y="381" on="1"/>
        <pt x="459" y="391" on="0"/>
        <pt x="461" y="411" on="0"/>
        <pt x="461" y="419" on="1"/>
        <pt x="461" y="467" on="0"/>
        <pt x="403" y="512" on="0"/>
        <pt x="354" y="512" on="1"/>
        <pt x="296" y="512" on="0"/>
        <pt x="213" y="447" on="0"/>
        <pt x="199" y="381" on="1"/>
        <pt x="186" y="317" on="1"/>
        <pt x="184" y="307" on="0"/>
        <pt x="182" y="287" on="0"/>
        <pt x="182" y="279" on="1"/>
        <pt x="182" y="231" on="0"/>
        <pt x="240" y="186" on="0"/>
      </contour>
    </TTGlyph>
    <TTGlyph name="d" xMin="51" yMin="-12" xMax="581" yMax="740">
      <contour>
        <pt x="437" y="0" on="1"/>
        <pt x="403" y="0" on="0"/>
        <pt x="370" y="34" on="0"/>
        <pt x="370" y="62" on="1"/>
        <pt x="370" y="74" on="0"/>
        <pt x="373" y="89" on="1"/>
        <pt x="378" y="112" on="1"/>
        <pt x="375" y="112" on="1"/>
        <pt x="343" y="47" on="0"/>
        <pt x="265" y="-12" on="0"/>
        <pt x="208" y="-12" on="1"/>
        <pt x="137" y="-12" on="0"/>
        <pt x="51" y="93" on="0"/>
        <pt x="51" y="185" on="1"/>
        <pt x="51" y="242" on="0"/>
        <pt x="82" y="363" on="0"/>
        <pt x="144" y="464" on="0"/>
        <pt x="239" y="528" on="0"/>
        <pt x="303" y="528" on="1"/>
        <pt x="326" y="528" on="0"/>
        <pt x="370" y="516" on="0"/>
        <pt x="406" y="492" on="0"/>
        <pt x="432" y="456" on="0"/>
        <pt x="438" y="432" on="1"/>
        <pt x="442" y="432" on="1"/>
        <pt x="504" y="740" on="1"/>
        <pt x="581" y="740" on="1"/>
        <pt x="446" y="68" on="1"/>
        <pt x="519" y="68" on="1"/>
        <pt x="506" y="0" on="1"/>
      </contour>
      <contour>
        <pt x="229" y="58" on="1"/>
        <pt x="263" y="58" on="0"/>
        <pt x="314" y="86" on="0"/>
        <pt x="337" y="109" on="1"/>
        <pt x="362" y="134" on="0"/>
        <pt x="394" y="194" on="0"/>
        <pt x="402" y="233" on="1"/>
        <pt x="423" y="338" on="1"/>
        <pt x="428" y="362" on="0"/>
        <pt x="420" y="405" on="0"/>
        <pt x="392" y="438" on="0"/>
        <pt x="344" y="458" on="0"/>
        <pt x="310" y="458" on="1"/>
        <pt x="247" y="458" on="0"/>
        <pt x="165" y="376" on="0"/>
        <pt x="150" y="301" on="1"/>
        <pt x="135" y="226" on="1"/>
        <pt x="130" y="198" on="0"/>
        <pt x="130" y="175" on="1"/>
        <pt x="130" y="124" on="0"/>
        <pt x="177" y="58" on="0"/>
      </contour>
    </TTGlyph>
    <TTGlyph name="dagger" xMin="90" yMin="-200" xMax="535" yMax="740">
      <contour>
        <pt x="142" y="-200" on="1"/>
        <pt x="272" y="453" on="1"/>
        <pt x="90" y="453" on="1"/>
        <pt x="102" y="516" on="1"/>
        <pt x="285" y="516" on="1"/>
        <pt x="330" y="740" on="1"/>
        <pt x="396" y="740" on="1"/>
        <pt x="351" y="516" on="1"/>
        <pt x="535" y="516" on="1"/>
        <pt x="523" y="453" on="1"/>
        <pt x="338" y="453" on="1"/>
        <pt x="208" y="-200" on="1"/>
      </contour>
    </TTGlyph>
    <TTGlyph name="daggerdbl" xMin="3" yMin="-200" xMax="535" yMax="740">
      <contour>
        <pt x="142" y="-200" on="1"/>
        <pt x="187" y="24" on="1"/>
        <pt x="3" y="24" on="1"/>
        <pt x="15" y="87" on="1"/>
        <pt x="199" y="87" on="1"/>
        <pt x="272" y="453" on="1"/>
        <pt x="90" y="453" on="1"/>
        <pt x="102" y="516" on="1"/>
        <pt x="285" y="516" on="1"/>
        <pt x="330" y="740" on="1"/>
        <pt x="396" y="740" on="1"/>
        <pt x="351" y="516" on="1"/>
        <pt x="535" y="516" on="1"/>
        <pt x="523" y="453" on="1"/>
        <pt x="338" y="453" on="1"/>
        <pt x="265" y="87" on="1"/>
        <pt x="448" y="87" on="1"/>
        <pt x="436" y="24" on="1"/>
        <pt x="253" y="24" on="1"/>
        <pt x="208" y="-200" on="1"/>
      </contour>
    </TTGlyph>
    <TTGlyph name="dcaron" xMin="51" yMin="-12" xMax="739" yMax="740">
      <component glyphName="d" x="0" y="0" flags="0x4"/>
      <component glyphName="uni02BC" x="352" y="0" flags="0x4"/>
    </TTGlyph>
    <TTGlyph name="dcroat" xMin="51" yMin="-12" xMax="626" yMax="740">
      <contour>
        <pt x="437" y="0" on="1"/>
        <pt x="403" y="0" on="0"/>
        <pt x="370" y="34" on="0"/>
        <pt x="370" y="62" on="1"/>
        <pt x="370" y="74" on="0"/>
        <pt x="373" y="89" on="1"/>
        <pt x="378" y="112" on="1"/>
        <pt x="375" y="112" on="1"/>
        <pt x="343" y="47" on="0"/>
        <pt x="265" y="-12" on="0"/>
        <pt x="208" y="-12" on="1"/>
        <pt x="137" y="-12" on="0"/>
        <pt x="51" y="93" on="0"/>
        <pt x="51" y="185" on="1"/>
        <pt x="51" y="242" on="0"/>
        <pt x="82" y="363" on="0"/>
        <pt x="144" y="464" on="0"/>
        <pt x="239" y="528" on="0"/>
        <pt x="303" y="528" on="1"/>
        <pt x="326" y="528" on="0"/>
        <pt x="370" y="516" on="0"/>
        <pt x="406" y="492" on="0"/>
        <pt x="432" y="456" on="0"/>
        <pt x="438" y="432" on="1"/>
        <pt x="442" y="432" on="1"/>
        <pt x="477" y="609" on="1"/>
        <pt x="331" y="609" on="1"/>
        <pt x="343" y="669" on="1"/>
        <pt x="489" y="669" on="1"/>
        <pt x="504" y="740" on="1"/>
        <pt x="581" y="740" on="1"/>
        <pt x="566" y="669" on="1"/>
        <pt x="626" y="669" on="1"/>
        <pt x="614" y="609" on="1"/>
        <pt x="554" y="609" on="1"/>
        <pt x="446" y="68" on="1"/>
        <pt x="519" y="68" on="1"/>
        <pt x="506" y="0" on="1"/>
      </contour>
      <contour>
        <pt x="229" y="58" on="1"/>
        <pt x="263" y="58" on="0"/>
        <pt x="314" y="86" on="0"/>
        <pt x="337" y="109" on="1"/>
        <pt x="362" y="134" on="0"/>
        <pt x="394" y="194" on="0"/>
        <pt x="402" y="233" on="1"/>
        <pt x="423" y="338" on="1"/>
        <pt x="428" y="362" on="0"/>
        <pt x="420" y="405" on="0"/>
        <pt x="392" y="438" on="0"/>
        <pt x="344" y="458" on="0"/>
        <pt x="310" y="458" on="1"/>
        <pt x="247" y="458" on="0"/>
        <pt x="165" y="376" on="0"/>
        <pt x="150" y="301" on="1"/>
        <pt x="135" y="226" on="1"/>
        <pt x="130" y="198" on="0"/>
        <pt x="130" y="175" on="1"/>
        <pt x="130" y="124" on="0"/>
        <pt x="177" y="58" on="0"/>
      </contour>
    </TTGlyph>
    <TTGlyph name="degree" xMin="119" yMin="366" xMax="447" yMax="710">
      <contour>
        <pt x="263" y="366" on="1"/>
        <pt x="233" y="366" on="0"/>
        <pt x="180" y="388" on="0"/>
        <pt x="141" y="428" on="0"/>
        <pt x="119" y="483" on="0"/>
        <pt x="119" y="517" on="1"/>
        <pt x="119" y="558" on="0"/>
        <pt x="146" y="629" on="0"/>
        <pt x="195" y="681" on="0"/>
        <pt x="262" y="710" on="0"/>
        <pt x="303" y="710" on="1"/>
        <pt x="333" y="710" on="0"/>
        <pt x="385" y="688" on="0"/>
        <pt x="424" y="649" on="0"/>
        <pt x="447" y="593" on="0"/>
        <pt x="447" y="560" on="1"/>
        <pt x="447" y="518" on="0"/>
        <pt x="420" y="447" on="0"/>
        <pt x="371" y="395" on="0"/>
        <pt x="303" y="366" on="0"/>
      </contour>
      <contour>
        <pt x="272" y="430" on="1"/>
        <pt x="297" y="430" on="0"/>
        <pt x="336" y="450" on="0"/>
        <pt x="364" y="484" on="0"/>
        <pt x="379" y="531" on="0"/>
        <pt x="379" y="557" on="1"/>
        <pt x="379" y="594" on="0"/>
        <pt x="333" y="646" on="0"/>
        <pt x="294" y="646" on="1"/>
        <pt x="269" y="646" on="0"/>
        <pt x="230" y="626" on="0"/>
        <pt x="202" y="591" on="0"/>
        <pt x="187" y="545" on="0"/>
        <pt x="187" y="519" on="1"/>
        <pt x="187" y="482" on="0"/>
        <pt x="233" y="430" on="0"/>
      </contour>
    </TTGlyph>
    <TTGlyph name="delta" xMin="49" yMin="-12" xMax="560" yMax="740">
      <contour>
        <pt x="341" y="672" on="1"/>
        <pt x="258" y="677" on="1"/>
        <pt x="257" y="673" on="1"/>
        <pt x="360" y="580" on="1"/>
        <pt x="399" y="545" on="0"/>
        <pt x="453" y="483" on="0"/>
        <pt x="486" y="423" on="0"/>
        <pt x="501" y="358" on="0"/>
        <pt x="501" y="320" on="1"/>
        <pt x="501" y="253" on="0"/>
        <pt x="462" y="132" on="0"/>
        <pt x="391" y="41" on="0"/>
        <pt x="293" y="-12" on="0"/>
        <pt x="235" y="-12" on="1"/>
        <pt x="194" y="-12" on="0"/>
        <pt x="126" y="15" on="0"/>
        <pt x="77" y="68" on="0"/>
        <pt x="49" y="147" on="0"/>
        <pt x="49" y="200" on="1"/>
        <pt x="49" y="263" on="0"/>
        <pt x="89" y="377" on="0"/>
        <pt x="161" y="464" on="0"/>
        <pt x="261" y="516" on="0"/>
        <pt x="320" y="516" on="1"/>
        <pt x="321" y="521" on="1"/>
        <pt x="311" y="531" on="1"/>
        <pt x="186" y="651" on="1"/>
        <pt x="203" y="740" on="1"/>
        <pt x="560" y="740" on="1"/>
        <pt x="546" y="672" on="1"/>
      </contour>
      <contour>
        <pt x="423" y="331" on="1"/>
        <pt x="423" y="372" on="0"/>
        <pt x="394" y="442" on="0"/>
        <pt x="354" y="488" on="1"/>
        <pt x="312" y="483" on="0"/>
        <pt x="244" y="450" on="0"/>
        <pt x="190" y="397" on="0"/>
        <pt x="152" y="326" on="0"/>
        <pt x="142" y="283" on="1"/>
        <pt x="134" y="247" on="0"/>
        <pt x="125" y="192" on="0"/>
        <pt x="125" y="178" on="1"/>
        <pt x="125" y="124" on="0"/>
        <pt x="186" y="57" on="0"/>
        <pt x="245" y="57" on="1"/>
        <pt x="301" y="57" on="0"/>
        <pt x="384" y="134" on="0"/>
        <pt x="401" y="201" on="1"/>
        <pt x="411" y="238" on="0"/>
        <pt x="423" y="310" on="0"/>
      </contour>
    </TTGlyph>
    <TTGlyph name="dieresis" xMin="175" yMin="618" xMax="458" yMax="721">
      <contour>
        <pt x="217" y="618" on="1"/>
        <pt x="197" y="618" on="0"/>
        <pt x="175" y="636" on="0"/>
        <pt x="175" y="653" on="1"/>
        <pt x="175" y="657" on="0"/>
        <pt x="176" y="666" on="0"/>
        <pt x="178" y="674" on="1"/>
        <pt x="187" y="721" on="0"/>
        <pt x="234" y="721" on="1"/>
        <pt x="254" y="721" on="0"/>
        <pt x="276" y="703" on="0"/>
        <pt x="276" y="686" on="1"/>
        <pt x="276" y="681" on="0"/>
        <pt x="273" y="665" on="1"/>
        <pt x="264" y="618" on="0"/>
      </contour>
      <contour>
        <pt x="399" y="618" on="1"/>
        <pt x="379" y="618" on="0"/>
        <pt x="357" y="636" on="0"/>
        <pt x="357" y="653" on="1"/>
        <pt x="357" y="657" on="0"/>
        <pt x="358" y="666" on="0"/>
        <pt x="360" y="674" on="1"/>
        <pt x="369" y="721" on="0"/>
        <pt x="416" y="721" on="1"/>
        <pt x="436" y="721" on="0"/>
        <pt x="458" y="703" on="0"/>
        <pt x="458" y="686" on="1"/>
        <pt x="458" y="681" on="0"/>
        <pt x="455" y="665" on="1"/>
        <pt x="446" y="618" on="0"/>
      </contour>
    </TTGlyph>
    <TTGlyph name="dieresis.case" xMin="175" yMin="787" xMax="458" yMax="892">
      <contour>
        <pt x="217" y="787" on="1"/>
        <pt x="197" y="787" on="0"/>
        <pt x="175" y="805" on="0"/>
        <pt x="175" y="822" on="1"/>
        <pt x="175" y="827" on="0"/>
        <pt x="178" y="845" on="1"/>
        <pt x="187" y="892" on="0"/>
        <pt x="234" y="892" on="1"/>
        <pt x="254" y="892" on="0"/>
        <pt x="276" y="874" on="0"/>
        <pt x="276" y="857" on="1"/>
        <pt x="276" y="852" on="0"/>
        <pt x="273" y="834" on="1"/>
        <pt x="264" y="787" on="0"/>
      </contour>
      <contour>
        <pt x="399" y="787" on="1"/>
        <pt x="379" y="787" on="0"/>
        <pt x="357" y="805" on="0"/>
        <pt x="357" y="822" on="1"/>
        <pt x="357" y="827" on="0"/>
        <pt x="360" y="845" on="1"/>
        <pt x="369" y="892" on="0"/>
        <pt x="416" y="892" on="1"/>
        <pt x="436" y="892" on="0"/>
        <pt x="458" y="874" on="0"/>
        <pt x="458" y="857" on="1"/>
        <pt x="458" y="852" on="0"/>
        <pt x="455" y="834" on="1"/>
        <pt x="446" y="787" on="0"/>
      </contour>
    </TTGlyph>
    <TTGlyph name="dieresisacute" xMin="-116" yMin="597" xMax="166" yMax="892">
      <contour>
        <pt x="38" y="697" on="1"/>
        <pt x="-9" y="722" on="1"/>
        <pt x="95" y="892" on="1"/>
        <pt x="161" y="857" on="1"/>
      </contour>
      <contour>
        <pt x="-74" y="597" on="1"/>
        <pt x="-97" y="597" on="0"/>
        <pt x="-116" y="618" on="0"/>
        <pt x="-116" y="632" on="1"/>
        <pt x="-116" y="635" on="0"/>
        <pt x="-115" y="646" on="0"/>
        <pt x="-112" y="660" on="1"/>
        <pt x="-108" y="679" on="0"/>
        <pt x="-83" y="700" on="0"/>
        <pt x="-58" y="700" on="1"/>
        <pt x="-35" y="700" on="0"/>
        <pt x="-16" y="679" on="0"/>
        <pt x="-16" y="665" on="1"/>
        <pt x="-16" y="662" on="0"/>
        <pt x="-17" y="651" on="0"/>
        <pt x="-20" y="637" on="1"/>
        <pt x="-24" y="618" on="0"/>
        <pt x="-49" y="597" on="0"/>
      </contour>
      <contour>
        <pt x="108" y="597" on="1"/>
        <pt x="85" y="597" on="0"/>
        <pt x="66" y="618" on="0"/>
        <pt x="66" y="632" on="1"/>
        <pt x="66" y="635" on="0"/>
        <pt x="67" y="646" on="0"/>
        <pt x="70" y="660" on="1"/>
        <pt x="74" y="679" on="0"/>
        <pt x="99" y="700" on="0"/>
        <pt x="124" y="700" on="1"/>
        <pt x="147" y="700" on="0"/>
        <pt x="166" y="679" on="0"/>
        <pt x="166" y="665" on="1"/>
        <pt x="166" y="662" on="0"/>
        <pt x="165" y="651" on="0"/>
        <pt x="162" y="637" on="1"/>
        <pt x="158" y="618" on="0"/>
        <pt x="133" y="597" on="0"/>
      </contour>
    </TTGlyph>
    <TTGlyph name="dieresisacute.case" xMin="-113" yMin="767" xMax="169" yMax="1062">
      <contour>
        <pt x="41" y="867" on="1"/>
        <pt x="-6" y="892" on="1"/>
        <pt x="98" y="1062" on="1"/>
        <pt x="164" y="1027" on="1"/>
      </contour>
      <contour>
        <pt x="-71" y="767" on="1"/>
        <pt x="-94" y="767" on="0"/>
        <pt x="-113" y="788" on="0"/>
        <pt x="-113" y="802" on="1"/>
        <pt x="-113" y="805" on="0"/>
        <pt x="-112" y="816" on="0"/>
        <pt x="-109" y="830" on="1"/>
        <pt x="-105" y="849" on="0"/>
        <pt x="-80" y="870" on="0"/>
        <pt x="-55" y="870" on="1"/>
        <pt x="-32" y="870" on="0"/>
        <pt x="-13" y="849" on="0"/>
        <pt x="-13" y="835" on="1"/>
        <pt x="-13" y="832" on="0"/>
        <pt x="-14" y="821" on="0"/>
        <pt x="-17" y="807" on="1"/>
        <pt x="-21" y="788" on="0"/>
        <pt x="-46" y="767" on="0"/>
      </contour>
      <contour>
        <pt x="111" y="767" on="1"/>
        <pt x="88" y="767" on="0"/>
        <pt x="69" y="788" on="0"/>
        <pt x="69" y="802" on="1"/>
        <pt x="69" y="805" on="0"/>
        <pt x="70" y="816" on="0"/>
        <pt x="73" y="830" on="1"/>
        <pt x="77" y="849" on="0"/>
        <pt x="102" y="870" on="0"/>
        <pt x="127" y="870" on="1"/>
        <pt x="150" y="870" on="0"/>
        <pt x="169" y="849" on="0"/>
        <pt x="169" y="835" on="1"/>
        <pt x="169" y="832" on="0"/>
        <pt x="168" y="821" on="0"/>
        <pt x="165" y="807" on="1"/>
        <pt x="161" y="788" on="0"/>
        <pt x="136" y="767" on="0"/>
      </contour>
    </TTGlyph>
    <TTGlyph name="dieresiscaron" xMin="-116" yMin="597" xMax="209" yMax="891">
      <contour>
        <pt x="-14" y="725" on="1"/>
        <pt x="-106" y="859" on="1"/>
        <pt x="-59" y="891" on="1"/>
        <pt x="38" y="777" on="1"/>
        <pt x="168" y="891" on="1"/>
        <pt x="209" y="859" on="1"/>
        <pt x="83" y="725" on="1"/>
      </contour>
      <contour>
        <pt x="-74" y="597" on="1"/>
        <pt x="-97" y="597" on="0"/>
        <pt x="-116" y="618" on="0"/>
        <pt x="-116" y="632" on="1"/>
        <pt x="-116" y="635" on="0"/>
        <pt x="-115" y="646" on="0"/>
        <pt x="-112" y="660" on="1"/>
        <pt x="-108" y="679" on="0"/>
        <pt x="-83" y="700" on="0"/>
        <pt x="-58" y="700" on="1"/>
        <pt x="-35" y="700" on="0"/>
        <pt x="-16" y="679" on="0"/>
        <pt x="-16" y="665" on="1"/>
        <pt x="-16" y="662" on="0"/>
        <pt x="-17" y="651" on="0"/>
        <pt x="-20" y="637" on="1"/>
        <pt x="-24" y="618" on="0"/>
        <pt x="-49" y="597" on="0"/>
      </contour>
      <contour>
        <pt x="108" y="597" on="1"/>
        <pt x="85" y="597" on="0"/>
        <pt x="66" y="618" on="0"/>
        <pt x="66" y="632" on="1"/>
        <pt x="66" y="635" on="0"/>
        <pt x="67" y="646" on="0"/>
        <pt x="70" y="660" on="1"/>
        <pt x="74" y="679" on="0"/>
        <pt x="99" y="700" on="0"/>
        <pt x="124" y="700" on="1"/>
        <pt x="147" y="700" on="0"/>
        <pt x="166" y="679" on="0"/>
        <pt x="166" y="665" on="1"/>
        <pt x="166" y="662" on="0"/>
        <pt x="165" y="651" on="0"/>
        <pt x="162" y="637" on="1"/>
        <pt x="158" y="618" on="0"/>
        <pt x="133" y="597" on="0"/>
      </contour>
    </TTGlyph>
    <TTGlyph name="dieresiscaron.case" xMin="-113" yMin="767" xMax="212" yMax="1061">
      <contour>
        <pt x="-11" y="895" on="1"/>
        <pt x="-103" y="1029" on="1"/>
        <pt x="-56" y="1061" on="1"/>
        <pt x="41" y="947" on="1"/>
        <pt x="171" y="1061" on="1"/>
        <pt x="212" y="1029" on="1"/>
        <pt x="86" y="895" on="1"/>
      </contour>
      <contour>
        <pt x="-71" y="767" on="1"/>
        <pt x="-94" y="767" on="0"/>
        <pt x="-113" y="788" on="0"/>
        <pt x="-113" y="802" on="1"/>
        <pt x="-113" y="805" on="0"/>
        <pt x="-112" y="816" on="0"/>
        <pt x="-109" y="830" on="1"/>
        <pt x="-105" y="849" on="0"/>
        <pt x="-80" y="870" on="0"/>
        <pt x="-55" y="870" on="1"/>
        <pt x="-32" y="870" on="0"/>
        <pt x="-13" y="849" on="0"/>
        <pt x="-13" y="835" on="1"/>
        <pt x="-13" y="832" on="0"/>
        <pt x="-14" y="821" on="0"/>
        <pt x="-17" y="807" on="1"/>
        <pt x="-21" y="788" on="0"/>
        <pt x="-46" y="767" on="0"/>
      </contour>
      <contour>
        <pt x="111" y="767" on="1"/>
        <pt x="88" y="767" on="0"/>
        <pt x="69" y="788" on="0"/>
        <pt x="69" y="802" on="1"/>
        <pt x="69" y="805" on="0"/>
        <pt x="70" y="816" on="0"/>
        <pt x="73" y="830" on="1"/>
        <pt x="77" y="849" on="0"/>
        <pt x="102" y="870" on="0"/>
        <pt x="127" y="870" on="1"/>
        <pt x="150" y="870" on="0"/>
        <pt x="169" y="849" on="0"/>
        <pt x="169" y="835" on="1"/>
        <pt x="169" y="832" on="0"/>
        <pt x="168" y="821" on="0"/>
        <pt x="165" y="807" on="1"/>
        <pt x="161" y="788" on="0"/>
        <pt x="136" y="767" on="0"/>
      </contour>
    </TTGlyph>
    <TTGlyph name="dieresisgrave" xMin="-116" yMin="597" xMax="166" yMax="906">
      <contour>
        <pt x="-58" y="874" on="1"/>
        <pt x="9" y="906" on="1"/>
        <pt x="70" y="735" on="1"/>
        <pt x="26" y="715" on="1"/>
      </contour>
      <contour>
        <pt x="-74" y="597" on="1"/>
        <pt x="-97" y="597" on="0"/>
        <pt x="-116" y="618" on="0"/>
        <pt x="-116" y="632" on="1"/>
        <pt x="-116" y="635" on="0"/>
        <pt x="-115" y="646" on="0"/>
        <pt x="-112" y="660" on="1"/>
        <pt x="-108" y="679" on="0"/>
        <pt x="-83" y="700" on="0"/>
        <pt x="-58" y="700" on="1"/>
        <pt x="-35" y="700" on="0"/>
        <pt x="-16" y="679" on="0"/>
        <pt x="-16" y="665" on="1"/>
        <pt x="-16" y="662" on="0"/>
        <pt x="-17" y="651" on="0"/>
        <pt x="-20" y="637" on="1"/>
        <pt x="-24" y="618" on="0"/>
        <pt x="-49" y="597" on="0"/>
      </contour>
      <contour>
        <pt x="108" y="597" on="1"/>
        <pt x="85" y="597" on="0"/>
        <pt x="66" y="618" on="0"/>
        <pt x="66" y="632" on="1"/>
        <pt x="66" y="635" on="0"/>
        <pt x="67" y="646" on="0"/>
        <pt x="70" y="660" on="1"/>
        <pt x="74" y="679" on="0"/>
        <pt x="99" y="700" on="0"/>
        <pt x="124" y="700" on="1"/>
        <pt x="147" y="700" on="0"/>
        <pt x="166" y="679" on="0"/>
        <pt x="166" y="665" on="1"/>
        <pt x="166" y="662" on="0"/>
        <pt x="165" y="651" on="0"/>
        <pt x="162" y="637" on="1"/>
        <pt x="158" y="618" on="0"/>
        <pt x="133" y="597" on="0"/>
      </contour>
    </TTGlyph>
    <TTGlyph name="dieresisgrave.case" xMin="-113" yMin="767" xMax="169" yMax="1061">
      <contour>
        <pt x="-59" y="1029" on="1"/>
        <pt x="8" y="1061" on="1"/>
        <pt x="69" y="888" on="1"/>
        <pt x="25" y="868" on="1"/>
      </contour>
      <contour>
        <pt x="-71" y="767" on="1"/>
        <pt x="-94" y="767" on="0"/>
        <pt x="-113" y="788" on="0"/>
        <pt x="-113" y="802" on="1"/>
        <pt x="-113" y="805" on="0"/>
        <pt x="-112" y="816" on="0"/>
        <pt x="-109" y="830" on="1"/>
        <pt x="-105" y="849" on="0"/>
        <pt x="-80" y="870" on="0"/>
        <pt x="-55" y="870" on="1"/>
        <pt x="-32" y="870" on="0"/>
        <pt x="-13" y="849" on="0"/>
        <pt x="-13" y="835" on="1"/>
        <pt x="-13" y="832" on="0"/>
        <pt x="-14" y="821" on="0"/>
        <pt x="-17" y="807" on="1"/>
        <pt x="-21" y="788" on="0"/>
        <pt x="-46" y="767" on="0"/>
      </contour>
      <contour>
        <pt x="111" y="767" on="1"/>
        <pt x="88" y="767" on="0"/>
        <pt x="69" y="788" on="0"/>
        <pt x="69" y="802" on="1"/>
        <pt x="69" y="805" on="0"/>
        <pt x="70" y="816" on="0"/>
        <pt x="73" y="830" on="1"/>
        <pt x="77" y="849" on="0"/>
        <pt x="102" y="870" on="0"/>
        <pt x="127" y="870" on="1"/>
        <pt x="150" y="870" on="0"/>
        <pt x="169" y="849" on="0"/>
        <pt x="169" y="835" on="1"/>
        <pt x="169" y="832" on="0"/>
        <pt x="168" y="821" on="0"/>
        <pt x="165" y="807" on="1"/>
        <pt x="161" y="788" on="0"/>
        <pt x="136" y="767" on="0"/>
      </contour>
    </TTGlyph>
    <TTGlyph name="dieresismacron" xMin="-116" yMin="597" xMax="193" yMax="817">
      <contour>
        <pt x="-79" y="817" on="1"/>
        <pt x="193" y="817" on="1"/>
        <pt x="179" y="751" on="1"/>
        <pt x="-93" y="751" on="1"/>
      </contour>
      <contour>
        <pt x="-74" y="597" on="1"/>
        <pt x="-97" y="597" on="0"/>
        <pt x="-116" y="618" on="0"/>
        <pt x="-116" y="632" on="1"/>
        <pt x="-116" y="635" on="0"/>
        <pt x="-115" y="646" on="0"/>
        <pt x="-112" y="660" on="1"/>
        <pt x="-108" y="679" on="0"/>
        <pt x="-83" y="700" on="0"/>
        <pt x="-58" y="700" on="1"/>
        <pt x="-35" y="700" on="0"/>
        <pt x="-16" y="679" on="0"/>
        <pt x="-16" y="665" on="1"/>
        <pt x="-16" y="662" on="0"/>
        <pt x="-17" y="651" on="0"/>
        <pt x="-20" y="637" on="1"/>
        <pt x="-24" y="618" on="0"/>
        <pt x="-49" y="597" on="0"/>
      </contour>
      <contour>
        <pt x="108" y="597" on="1"/>
        <pt x="85" y="597" on="0"/>
        <pt x="66" y="618" on="0"/>
        <pt x="66" y="632" on="1"/>
        <pt x="66" y="635" on="0"/>
        <pt x="67" y="646" on="0"/>
        <pt x="70" y="660" on="1"/>
        <pt x="74" y="679" on="0"/>
        <pt x="99" y="700" on="0"/>
        <pt x="124" y="700" on="1"/>
        <pt x="147" y="700" on="0"/>
        <pt x="166" y="679" on="0"/>
        <pt x="166" y="665" on="1"/>
        <pt x="166" y="662" on="0"/>
        <pt x="165" y="651" on="0"/>
        <pt x="162" y="637" on="1"/>
        <pt x="158" y="618" on="0"/>
        <pt x="133" y="597" on="0"/>
      </contour>
    </TTGlyph>
    <TTGlyph name="dieresismacron.case" xMin="-113" yMin="767" xMax="196" yMax="987">
      <contour>
        <pt x="-76" y="987" on="1"/>
        <pt x="196" y="987" on="1"/>
        <pt x="182" y="921" on="1"/>
        <pt x="-90" y="921" on="1"/>
      </contour>
      <contour>
        <pt x="-71" y="767" on="1"/>
        <pt x="-94" y="767" on="0"/>
        <pt x="-113" y="788" on="0"/>
        <pt x="-113" y="802" on="1"/>
        <pt x="-113" y="805" on="0"/>
        <pt x="-112" y="816" on="0"/>
        <pt x="-109" y="830" on="1"/>
        <pt x="-105" y="849" on="0"/>
        <pt x="-80" y="870" on="0"/>
        <pt x="-55" y="870" on="1"/>
        <pt x="-32" y="870" on="0"/>
        <pt x="-13" y="849" on="0"/>
        <pt x="-13" y="835" on="1"/>
        <pt x="-13" y="832" on="0"/>
        <pt x="-14" y="821" on="0"/>
        <pt x="-17" y="807" on="1"/>
        <pt x="-21" y="788" on="0"/>
        <pt x="-46" y="767" on="0"/>
      </contour>
      <contour>
        <pt x="111" y="767" on="1"/>
        <pt x="88" y="767" on="0"/>
        <pt x="69" y="788" on="0"/>
        <pt x="69" y="802" on="1"/>
        <pt x="69" y="805" on="0"/>
        <pt x="70" y="816" on="0"/>
        <pt x="73" y="830" on="1"/>
        <pt x="77" y="849" on="0"/>
        <pt x="102" y="870" on="0"/>
        <pt x="127" y="870" on="1"/>
        <pt x="150" y="870" on="0"/>
        <pt x="169" y="849" on="0"/>
        <pt x="169" y="835" on="1"/>
        <pt x="169" y="832" on="0"/>
        <pt x="168" y="821" on="0"/>
        <pt x="165" y="807" on="1"/>
        <pt x="161" y="788" on="0"/>
        <pt x="136" y="767" on="0"/>
      </contour>
    </TTGlyph>
    <TTGlyph name="dieresistonos" xMin="183" yMin="585" xMax="496" yMax="780">
      <contour>
        <pt x="328" y="585" on="1"/>
        <pt x="285" y="597" on="1"/>
        <pt x="348" y="780" on="1"/>
        <pt x="412" y="762" on="1"/>
      </contour>
      <contour>
        <pt x="220" y="618" on="1"/>
        <pt x="205" y="618" on="0"/>
        <pt x="183" y="636" on="0"/>
        <pt x="183" y="653" on="1"/>
        <pt x="183" y="657" on="0"/>
        <pt x="184" y="666" on="0"/>
        <pt x="186" y="674" on="1"/>
        <pt x="195" y="721" on="0"/>
        <pt x="237" y="721" on="1"/>
        <pt x="252" y="721" on="0"/>
        <pt x="274" y="703" on="0"/>
        <pt x="274" y="686" on="1"/>
        <pt x="274" y="681" on="0"/>
        <pt x="271" y="665" on="1"/>
        <pt x="262" y="618" on="0"/>
      </contour>
      <contour>
        <pt x="442" y="618" on="1"/>
        <pt x="427" y="618" on="0"/>
        <pt x="405" y="636" on="0"/>
        <pt x="405" y="653" on="1"/>
        <pt x="405" y="657" on="0"/>
        <pt x="406" y="666" on="0"/>
        <pt x="408" y="674" on="1"/>
        <pt x="417" y="721" on="0"/>
        <pt x="459" y="721" on="1"/>
        <pt x="474" y="721" on="0"/>
        <pt x="496" y="703" on="0"/>
        <pt x="496" y="686" on="1"/>
        <pt x="496" y="681" on="0"/>
        <pt x="493" y="665" on="1"/>
        <pt x="484" y="618" on="0"/>
      </contour>
    </TTGlyph>
    <TTGlyph name="divide" xMin="77" yMin="54" xMax="541" yMax="558">
      <contour>
        <pt x="77" y="273" on="1"/>
        <pt x="91" y="339" on="1"/>
        <pt x="541" y="339" on="1"/>
        <pt x="527" y="273" on="1"/>
      </contour>
      <contour>
        <pt x="263" y="54" on="1"/>
        <pt x="236" y="54" on="0"/>
        <pt x="213" y="74" on="0"/>
        <pt x="213" y="92" on="1"/>
        <pt x="213" y="98" on="0"/>
        <pt x="215" y="112" on="0"/>
        <pt x="217" y="120" on="1"/>
        <pt x="222" y="146" on="0"/>
        <pt x="253" y="172" on="0"/>
        <pt x="282" y="172" on="1"/>
        <pt x="309" y="172" on="0"/>
        <pt x="332" y="152" on="0"/>
        <pt x="332" y="134" on="1"/>
        <pt x="332" y="128" on="0"/>
        <pt x="330" y="114" on="0"/>
        <pt x="328" y="106" on="1"/>
        <pt x="323" y="80" on="0"/>
        <pt x="292" y="54" on="0"/>
      </contour>
      <contour>
        <pt x="338" y="440" on="1"/>
        <pt x="311" y="440" on="0"/>
        <pt x="288" y="460" on="0"/>
        <pt x="288" y="478" on="1"/>
        <pt x="288" y="484" on="0"/>
        <pt x="290" y="498" on="0"/>
        <pt x="292" y="506" on="1"/>
        <pt x="297" y="532" on="0"/>
        <pt x="328" y="558" on="0"/>
        <pt x="357" y="558" on="1"/>
        <pt x="384" y="558" on="0"/>
        <pt x="407" y="538" on="0"/>
        <pt x="407" y="520" on="1"/>
        <pt x="407" y="514" on="0"/>
        <pt x="405" y="500" on="0"/>
        <pt x="403" y="492" on="1"/>
        <pt x="398" y="466" on="0"/>
        <pt x="367" y="440" on="0"/>
      </contour>
    </TTGlyph>
    <TTGlyph name="dollar" xMin="11" yMin="-82" xMax="563" yMax="780">
      <contour>
        <pt x="198" y="0" on="1"/>
        <pt x="135" y="8" on="0"/>
        <pt x="39" y="68" on="0"/>
        <pt x="11" y="120" on="1"/>
        <pt x="70" y="169" on="1"/>
        <pt x="117" y="84" on="0"/>
        <pt x="214" y="70" on="1"/>
        <pt x="266" y="332" on="1"/>
        <pt x="103" y="362" on="0"/>
        <pt x="103" y="499" on="1"/>
        <pt x="103" y="539" on="0"/>
        <pt x="133" y="610" on="0"/>
        <pt x="192" y="664" on="0"/>
        <pt x="281" y="698" on="0"/>
        <pt x="340" y="700" on="1"/>
        <pt x="356" y="780" on="1"/>
        <pt x="416" y="780" on="1"/>
        <pt x="399" y="695" on="1"/>
        <pt x="456" y="687" on="0"/>
        <pt x="540" y="632" on="0"/>
        <pt x="563" y="587" on="1"/>
        <pt x="500" y="539" on="1"/>
        <pt x="485" y="569" on="0"/>
        <pt x="426" y="616" on="0"/>
        <pt x="383" y="625" on="1"/>
        <pt x="336" y="388" on="1"/>
        <pt x="427" y="371" on="0"/>
        <pt x="510" y="288" on="0"/>
        <pt x="510" y="219" on="1"/>
        <pt x="510" y="174" on="0"/>
        <pt x="477" y="96" on="0"/>
        <pt x="413" y="38" on="0"/>
        <pt x="319" y="2" on="0"/>
        <pt x="258" y="-1" on="1"/>
        <pt x="242" y="-82" on="1"/>
        <pt x="182" y="-82" on="1"/>
      </contour>
      <contour>
        <pt x="429" y="211" on="1"/>
        <pt x="429" y="253" on="0"/>
        <pt x="379" y="309" on="0"/>
        <pt x="322" y="320" on="1"/>
        <pt x="272" y="69" on="1"/>
        <pt x="311" y="72" on="0"/>
        <pt x="370" y="96" on="0"/>
        <pt x="409" y="135" on="0"/>
        <pt x="429" y="184" on="0"/>
      </contour>
      <contour>
        <pt x="184" y="506" on="1"/>
        <pt x="184" y="465" on="0"/>
        <pt x="230" y="413" on="0"/>
        <pt x="280" y="402" on="1"/>
        <pt x="325" y="629" on="1"/>
        <pt x="260" y="625" on="0"/>
        <pt x="184" y="561" on="0"/>
      </contour>
    </TTGlyph>
    <TTGlyph name="dotaccent" xMin="268" yMin="616" xMax="369" yMax="719">
      <contour>
        <pt x="310" y="616" on="1"/>
        <pt x="290" y="616" on="0"/>
        <pt x="268" y="634" on="0"/>
        <pt x="268" y="651" on="1"/>
        <pt x="268" y="655" on="0"/>
        <pt x="269" y="664" on="0"/>
        <pt x="271" y="672" on="1"/>
        <pt x="280" y="719" on="0"/>
        <pt x="327" y="719" on="1"/>
        <pt x="347" y="719" on="0"/>
        <pt x="369" y="701" on="0"/>
        <pt x="369" y="684" on="1"/>
        <pt x="369" y="679" on="0"/>
        <pt x="366" y="663" on="1"/>
        <pt x="357" y="616" on="0"/>
      </contour>
    </TTGlyph>
    <TTGlyph name="dotaccent.case" xMin="268" yMin="787" xMax="369" yMax="890">
      <contour>
        <pt x="310" y="787" on="1"/>
        <pt x="290" y="787" on="0"/>
        <pt x="268" y="805" on="0"/>
        <pt x="268" y="822" on="1"/>
        <pt x="268" y="826" on="0"/>
        <pt x="269" y="835" on="0"/>
        <pt x="271" y="843" on="1"/>
        <pt x="280" y="890" on="0"/>
        <pt x="327" y="890" on="1"/>
        <pt x="347" y="890" on="0"/>
        <pt x="369" y="872" on="0"/>
        <pt x="369" y="855" on="1"/>
        <pt x="369" y="850" on="0"/>
        <pt x="366" y="834" on="1"/>
        <pt x="357" y="787" on="0"/>
      </contour>
    </TTGlyph>
    <TTGlyph name="dotlessi" xMin="51" yMin="0" xMax="217" yMax="516">
      <contour>
        <pt x="120" y="0" on="1"/>
        <pt x="85" y="0" on="0"/>
        <pt x="51" y="35" on="0"/>
        <pt x="51" y="63" on="1"/>
        <pt x="51" y="71" on="0"/>
        <pt x="54" y="86" on="1"/>
        <pt x="140" y="516" on="1"/>
        <pt x="217" y="516" on="1"/>
        <pt x="127" y="68" on="1"/>
        <pt x="200" y="68" on="1"/>
        <pt x="187" y="0" on="1"/>
      </contour>
    </TTGlyph>
    <TTGlyph name="e" xMin="49" yMin="-12" xMax="485" yMax="528">
      <contour>
        <pt x="244" y="-12" on="1"/>
        <pt x="151" y="-12" on="0"/>
        <pt x="49" y="98" on="0"/>
        <pt x="49" y="204" on="1"/>
        <pt x="49" y="268" on="0"/>
        <pt x="88" y="385" on="0"/>
        <pt x="159" y="475" on="0"/>
        <pt x="258" y="528" on="0"/>
        <pt x="319" y="528" on="1"/>
        <pt x="352" y="528" on="0"/>
        <pt x="412" y="511" on="0"/>
        <pt x="458" y="477" on="0"/>
        <pt x="485" y="425" on="0"/>
        <pt x="485" y="390" on="1"/>
        <pt x="485" y="305" on="0"/>
        <pt x="310" y="223" on="0"/>
        <pt x="129" y="221" on="1"/>
        <pt x="127" y="210" on="0"/>
        <pt x="126" y="187" on="0"/>
        <pt x="126" y="179" on="1"/>
        <pt x="126" y="124" on="0"/>
        <pt x="189" y="57" on="0"/>
        <pt x="249" y="57" on="1"/>
        <pt x="298" y="57" on="0"/>
        <pt x="377" y="102" on="0"/>
        <pt x="407" y="139" on="1"/>
        <pt x="457" y="94" on="1"/>
        <pt x="409" y="35" on="0"/>
        <pt x="300" y="-12" on="0"/>
      </contour>
      <contour>
        <pt x="311" y="462" on="1"/>
        <pt x="281" y="462" on="0"/>
        <pt x="226" y="440" on="0"/>
        <pt x="183" y="401" on="0"/>
        <pt x="152" y="344" on="0"/>
        <pt x="145" y="310" on="1"/>
        <pt x="139" y="281" on="1"/>
        <pt x="222" y="284" on="0"/>
        <pt x="326" y="299" on="0"/>
        <pt x="385" y="326" on="0"/>
        <pt x="406" y="364" on="0"/>
        <pt x="406" y="391" on="1"/>
        <pt x="406" y="412" on="0"/>
        <pt x="390" y="439" on="0"/>
        <pt x="364" y="455" on="0"/>
        <pt x="329" y="462" on="0"/>
      </contour>
    </TTGlyph>
    <TTGlyph name="eacute" xMin="49" yMin="-12" xMax="485" yMax="780">
      <component glyphName="e" x="0" y="0" flags="0x204"/>
      <component glyphName="acute" x="31" y="0" flags="0x4"/>
    </TTGlyph>
    <TTGlyph name="ebreve" xMin="49" yMin="-12" xMax="504" yMax="750">
      <component glyphName="e" x="0" y="0" flags="0x204"/>
      <component glyphName="breve" x="31" y="0" flags="0x4"/>
    </TTGlyph>
    <TTGlyph name="ecaron" xMin="49" yMin="-12" xMax="523" yMax="774">
      <component glyphName="e" x="0" y="0" flags="0x204"/>
      <component glyphName="caron" x="31" y="0" flags="0x4"/>
    </TTGlyph>
    <TTGlyph name="ecircumflex" xMin="49" yMin="-12" xMax="491" yMax="765">
      <component glyphName="e" x="0" y="0" flags="0x204"/>
      <component glyphName="circumflex" x="31" y="0" flags="0x4"/>
    </TTGlyph>
    <TTGlyph name="edieresis" xMin="49" yMin="-12" xMax="489" yMax="721">
      <component glyphName="e" x="0" y="0" flags="0x204"/>
      <component glyphName="dieresis" x="31" y="0" flags="0x4"/>
    </TTGlyph>
    <TTGlyph name="edotaccent" xMin="49" yMin="-12" xMax="485" yMax="719">
      <component glyphName="e" x="0" y="0" flags="0x204"/>
      <component glyphName="dotaccent" x="31" y="0" flags="0x4"/>
    </TTGlyph>
    <TTGlyph name="egrave" xMin="49" yMin="-12" xMax="485" yMax="776">
      <component glyphName="e" x="0" y="0" flags="0x204"/>
      <component glyphName="grave" x="31" y="0" flags="0x4"/>
    </TTGlyph>
</ttFont>
